<ttFont>
    <TTGlyph name="A" xMin="-20" yMin="0" xMax="1657" yMax="1436">
      <contour>
        <pt x="541" y="203" on="1"/>
        <pt x="467" y="0" on="1"/>
        <pt x="-20" y="0" on="1"/>
        <pt x="586" y="1436" on="1"/>
        <pt x="1073" y="1436" on="1"/>
        <pt x="1657" y="0" on="1"/>
        <pt x="1151" y="0" on="1"/>
        <pt x="1079" y="203" on="1"/>
      </contour>
      <contour>
        <pt x="815" y="963" on="1"/>
        <pt x="664" y="543" on="1"/>
        <pt x="963" y="543" on="1"/>
      </contour>
    </TTGlyph>
    <TTGlyph name="AE" xMin="-20" yMin="0" xMax="2271" yMax="1436">
      <contour>
        <pt x="2271" y="0" on="1"/>
        <pt x="1038" y="0" on="1"/>
        <pt x="1038" y="250" on="1"/>
        <pt x="594" y="250" on="1"/>
        <pt x="471" y="0" on="1"/>
        <pt x="-20" y="0" on="1"/>
        <pt x="778" y="1436" on="1"/>
        <pt x="2253" y="1436" on="1"/>
        <pt x="2253" y="1075" on="1"/>
        <pt x="1513" y="1075" on="1"/>
        <pt x="1513" y="899" on="1"/>
        <pt x="2185" y="899" on="1"/>
        <pt x="2185" y="539" on="1"/>
        <pt x="1513" y="539" on="1"/>
        <pt x="1513" y="360" on="1"/>
        <pt x="2271" y="360" on="1"/>
      </contour>
      <contour>
        <pt x="1038" y="1075" on="1"/>
        <pt x="1004" y="1075" on="1"/>
        <pt x="764" y="590" on="1"/>
        <pt x="1038" y="590" on="1"/>
      </contour>
    </TTGlyph>
    <TTGlyph name="Aacute" xMin="-20" yMin="0" xMax="1657" yMax="1912">
      <component glyphName="A" x="0" y="0" flags="0x1000"/>
      <component glyphName="acute" x="549" y="315" flags="0x1000"/>
    </TTGlyph>
    <TTGlyph name="Abreve" xMin="-20" yMin="0" xMax="1657" yMax="1890">
      <component glyphName="A" x="0" y="0" flags="0x1000"/>
      <component glyphName="breve" x="461" y="315" flags="0x1000"/>
    </TTGlyph>
    <TTGlyph name="Acircumflex" xMin="-20" yMin="0" xMax="1657" yMax="1890">
      <component glyphName="A" x="0" y="0" flags="0x1000"/>
      <component glyphName="circumflex" x="461" y="315" flags="0x1000"/>
    </TTGlyph>
    <TTGlyph name="Adieresis" xMin="-20" yMin="0" xMax="1657" yMax="1933">
      <contour>
        <pt x="524" y="1559" on="0"/>
        <pt x="420" y="1663" on="0"/>
        <pt x="420" y="1745" on="1"/>
        <pt x="420" y="1829" on="0"/>
        <pt x="524" y="1933" on="0"/>
        <pt x="606" y="1933" on="1"/>
        <pt x="688" y="1933" on="0"/>
        <pt x="793" y="1829" on="0"/>
        <pt x="793" y="1745" on="1"/>
        <pt x="793" y="1663" on="0"/>
        <pt x="688" y="1559" on="0"/>
        <pt x="606" y="1559" on="1"/>
      </contour>
      <contour>
        <pt x="950" y="1559" on="0"/>
        <pt x="846" y="1663" on="0"/>
        <pt x="846" y="1745" on="1"/>
        <pt x="846" y="1829" on="0"/>
        <pt x="950" y="1933" on="0"/>
        <pt x="1032" y="1933" on="1"/>
        <pt x="1114" y="1933" on="0"/>
        <pt x="1219" y="1829" on="0"/>
        <pt x="1219" y="1745" on="1"/>
        <pt x="1219" y="1663" on="0"/>
        <pt x="1114" y="1559" on="0"/>
        <pt x="1032" y="1559" on="1"/>
      </contour>
      <contour>
        <pt x="541" y="203" on="1"/>
        <pt x="467" y="0" on="1"/>
        <pt x="-20" y="0" on="1"/>
        <pt x="586" y="1436" on="1"/>
        <pt x="1073" y="1436" on="1"/>
        <pt x="1657" y="0" on="1"/>
        <pt x="1151" y="0" on="1"/>
        <pt x="1079" y="203" on="1"/>
      </contour>
      <contour>
        <pt x="815" y="963" on="1"/>
        <pt x="664" y="543" on="1"/>
        <pt x="963" y="543" on="1"/>
      </contour>
    </TTGlyph>
    <TTGlyph name="Agrave" xMin="-20" yMin="0" xMax="1657" yMax="1912">
      <component glyphName="A" x="0" y="0" flags="0x1000"/>
      <component glyphName="grave" x="385" y="315" flags="0x1000"/>
    </TTGlyph>
    <TTGlyph name="Amacron" xMin="-20" yMin="0" xMax="1657" yMax="1896">
      <component glyphName="A" x="0" y="0" flags="0x1000"/>
      <component glyphName="macron" x="461" y="315" flags="0x1000"/>
    </TTGlyph>
    <TTGlyph name="Aogonek" xMin="-20" yMin="-418" xMax="1657" yMax="1436">
      <contour>
        <pt x="1518" y="0" on="1"/>
        <pt x="1440" y="-117" on="0"/>
        <pt x="1440" y="-162" on="1"/>
        <pt x="1440" y="-193" on="0"/>
        <pt x="1468" y="-193" on="1"/>
        <pt x="1509" y="-193" on="0"/>
        <pt x="1544" y="-131" on="1"/>
        <pt x="1657" y="-262" on="1"/>
        <pt x="1614" y="-340" on="0"/>
        <pt x="1487" y="-418" on="0"/>
        <pt x="1411" y="-418" on="1"/>
        <pt x="1333" y="-418" on="0"/>
        <pt x="1214" y="-334" on="0"/>
        <pt x="1214" y="-238" on="1"/>
        <pt x="1214" y="-134" on="0"/>
        <pt x="1303" y="0" on="1"/>
        <pt x="1151" y="0" on="1"/>
        <pt x="1079" y="203" on="1"/>
        <pt x="541" y="203" on="1"/>
        <pt x="467" y="0" on="1"/>
        <pt x="-20" y="0" on="1"/>
        <pt x="586" y="1436" on="1"/>
        <pt x="1073" y="1436" on="1"/>
        <pt x="1657" y="0" on="1"/>
      </contour>
      <contour>
        <pt x="963" y="543" on="1"/>
        <pt x="815" y="963" on="1"/>
        <pt x="664" y="543" on="1"/>
      </contour>
    </TTGlyph>
    <TTGlyph name="Aring" xMin="-20" yMin="0" xMax="1657" yMax="1833">
      <contour>
        <pt x="541" y="203" on="1"/>
        <pt x="467" y="0" on="1"/>
        <pt x="-20" y="0" on="1"/>
        <pt x="584" y="1432" on="1"/>
        <pt x="553" y="1487" on="0"/>
        <pt x="553" y="1559" on="1"/>
        <pt x="553" y="1635" on="0"/>
        <pt x="627" y="1759" on="0"/>
        <pt x="752" y="1833" on="0"/>
        <pt x="827" y="1833" on="1"/>
        <pt x="903" y="1833" on="0"/>
        <pt x="1028" y="1759" on="0"/>
        <pt x="1102" y="1634" on="0"/>
        <pt x="1102" y="1559" on="1"/>
        <pt x="1102" y="1493" on="0"/>
        <pt x="1073" y="1436" on="1"/>
        <pt x="1657" y="0" on="1"/>
        <pt x="1151" y="0" on="1"/>
        <pt x="1079" y="203" on="1"/>
      </contour>
      <contour>
        <pt x="791" y="1645" on="0"/>
        <pt x="741" y="1595" on="0"/>
        <pt x="741" y="1559" on="1"/>
        <pt x="741" y="1522" on="0"/>
        <pt x="791" y="1473" on="0"/>
        <pt x="827" y="1473" on="1"/>
        <pt x="864" y="1473" on="0"/>
        <pt x="913" y="1522" on="0"/>
        <pt x="913" y="1559" on="1"/>
        <pt x="913" y="1596" on="0"/>
        <pt x="864" y="1645" on="0"/>
        <pt x="827" y="1645" on="1"/>
      </contour>
      <contour>
        <pt x="815" y="963" on="1"/>
        <pt x="664" y="543" on="1"/>
        <pt x="963" y="543" on="1"/>
      </contour>
    </TTGlyph>
    <TTGlyph name="Atilde" xMin="-20" yMin="0" xMax="1657" yMax="1947">
      <component glyphName="A" x="0" y="0" flags="0x1000"/>
      <component glyphName="tilde" x="461" y="315" flags="0x1000"/>
    </TTGlyph>
    <TTGlyph name="B" xMin="102" yMin="0" xMax="1442" yMax="1436">
      <contour>
        <pt x="1001" y="1436" on="0"/>
        <pt x="1260" y="1346" on="0"/>
        <pt x="1399" y="1182" on="0"/>
        <pt x="1399" y="1073" on="1"/>
        <pt x="1399" y="967" on="0"/>
        <pt x="1268" y="799" on="0"/>
        <pt x="1157" y="766" on="1"/>
        <pt x="1286" y="737" on="0"/>
        <pt x="1442" y="539" on="0"/>
        <pt x="1442" y="403" on="1"/>
        <pt x="1442" y="282" on="0"/>
        <pt x="1298" y="98" on="0"/>
        <pt x="1038" y="0" on="0"/>
        <pt x="864" y="0" on="1"/>
        <pt x="102" y="0" on="1"/>
        <pt x="102" y="1436" on="1"/>
        <pt x="829" y="1436" on="1"/>
      </contour>
      <contour>
        <pt x="575" y="883" on="1"/>
        <pt x="803" y="883" on="1"/>
        <pt x="852" y="883" on="0"/>
        <pt x="911" y="940" on="0"/>
        <pt x="911" y="987" on="1"/>
        <pt x="911" y="1032" on="0"/>
        <pt x="852" y="1087" on="0"/>
        <pt x="803" y="1087" on="1"/>
        <pt x="575" y="1087" on="1"/>
      </contour>
      <contour>
        <pt x="575" y="348" on="1"/>
        <pt x="803" y="348" on="1"/>
        <pt x="869" y="348" on="0"/>
        <pt x="948" y="412" on="0"/>
        <pt x="948" y="463" on="1"/>
        <pt x="948" y="510" on="0"/>
        <pt x="868" y="567" on="0"/>
        <pt x="803" y="567" on="1"/>
        <pt x="575" y="567" on="1"/>
      </contour>
    </TTGlyph>
    <TTGlyph name="C" xMin="31" yMin="-20" xMax="1415" yMax="1450">
      <contour>
        <pt x="973" y="1450" on="0"/>
        <pt x="1305" y="1307" on="0"/>
        <pt x="1415" y="1188" on="1"/>
        <pt x="1141" y="862" on="1"/>
        <pt x="1078" y="950" on="0"/>
        <pt x="899" y="1055" on="0"/>
        <pt x="815" y="1055" on="1"/>
        <pt x="686" y="1055" on="0"/>
        <pt x="518" y="870" on="0"/>
        <pt x="518" y="727" on="1"/>
        <pt x="518" y="633" on="0"/>
        <pt x="594" y="481" on="0"/>
        <pt x="731" y="395" on="0"/>
        <pt x="815" y="395" on="1"/>
        <pt x="893" y="395" on="0"/>
        <pt x="1071" y="483" on="0"/>
        <pt x="1141" y="559" on="1"/>
        <pt x="1415" y="266" on="1"/>
        <pt x="1294" y="135" on="0"/>
        <pt x="956" y="-20" on="0"/>
        <pt x="791" y="-20" on="1"/>
        <pt x="574" y="-20" on="0"/>
        <pt x="227" y="172" on="0"/>
        <pt x="31" y="510" on="0"/>
        <pt x="31" y="721" on="1"/>
        <pt x="31" y="930" on="0"/>
        <pt x="231" y="1262" on="0"/>
        <pt x="586" y="1450" on="0"/>
        <pt x="809" y="1450" on="1"/>
      </contour>
    </TTGlyph>
    <TTGlyph name="Cacute" xMin="31" yMin="-20" xMax="1415" yMax="1912">
      <component glyphName="C" x="0" y="0" flags="0x1000"/>
      <component glyphName="acute" x="537" y="315" flags="0x1000"/>
    </TTGlyph>
    <TTGlyph name="Ccaron" xMin="31" yMin="-20" xMax="1415" yMax="1890">
      <component glyphName="C" x="0" y="0" flags="0x1000"/>
      <component glyphName="caron" x="436" y="315" flags="0x1000"/>
    </TTGlyph>
    <TTGlyph name="Ccedilla" xMin="31" yMin="-506" xMax="1415" yMax="1450">
      <contour>
        <pt x="893" y="395" on="0"/>
        <pt x="1071" y="483" on="0"/>
        <pt x="1141" y="559" on="1"/>
        <pt x="1415" y="266" on="1"/>
        <pt x="1319" y="160" on="0"/>
        <pt x="1057" y="16" on="0"/>
        <pt x="918" y="-8" on="1"/>
        <pt x="866" y="-104" on="1"/>
        <pt x="927" y="-124" on="0"/>
        <pt x="1001" y="-219" on="0"/>
        <pt x="1001" y="-274" on="1"/>
        <pt x="1001" y="-380" on="0"/>
        <pt x="846" y="-506" on="0"/>
        <pt x="713" y="-506" on="1"/>
        <pt x="666" y="-506" on="0"/>
        <pt x="553" y="-469" on="0"/>
        <pt x="506" y="-436" on="1"/>
        <pt x="588" y="-252" on="1"/>
        <pt x="604" y="-270" on="0"/>
        <pt x="649" y="-293" on="0"/>
        <pt x="672" y="-293" on="1"/>
        <pt x="707" y="-293" on="0"/>
        <pt x="750" y="-256" on="0"/>
        <pt x="750" y="-225" on="1"/>
        <pt x="750" y="-192" on="0"/>
        <pt x="702" y="-156" on="0"/>
        <pt x="662" y="-156" on="1"/>
        <pt x="631" y="-156" on="0"/>
        <pt x="586" y="-166" on="1"/>
        <pt x="666" y="-12" on="1"/>
        <pt x="480" y="15" on="0"/>
        <pt x="190" y="215" on="0"/>
        <pt x="31" y="530" on="0"/>
        <pt x="31" y="721" on="1"/>
        <pt x="31" y="930" on="0"/>
        <pt x="231" y="1262" on="0"/>
        <pt x="586" y="1450" on="0"/>
        <pt x="809" y="1450" on="1"/>
        <pt x="973" y="1450" on="0"/>
        <pt x="1305" y="1307" on="0"/>
        <pt x="1415" y="1188" on="1"/>
        <pt x="1141" y="862" on="1"/>
        <pt x="1078" y="950" on="0"/>
        <pt x="899" y="1055" on="0"/>
        <pt x="815" y="1055" on="1"/>
        <pt x="686" y="1055" on="0"/>
        <pt x="518" y="870" on="0"/>
        <pt x="518" y="727" on="1"/>
        <pt x="518" y="633" on="0"/>
        <pt x="594" y="481" on="0"/>
        <pt x="731" y="395" on="0"/>
        <pt x="815" y="395" on="1"/>
      </contour>
    </TTGlyph>
    <TTGlyph name="D" xMin="102" yMin="0" xMax="1524" yMax="1436">
      <contour>
        <pt x="979" y="1436" on="0"/>
        <pt x="1331" y="1260" on="0"/>
        <pt x="1524" y="934" on="0"/>
        <pt x="1524" y="719" on="1"/>
        <pt x="1524" y="502" on="0"/>
        <pt x="1327" y="178" on="0"/>
        <pt x="965" y="0" on="0"/>
        <pt x="725" y="0" on="1"/>
        <pt x="102" y="0" on="1"/>
        <pt x="102" y="1436" on="1"/>
        <pt x="743" y="1436" on="1"/>
      </contour>
      <contour>
        <pt x="578" y="369" on="1"/>
        <pt x="756" y="369" on="1"/>
        <pt x="885" y="369" on="0"/>
        <pt x="1038" y="557" on="0"/>
        <pt x="1038" y="715" on="1"/>
        <pt x="1038" y="875" on="0"/>
        <pt x="872" y="1067" on="0"/>
        <pt x="733" y="1067" on="1"/>
        <pt x="578" y="1067" on="1"/>
      </contour>
    </TTGlyph>
    <TTGlyph name="Dcaron" xMin="102" yMin="0" xMax="1524" yMax="1890">
      <component glyphName="D" x="0" y="0" flags="0x1000"/>
      <component glyphName="caron" x="350" y="315" flags="0x1000"/>
    </TTGlyph>
    <TTGlyph name="Dcroat" xMin="102" yMin="0" xMax="1524" yMax="1896">
      <component glyphName="D" x="0" y="0" flags="0x1000"/>
      <component glyphName="macron" x="362" y="315" flags="0x1000"/>
    </TTGlyph>
    <TTGlyph name="Delta" xMin="-20" yMin="0" xMax="1657" yMax="1436">
      <contour>
        <pt x="-20" y="0" on="1"/>
        <pt x="586" y="1436" on="1"/>
        <pt x="1073" y="1436" on="1"/>
        <pt x="1657" y="0" on="1"/>
      </contour>
      <contour>
        <pt x="815" y="963" on="1"/>
        <pt x="590" y="340" on="1"/>
        <pt x="1032" y="340" on="1"/>
      </contour>
    </TTGlyph>
    <TTGlyph name="E" xMin="102" yMin="0" xMax="1335" yMax="1436">
      <contour>
        <pt x="578" y="1075" on="1"/>
        <pt x="578" y="899" on="1"/>
        <pt x="1249" y="899" on="1"/>
        <pt x="1249" y="539" on="1"/>
        <pt x="578" y="539" on="1"/>
        <pt x="578" y="360" on="1"/>
        <pt x="1335" y="360" on="1"/>
        <pt x="1335" y="0" on="1"/>
        <pt x="102" y="0" on="1"/>
        <pt x="102" y="1436" on="1"/>
        <pt x="1317" y="1436" on="1"/>
        <pt x="1317" y="1075" on="1"/>
      </contour>
    </TTGlyph>
    <TTGlyph name="Eacute" xMin="102" yMin="0" xMax="1335" yMax="1912">
      <component glyphName="E" x="0" y="0" flags="0x1000"/>
      <component glyphName="acute" x="442" y="315" flags="0x1000"/>
    </TTGlyph>
    <TTGlyph name="Ecaron" xMin="102" yMin="0" xMax="1335" yMax="1890">
      <component glyphName="E" x="0" y="0" flags="0x1000"/>
      <component glyphName="caron" x="342" y="315" flags="0x1000"/>
    </TTGlyph>
    <TTGlyph name="Ecircumflex" xMin="102" yMin="0" xMax="1335" yMax="1890">
      <component glyphName="E" x="0" y="0" flags="0x1000"/>
      <component glyphName="circumflex" x="354" y="315" flags="0x1000"/>
    </TTGlyph>
    <TTGlyph name="Edieresis" xMin="102" yMin="0" xMax="1335" yMax="1933">
      <contour>
        <pt x="582" y="1933" on="0"/>
        <pt x="686" y="1829" on="0"/>
        <pt x="686" y="1745" on="1"/>
        <pt x="686" y="1663" on="0"/>
        <pt x="582" y="1559" on="0"/>
        <pt x="500" y="1559" on="1"/>
        <pt x="418" y="1559" on="0"/>
        <pt x="313" y="1663" on="0"/>
        <pt x="313" y="1745" on="1"/>
        <pt x="313" y="1829" on="0"/>
        <pt x="418" y="1933" on="0"/>
        <pt x="500" y="1933" on="1"/>
      </contour>
      <contour>
        <pt x="1008" y="1933" on="0"/>
        <pt x="1112" y="1829" on="0"/>
        <pt x="1112" y="1745" on="1"/>
        <pt x="1112" y="1663" on="0"/>
        <pt x="1008" y="1559" on="0"/>
        <pt x="926" y="1559" on="1"/>
        <pt x="844" y="1559" on="0"/>
        <pt x="739" y="1663" on="0"/>
        <pt x="739" y="1745" on="1"/>
        <pt x="739" y="1829" on="0"/>
        <pt x="844" y="1933" on="0"/>
        <pt x="926" y="1933" on="1"/>
      </contour>
      <contour>
        <pt x="578" y="1075" on="1"/>
        <pt x="578" y="899" on="1"/>
        <pt x="1249" y="899" on="1"/>
        <pt x="1249" y="539" on="1"/>
        <pt x="578" y="539" on="1"/>
        <pt x="578" y="360" on="1"/>
        <pt x="1335" y="360" on="1"/>
        <pt x="1335" y="0" on="1"/>
        <pt x="102" y="0" on="1"/>
        <pt x="102" y="1436" on="1"/>
        <pt x="1317" y="1436" on="1"/>
        <pt x="1317" y="1075" on="1"/>
      </contour>
    </TTGlyph>
    <TTGlyph name="Edotaccent" xMin="102" yMin="0" xMax="1335" yMax="1988">
      <component glyphName="E" x="0" y="0" flags="0x1000"/>
      <component glyphName="dotaccent" x="354" y="315" flags="0x1000"/>
    </TTGlyph>
    <TTGlyph name="Egrave" xMin="102" yMin="0" xMax="1335" yMax="1912">
      <component glyphName="E" x="0" y="0" flags="0x1000"/>
      <component glyphName="grave" x="279" y="315" flags="0x1000"/>
    </TTGlyph>
    <TTGlyph name="Emacron" xMin="102" yMin="0" xMax="1335" yMax="1896">
      <component glyphName="E" x="0" y="0" flags="0x1000"/>
      <component glyphName="macron" x="354" y="315" flags="0x1000"/>
    </TTGlyph>
    <TTGlyph name="Eogonek" xMin="102" yMin="-418" xMax="1335" yMax="1436">
      <contour>
        <pt x="578" y="1075" on="1"/>
        <pt x="578" y="899" on="1"/>
        <pt x="1249" y="899" on="1"/>
        <pt x="1249" y="539" on="1"/>
        <pt x="578" y="539" on="1"/>
        <pt x="578" y="360" on="1"/>
        <pt x="1335" y="360" on="1"/>
        <pt x="1335" y="0" on="1"/>
        <pt x="1180" y="0" on="1"/>
        <pt x="1102" y="-117" on="0"/>
        <pt x="1102" y="-162" on="1"/>
        <pt x="1102" y="-193" on="0"/>
        <pt x="1130" y="-193" on="1"/>
        <pt x="1171" y="-193" on="0"/>
        <pt x="1206" y="-131" on="1"/>
        <pt x="1319" y="-262" on="1"/>
        <pt x="1276" y="-340" on="0"/>
        <pt x="1149" y="-418" on="0"/>
        <pt x="1073" y="-418" on="1"/>
        <pt x="995" y="-418" on="0"/>
        <pt x="877" y="-334" on="0"/>
        <pt x="877" y="-238" on="1"/>
        <pt x="877" y="-134" on="0"/>
        <pt x="965" y="0" on="1"/>
        <pt x="102" y="0" on="1"/>
        <pt x="102" y="1436" on="1"/>
        <pt x="1317" y="1436" on="1"/>
        <pt x="1317" y="1075" on="1"/>
      </contour>
    </TTGlyph>
    <TTGlyph name="Eth" xMin="0" yMin="0" xMax="1612" yMax="1436">
      <contour>
        <pt x="1067" y="1436" on="0"/>
        <pt x="1419" y="1260" on="0"/>
        <pt x="1612" y="934" on="0"/>
        <pt x="1612" y="719" on="1"/>
        <pt x="1612" y="502" on="0"/>
        <pt x="1415" y="178" on="0"/>
        <pt x="1053" y="0" on="0"/>
        <pt x="813" y="0" on="1"/>
        <pt x="190" y="0" on="1"/>
        <pt x="190" y="596" on="1"/>
        <pt x="0" y="596" on="1"/>
        <pt x="0" y="840" on="1"/>
        <pt x="190" y="840" on="1"/>
        <pt x="190" y="1436" on="1"/>
        <pt x="831" y="1436" on="1"/>
      </contour>
      <contour>
        <pt x="973" y="369" on="0"/>
        <pt x="1126" y="557" on="0"/>
        <pt x="1126" y="715" on="1"/>
        <pt x="1126" y="875" on="0"/>
        <pt x="961" y="1067" on="0"/>
        <pt x="821" y="1067" on="1"/>
        <pt x="666" y="1067" on="1"/>
        <pt x="666" y="840" on="1"/>
        <pt x="918" y="840" on="1"/>
        <pt x="918" y="596" on="1"/>
        <pt x="666" y="596" on="1"/>
        <pt x="666" y="369" on="1"/>
        <pt x="844" y="369" on="1"/>
      </contour>
    </TTGlyph>
    <TTGlyph name="Euro" xMin="41" yMin="-20" xMax="1591" yMax="1450">
      <contour>
        <pt x="1069" y="395" on="0"/>
        <pt x="1247" y="483" on="0"/>
        <pt x="1317" y="559" on="1"/>
        <pt x="1591" y="266" on="1"/>
        <pt x="1470" y="135" on="0"/>
        <pt x="1133" y="-20" on="0"/>
        <pt x="967" y="-20" on="1"/>
        <pt x="787" y="-20" on="0"/>
        <pt x="485" y="113" on="0"/>
        <pt x="279" y="352" on="0"/>
        <pt x="236" y="510" on="1"/>
        <pt x="41" y="510" on="1"/>
        <pt x="41" y="678" on="1"/>
        <pt x="209" y="678" on="1"/>
        <pt x="207" y="721" on="1"/>
        <pt x="207" y="756" on="0"/>
        <pt x="209" y="772" on="1"/>
        <pt x="41" y="772" on="1"/>
        <pt x="41" y="938" on="1"/>
        <pt x="238" y="938" on="1"/>
        <pt x="283" y="1090" on="0"/>
        <pt x="498" y="1321" on="0"/>
        <pt x="803" y="1450" on="0"/>
        <pt x="985" y="1450" on="1"/>
        <pt x="1149" y="1450" on="0"/>
        <pt x="1481" y="1307" on="0"/>
        <pt x="1591" y="1188" on="1"/>
        <pt x="1317" y="862" on="1"/>
        <pt x="1254" y="950" on="0"/>
        <pt x="1075" y="1055" on="0"/>
        <pt x="991" y="1055" on="1"/>
        <pt x="917" y="1055" on="0"/>
        <pt x="799" y="993" on="0"/>
        <pt x="758" y="938" on="1"/>
        <pt x="1171" y="938" on="1"/>
        <pt x="1171" y="772" on="1"/>
        <pt x="696" y="772" on="1"/>
        <pt x="694" y="758" on="0"/>
        <pt x="694" y="727" on="1"/>
        <pt x="694" y="694" on="0"/>
        <pt x="696" y="678" on="1"/>
        <pt x="1171" y="678" on="1"/>
        <pt x="1171" y="510" on="1"/>
        <pt x="762" y="510" on="1"/>
        <pt x="803" y="455" on="0"/>
        <pt x="920" y="395" on="0"/>
        <pt x="991" y="395" on="1"/>
      </contour>
    </TTGlyph>
    <TTGlyph name="F" xMin="102" yMin="0" xMax="1257" yMax="1436">
      <contour>
        <pt x="578" y="1075" on="1"/>
        <pt x="578" y="827" on="1"/>
        <pt x="1214" y="827" on="1"/>
        <pt x="1214" y="467" on="1"/>
        <pt x="578" y="467" on="1"/>
        <pt x="578" y="0" on="1"/>
        <pt x="102" y="0" on="1"/>
        <pt x="102" y="1436" on="1"/>
        <pt x="1257" y="1436" on="1"/>
        <pt x="1257" y="1075" on="1"/>
      </contour>
    </TTGlyph>
    <TTGlyph name="G" xMin="31" yMin="-20" xMax="1460" yMax="1450">
      <contour>
        <pt x="1438" y="756" on="1"/>
        <pt x="1438" y="164" on="1"/>
        <pt x="1317" y="84" on="0"/>
        <pt x="963" y="-20" on="0"/>
        <pt x="809" y="-20" on="1"/>
        <pt x="586" y="-20" on="0"/>
        <pt x="231" y="170" on="0"/>
        <pt x="31" y="506" on="0"/>
        <pt x="31" y="717" on="1"/>
        <pt x="31" y="926" on="0"/>
        <pt x="240" y="1262" on="0"/>
        <pt x="608" y="1450" on="0"/>
        <pt x="840" y="1450" on="1"/>
        <pt x="1008" y="1450" on="0"/>
        <pt x="1346" y="1329" on="0"/>
        <pt x="1460" y="1229" on="1"/>
        <pt x="1192" y="903" on="1"/>
        <pt x="1120" y="973" on="0"/>
        <pt x="928" y="1055" on="0"/>
        <pt x="838" y="1055" on="1"/>
        <pt x="748" y="1055" on="0"/>
        <pt x="600" y="967" on="0"/>
        <pt x="518" y="813" on="0"/>
        <pt x="518" y="717" on="1"/>
        <pt x="518" y="619" on="0"/>
        <pt x="602" y="463" on="0"/>
        <pt x="750" y="375" on="0"/>
        <pt x="842" y="375" on="1"/>
        <pt x="916" y="375" on="0"/>
        <pt x="1030" y="422" on="1"/>
        <pt x="1030" y="756" on="1"/>
      </contour>
    </TTGlyph>
    <TTGlyph name="Gbreve" xMin="31" yMin="-20" xMax="1460" yMax="1890">
      <component glyphName="G" x="0" y="0" flags="0x1000"/>
      <component glyphName="breve" x="453" y="315" flags="0x1000"/>
    </TTGlyph>
    <TTGlyph name="Gcommaaccent" xMin="31" yMin="-696" xMax="1460" yMax="1450">
      <component glyphName="G" x="0" y="0" flags="0x1000"/>
      <component glyphName="uni0326" x="551" y="0" flags="0x1000"/>
    </TTGlyph>
    <TTGlyph name="H" xMin="102" yMin="0" xMax="1497" yMax="1436">
      <contour>
        <pt x="1022" y="0" on="1"/>
        <pt x="1022" y="518" on="1"/>
        <pt x="578" y="518" on="1"/>
        <pt x="578" y="0" on="1"/>
        <pt x="102" y="0" on="1"/>
        <pt x="102" y="1436" on="1"/>
        <pt x="578" y="1436" on="1"/>
        <pt x="578" y="879" on="1"/>
        <pt x="1022" y="879" on="1"/>
        <pt x="1022" y="1436" on="1"/>
        <pt x="1497" y="1436" on="1"/>
        <pt x="1497" y="0" on="1"/>
      </contour>
    </TTGlyph>
    <TTGlyph name="I" xMin="102" yMin="0" xMax="578" yMax="1436">
      <contour>
        <pt x="102" y="0" on="1"/>
        <pt x="102" y="1436" on="1"/>
        <pt x="578" y="1436" on="1"/>
        <pt x="578" y="0" on="1"/>
      </contour>
    </TTGlyph>
    <TTGlyph name="IJ" xMin="102" yMin="-20" xMax="1763" yMax="1436">
      <component glyphName="I" x="0" y="0" flags="0x1000"/>
      <component glyphName="J" x="680" y="0" flags="0x1000"/>
    </TTGlyph>
    <TTGlyph name="Iacute" xMin="102" yMin="0" xMax="734" yMax="1912">
      <component glyphName="I" x="0" y="0" flags="0x1000"/>
      <component glyphName="acute" x="70" y="315" flags="0x1000"/>
    </TTGlyph>
    <TTGlyph name="Icircumflex" xMin="-79" yMin="0" xMax="760" yMax="1890">
      <component glyphName="I" x="0" y="0" flags="0x1000"/>
      <component glyphName="circumflex" x="-18" y="315" flags="0x1000"/>
    </TTGlyph>
    <TTGlyph name="Idieresis" xMin="-59" yMin="0" xMax="739" yMax="1933">
      <contour>
        <pt x="209" y="1933" on="0"/>
        <pt x="313" y="1829" on="0"/>
        <pt x="313" y="1745" on="1"/>
        <pt x="313" y="1663" on="0"/>
        <pt x="209" y="1559" on="0"/>
        <pt x="127" y="1559" on="1"/>
        <pt x="45" y="1559" on="0"/>
        <pt x="-59" y="1663" on="0"/>
        <pt x="-59" y="1745" on="1"/>
        <pt x="-59" y="1829" on="0"/>
        <pt x="45" y="1933" on="0"/>
        <pt x="127" y="1933" on="1"/>
      </contour>
      <contour>
        <pt x="635" y="1933" on="0"/>
        <pt x="739" y="1829" on="0"/>
        <pt x="739" y="1745" on="1"/>
        <pt x="739" y="1663" on="0"/>
        <pt x="635" y="1559" on="0"/>
        <pt x="553" y="1559" on="1"/>
        <pt x="471" y="1559" on="0"/>
        <pt x="367" y="1663" on="0"/>
        <pt x="367" y="1745" on="1"/>
        <pt x="367" y="1829" on="0"/>
        <pt x="471" y="1933" on="0"/>
        <pt x="553" y="1933" on="1"/>
      </contour>
      <contour>
        <pt x="102" y="0" on="1"/>
        <pt x="102" y="1436" on="1"/>
        <pt x="578" y="1436" on="1"/>
        <pt x="578" y="0" on="1"/>
      </contour>
    </TTGlyph>
    <TTGlyph name="Idotaccent" xMin="102" yMin="0" xMax="578" yMax="1988">
      <component glyphName="I" x="0" y="0" flags="0x1000"/>
      <component glyphName="dotaccent" x="-18" y="315" flags="0x1000"/>
    </TTGlyph>
    <TTGlyph name="Igrave" xMin="-39" yMin="0" xMax="578" yMax="1912">
      <component glyphName="I" x="0" y="0" flags="0x1000"/>
      <component glyphName="grave" x="-94" y="315" flags="0x1000"/>
    </TTGlyph>
    <TTGlyph name="Imacron" xMin="33" yMin="0" xMax="648" yMax="1896">
      <component glyphName="I" x="0" y="0" flags="0x1000"/>
      <component glyphName="macron" x="-18" y="315" flags="0x1000"/>
    </TTGlyph>
    <TTGlyph name="Iogonek" xMin="102" yMin="-418" xMax="612" yMax="1436">
      <contour>
        <pt x="569" y="-340" on="0"/>
        <pt x="442" y="-418" on="0"/>
        <pt x="367" y="-418" on="1"/>
        <pt x="289" y="-418" on="0"/>
        <pt x="170" y="-334" on="0"/>
        <pt x="170" y="-238" on="1"/>
        <pt x="170" y="-134" on="0"/>
        <pt x="258" y="0" on="1"/>
        <pt x="102" y="0" on="1"/>
        <pt x="102" y="1436" on="1"/>
        <pt x="578" y="1436" on="1"/>
        <pt x="578" y="0" on="1"/>
        <pt x="473" y="0" on="1"/>
        <pt x="395" y="-117" on="0"/>
        <pt x="395" y="-162" on="1"/>
        <pt x="395" y="-193" on="0"/>
        <pt x="424" y="-193" on="1"/>
        <pt x="465" y="-193" on="0"/>
        <pt x="500" y="-131" on="1"/>
        <pt x="612" y="-262" on="1"/>
      </contour>
    </TTGlyph>
    <TTGlyph name="Itilde" xMin="-57" yMin="0" xMax="738" yMax="1947">
      <component glyphName="I" x="0" y="0" flags="0x1000"/>
      <component glyphName="tilde" x="-18" y="315" flags="0x1000"/>
    </TTGlyph>
    <TTGlyph name="J" xMin="-16" yMin="-20" xMax="1083" yMax="1436">
      <contour>
        <pt x="1083" y="246" on="0"/>
        <pt x="793" y="-20" on="0"/>
        <pt x="543" y="-20" on="1"/>
        <pt x="211" y="-20" on="0"/>
        <pt x="-16" y="229" on="1"/>
        <pt x="199" y="537" on="1"/>
        <pt x="279" y="457" on="0"/>
        <pt x="440" y="375" on="0"/>
        <pt x="498" y="375" on="1"/>
        <pt x="549" y="375" on="0"/>
        <pt x="606" y="436" on="0"/>
        <pt x="606" y="496" on="1"/>
        <pt x="606" y="1061" on="1"/>
        <pt x="119" y="1061" on="1"/>
        <pt x="119" y="1436" on="1"/>
        <pt x="1083" y="1436" on="1"/>
        <pt x="1083" y="485" on="1"/>
      </contour>
    </TTGlyph>
    <TTGlyph name="Jcircumflex" xMin="-16" yMin="-20" xMax="1083" yMax="1890">
      <component glyphName="J" x="0" y="0" flags="0x1000"/>
      <component glyphName="circumflex" x="238" y="315" flags="0x1000"/>
    </TTGlyph>
    <TTGlyph name="K" xMin="102" yMin="0" xMax="1583" yMax="1436">
      <contour>
        <pt x="717" y="494" on="1"/>
        <pt x="578" y="338" on="1"/>
        <pt x="578" y="0" on="1"/>
        <pt x="102" y="0" on="1"/>
        <pt x="102" y="1436" on="1"/>
        <pt x="578" y="1436" on="1"/>
        <pt x="578" y="938" on="1"/>
        <pt x="1006" y="1436" on="1"/>
        <pt x="1552" y="1436" on="1"/>
        <pt x="1040" y="858" on="1"/>
        <pt x="1583" y="0" on="1"/>
        <pt x="1016" y="0" on="1"/>
      </contour>
    </TTGlyph>
    <TTGlyph name="Kcommaaccent" xMin="102" yMin="-696" xMax="1583" yMax="1436">
      <component glyphName="K" x="0" y="0" flags="0x1000"/>
      <component glyphName="uni0326" x="504" y="0" flags="0x1000"/>
    </TTGlyph>
    <TTGlyph name="L" xMin="102" yMin="0" xMax="1176" yMax="1436">
      <contour>
        <pt x="1176" y="395" on="1"/>
        <pt x="1176" y="0" on="1"/>
        <pt x="102" y="0" on="1"/>
        <pt x="102" y="1436" on="1"/>
        <pt x="578" y="1436" on="1"/>
        <pt x="578" y="395" on="1"/>
      </contour>
    </TTGlyph>
    <TTGlyph name="Lacute" xMin="102" yMin="0" xMax="1176" yMax="1912">
      <component glyphName="L" x="0" y="0" flags="0x1000"/>
      <component glyphName="acute" x="55" y="315" flags="0x1000"/>
    </TTGlyph>
    <TTGlyph name="Lcaron" xMin="102" yMin="0" xMax="1176" yMax="1436">
      <component glyphName="L" x="0" y="0" flags="0x1000"/>
      <component glyphName="quoteright" x="674" y="-66" flags="0x1000"/>
    </TTGlyph>
    <TTGlyph name="Lcommaaccent" xMin="102" yMin="-696" xMax="1176" yMax="1436">
      <component glyphName="L" x="0" y="0" flags="0x1000"/>
      <component glyphName="uni0326" x="338" y="0" flags="0x1000"/>
    </TTGlyph>
    <TTGlyph name="Ldot" xMin="102" yMin="0" xMax="1176" yMax="1436">
      <component glyphName="L" x="0" y="0" flags="0x1000"/>
      <component glyphName="periodcentered" x="608" y="420" flags="0x1000"/>
    </TTGlyph>
    <TTGlyph name="Lslash" xMin="-61" yMin="0" xMax="1221" yMax="1436">
      <contour>
        <pt x="1221" y="0" on="1"/>
        <pt x="147" y="0" on="1"/>
        <pt x="147" y="606" on="1"/>
        <pt x="16" y="569" on="1"/>
        <pt x="-61" y="844" on="1"/>
        <pt x="147" y="905" on="1"/>
        <pt x="147" y="1436" on="1"/>
        <pt x="623" y="1436" on="1"/>
        <pt x="623" y="1042" on="1"/>
        <pt x="889" y="1120" on="1"/>
        <pt x="967" y="844" on="1"/>
        <pt x="623" y="743" on="1"/>
        <pt x="623" y="395" on="1"/>
        <pt x="1221" y="395" on="1"/>
      </contour>
    </TTGlyph>
    <TTGlyph name="M" xMin="102" yMin="0" xMax="1733" yMax="1436">
      <contour>
        <pt x="1319" y="0" on="1"/>
        <pt x="1319" y="786" on="1"/>
        <pt x="1073" y="139" on="1"/>
        <pt x="762" y="139" on="1"/>
        <pt x="516" y="786" on="1"/>
        <pt x="516" y="0" on="1"/>
        <pt x="102" y="0" on="1"/>
        <pt x="102" y="1436" on="1"/>
        <pt x="604" y="1436" on="1"/>
        <pt x="918" y="686" on="1"/>
        <pt x="1231" y="1436" on="1"/>
        <pt x="1733" y="1436" on="1"/>
        <pt x="1733" y="0" on="1"/>
      </contour>
    </TTGlyph>
    <TTGlyph name="N" xMin="102" yMin="0" xMax="1497" yMax="1436">
      <contour>
        <pt x="1100" y="0" on="1"/>
        <pt x="535" y="733" on="1"/>
        <pt x="535" y="0" on="1"/>
        <pt x="102" y="0" on="1"/>
        <pt x="102" y="1436" on="1"/>
        <pt x="500" y="1436" on="1"/>
        <pt x="1067" y="698" on="1"/>
        <pt x="1067" y="1436" on="1"/>
        <pt x="1497" y="1436" on="1"/>
        <pt x="1497" y="0" on="1"/>
      </contour>
    </TTGlyph>
    <TTGlyph name="Nacute" xMin="102" yMin="0" xMax="1497" yMax="1912">
      <component glyphName="N" x="0" y="0" flags="0x1000"/>
      <component glyphName="acute" x="530" y="315" flags="0x1000"/>
    </TTGlyph>
    <TTGlyph name="Ncaron" xMin="102" yMin="0" xMax="1497" yMax="1890">
      <component glyphName="N" x="0" y="0" flags="0x1000"/>
      <component glyphName="caron" x="430" y="315" flags="0x1000"/>
    </TTGlyph>
    <TTGlyph name="Ncommaaccent" xMin="102" yMin="-696" xMax="1497" yMax="1436">
      <component glyphName="N" x="0" y="0" flags="0x1000"/>
      <component glyphName="uni0326" x="541" y="0" flags="0x1000"/>
    </TTGlyph>
    <TTGlyph name="Ntilde" xMin="102" yMin="0" xMax="1497" yMax="1947">
      <component glyphName="N" x="0" y="0" flags="0x1000"/>
      <component glyphName="tilde" x="442" y="315" flags="0x1000"/>
    </TTGlyph>
    <TTGlyph name="O" xMin="31" yMin="-20" xMax="1608" yMax="1450">
      <contour>
        <pt x="1044" y="1450" on="0"/>
        <pt x="1405" y="1262" on="0"/>
        <pt x="1608" y="928" on="0"/>
        <pt x="1608" y="719" on="1"/>
        <pt x="1608" y="508" on="0"/>
        <pt x="1405" y="172" on="0"/>
        <pt x="1044" y="-20" on="0"/>
        <pt x="819" y="-20" on="1"/>
        <pt x="594" y="-20" on="0"/>
        <pt x="233" y="170" on="0"/>
        <pt x="31" y="508" on="0"/>
        <pt x="31" y="719" on="1"/>
        <pt x="31" y="930" on="0"/>
        <pt x="233" y="1262" on="0"/>
        <pt x="594" y="1450" on="0"/>
        <pt x="819" y="1450" on="1"/>
      </contour>
      <contour>
        <pt x="743" y="1055" on="0"/>
        <pt x="602" y="967" on="0"/>
        <pt x="518" y="813" on="0"/>
        <pt x="518" y="717" on="1"/>
        <pt x="518" y="621" on="0"/>
        <pt x="602" y="465" on="0"/>
        <pt x="743" y="375" on="0"/>
        <pt x="825" y="375" on="1"/>
        <pt x="907" y="375" on="0"/>
        <pt x="1042" y="465" on="0"/>
        <pt x="1120" y="621" on="0"/>
        <pt x="1120" y="717" on="1"/>
        <pt x="1120" y="813" on="0"/>
        <pt x="1042" y="967" on="0"/>
        <pt x="907" y="1055" on="0"/>
        <pt x="825" y="1055" on="1"/>
      </contour>
    </TTGlyph>
    <TTGlyph name="OE" xMin="31" yMin="0" xMax="2230" yMax="1436">
      <contour>
        <pt x="2230" y="0" on="1"/>
        <pt x="817" y="0" on="1"/>
        <pt x="594" y="0" on="0"/>
        <pt x="236" y="184" on="0"/>
        <pt x="31" y="510" on="0"/>
        <pt x="31" y="715" on="1"/>
        <pt x="31" y="920" on="0"/>
        <pt x="233" y="1249" on="0"/>
        <pt x="592" y="1436" on="0"/>
        <pt x="817" y="1436" on="1"/>
        <pt x="2212" y="1436" on="1"/>
        <pt x="2212" y="1075" on="1"/>
        <pt x="1473" y="1075" on="1"/>
        <pt x="1473" y="899" on="1"/>
        <pt x="2144" y="899" on="1"/>
        <pt x="2144" y="539" on="1"/>
        <pt x="1473" y="539" on="1"/>
        <pt x="1473" y="360" on="1"/>
        <pt x="2230" y="360" on="1"/>
      </contour>
      <contour>
        <pt x="997" y="1053" on="1"/>
        <pt x="817" y="1053" on="1"/>
        <pt x="731" y="1053" on="0"/>
        <pt x="596" y="965" on="0"/>
        <pt x="518" y="809" on="0"/>
        <pt x="518" y="713" on="1"/>
        <pt x="518" y="617" on="0"/>
        <pt x="596" y="463" on="0"/>
        <pt x="731" y="375" on="0"/>
        <pt x="817" y="375" on="1"/>
        <pt x="997" y="377" on="1"/>
      </contour>
    </TTGlyph>
    <TTGlyph name="Oacute" xMin="31" yMin="-20" xMax="1608" yMax="1912">
      <component glyphName="O" x="0" y="0" flags="0x1000"/>
      <component glyphName="acute" x="528" y="315" flags="0x1000"/>
    </TTGlyph>
    <TTGlyph name="Ocircumflex" xMin="31" yMin="-20" xMax="1608" yMax="1890">
      <component glyphName="O" x="0" y="0" flags="0x1000"/>
      <component glyphName="circumflex" x="440" y="315" flags="0x1000"/>
    </TTGlyph>
    <TTGlyph name="Odieresis" xMin="31" yMin="-20" xMax="1608" yMax="1933">
      <contour>
        <pt x="668" y="1933" on="0"/>
        <pt x="772" y="1829" on="0"/>
        <pt x="772" y="1745" on="1"/>
        <pt x="772" y="1663" on="0"/>
        <pt x="668" y="1559" on="0"/>
        <pt x="586" y="1559" on="1"/>
        <pt x="504" y="1559" on="0"/>
        <pt x="399" y="1663" on="0"/>
        <pt x="399" y="1745" on="1"/>
        <pt x="399" y="1829" on="0"/>
        <pt x="504" y="1933" on="0"/>
        <pt x="586" y="1933" on="1"/>
      </contour>
      <contour>
        <pt x="1094" y="1933" on="0"/>
        <pt x="1198" y="1829" on="0"/>
        <pt x="1198" y="1745" on="1"/>
        <pt x="1198" y="1663" on="0"/>
        <pt x="1094" y="1559" on="0"/>
        <pt x="1012" y="1559" on="1"/>
        <pt x="930" y="1559" on="0"/>
        <pt x="825" y="1663" on="0"/>
        <pt x="825" y="1745" on="1"/>
        <pt x="825" y="1829" on="0"/>
        <pt x="930" y="1933" on="0"/>
        <pt x="1012" y="1933" on="1"/>
      </contour>
      <contour>
        <pt x="1044" y="1450" on="0"/>
        <pt x="1405" y="1262" on="0"/>
        <pt x="1608" y="928" on="0"/>
        <pt x="1608" y="719" on="1"/>
        <pt x="1608" y="508" on="0"/>
        <pt x="1405" y="172" on="0"/>
        <pt x="1044" y="-20" on="0"/>
        <pt x="819" y="-20" on="1"/>
        <pt x="594" y="-20" on="0"/>
        <pt x="233" y="170" on="0"/>
        <pt x="31" y="508" on="0"/>
        <pt x="31" y="719" on="1"/>
        <pt x="31" y="930" on="0"/>
        <pt x="233" y="1262" on="0"/>
        <pt x="594" y="1450" on="0"/>
        <pt x="819" y="1450" on="1"/>
      </contour>
      <contour>
        <pt x="743" y="1055" on="0"/>
        <pt x="602" y="967" on="0"/>
        <pt x="518" y="813" on="0"/>
        <pt x="518" y="717" on="1"/>
        <pt x="518" y="621" on="0"/>
        <pt x="602" y="465" on="0"/>
        <pt x="743" y="375" on="0"/>
        <pt x="825" y="375" on="1"/>
        <pt x="907" y="375" on="0"/>
        <pt x="1042" y="465" on="0"/>
        <pt x="1120" y="621" on="0"/>
        <pt x="1120" y="717" on="1"/>
        <pt x="1120" y="813" on="0"/>
        <pt x="1042" y="967" on="0"/>
        <pt x="907" y="1055" on="0"/>
        <pt x="825" y="1055" on="1"/>
      </contour>
    </TTGlyph>
    <TTGlyph name="Ograve" xMin="31" yMin="-20" xMax="1608" yMax="1912">
      <component glyphName="O" x="0" y="0" flags="0x1000"/>
      <component glyphName="grave" x="365" y="315" flags="0x1000"/>
    </TTGlyph>
    <TTGlyph name="Ohungarumlaut" xMin="31" yMin="-20" xMax="1608" yMax="1912">
      <component glyphName="O" x="0" y="0" flags="0x1000"/>
      <component glyphName="hungarumlaut" x="512" y="315" flags="0x1000"/>
    </TTGlyph>
    <TTGlyph name="Omacron" xMin="31" yMin="-20" xMax="1608" yMax="1896">
      <component glyphName="O" x="0" y="0" flags="0x1000"/>
      <component glyphName="macron" x="440" y="315" flags="0x1000"/>
    </TTGlyph>
    <TTGlyph name="Omega" xMin="10" yMin="0" xMax="1696" yMax="1460">
      <contour>
        <pt x="1063" y="1460" on="0"/>
        <pt x="1401" y="1290" on="0"/>
        <pt x="1591" y="989" on="0"/>
        <pt x="1591" y="801" on="1"/>
        <pt x="1591" y="692" on="0"/>
        <pt x="1483" y="449" on="0"/>
        <pt x="1401" y="369" on="1"/>
        <pt x="1696" y="369" on="1"/>
        <pt x="1696" y="0" on="1"/>
        <pt x="948" y="0" on="1"/>
        <pt x="948" y="340" on="1"/>
        <pt x="1044" y="414" on="0"/>
        <pt x="1171" y="651" on="0"/>
        <pt x="1171" y="760" on="1"/>
        <pt x="1171" y="897" on="0"/>
        <pt x="991" y="1073" on="0"/>
        <pt x="852" y="1073" on="1"/>
        <pt x="715" y="1073" on="0"/>
        <pt x="535" y="897" on="0"/>
        <pt x="535" y="760" on="1"/>
        <pt x="535" y="651" on="0"/>
        <pt x="662" y="414" on="0"/>
        <pt x="758" y="340" on="1"/>
        <pt x="758" y="0" on="1"/>
        <pt x="10" y="0" on="1"/>
        <pt x="10" y="369" on="1"/>
        <pt x="307" y="369" on="1"/>
        <pt x="223" y="447" on="0"/>
        <pt x="115" y="692" on="0"/>
        <pt x="115" y="801" on="1"/>
        <pt x="115" y="989" on="0"/>
        <pt x="305" y="1290" on="0"/>
        <pt x="641" y="1460" on="0"/>
        <pt x="852" y="1460" on="1"/>
      </contour>
    </TTGlyph>
    <TTGlyph name="Oslash" xMin="31" yMin="-213" xMax="1608" yMax="1651">
      <contour>
        <pt x="1362" y="1305" on="0"/>
        <pt x="1608" y="950" on="0"/>
        <pt x="1608" y="719" on="1"/>
        <pt x="1608" y="508" on="0"/>
        <pt x="1405" y="172" on="0"/>
        <pt x="1044" y="-20" on="0"/>
        <pt x="819" y="-20" on="1"/>
        <pt x="741" y="-20" on="0"/>
        <pt x="649" y="-6" on="1"/>
        <pt x="573" y="-213" on="1"/>
        <pt x="313" y="-213" on="1"/>
        <pt x="418" y="74" on="1"/>
        <pt x="238" y="168" on="0"/>
        <pt x="31" y="506" on="0"/>
        <pt x="31" y="719" on="1"/>
        <pt x="31" y="930" on="0"/>
        <pt x="233" y="1262" on="0"/>
        <pt x="594" y="1450" on="0"/>
        <pt x="819" y="1450" on="1"/>
        <pt x="852" y="1450" on="0"/>
        <pt x="913" y="1446" on="1"/>
        <pt x="987" y="1651" on="1"/>
        <pt x="1247" y="1651" on="1"/>
        <pt x="1153" y="1389" on="1"/>
      </contour>
      <contour>
        <pt x="519" y="606" on="0"/>
        <pt x="578" y="516" on="1"/>
        <pt x="770" y="1049" on="1"/>
        <pt x="661" y="1029" on="0"/>
        <pt x="518" y="846" on="0"/>
        <pt x="518" y="717" on="1"/>
      </contour>
      <contour>
        <pt x="907" y="375" on="0"/>
        <pt x="1042" y="465" on="0"/>
        <pt x="1120" y="621" on="0"/>
        <pt x="1120" y="717" on="1"/>
        <pt x="1120" y="801" on="0"/>
        <pt x="1059" y="940" on="0"/>
        <pt x="1006" y="987" on="1"/>
        <pt x="786" y="377" on="1"/>
        <pt x="798" y="375" on="0"/>
        <pt x="825" y="375" on="1"/>
      </contour>
    </TTGlyph>
    <TTGlyph name="Otilde" xMin="31" yMin="-20" xMax="1608" yMax="1947">
      <component glyphName="O" x="0" y="0" flags="0x1000"/>
      <component glyphName="tilde" x="440" y="315" flags="0x1000"/>
    </TTGlyph>
    <TTGlyph name="P" xMin="102" yMin="0" xMax="1364" yMax="1436">
      <contour>
        <pt x="1057" y="1436" on="0"/>
        <pt x="1364" y="1167" on="0"/>
        <pt x="1364" y="922" on="1"/>
        <pt x="1364" y="662" on="0"/>
        <pt x="1057" y="373" on="0"/>
        <pt x="776" y="373" on="1"/>
        <pt x="578" y="373" on="1"/>
        <pt x="578" y="0" on="1"/>
        <pt x="102" y="0" on="1"/>
        <pt x="102" y="1436" on="1"/>
        <pt x="776" y="1436" on="1"/>
      </contour>
      <contour>
        <pt x="578" y="733" on="1"/>
        <pt x="752" y="733" on="1"/>
        <pt x="830" y="733" on="0"/>
        <pt x="913" y="825" on="0"/>
        <pt x="913" y="907" on="1"/>
        <pt x="913" y="987" on="0"/>
        <pt x="829" y="1075" on="0"/>
        <pt x="752" y="1075" on="1"/>
        <pt x="578" y="1075" on="1"/>
      </contour>
    </TTGlyph>
    <TTGlyph name="Q" xMin="31" yMin="-362" xMax="1669" yMax="1450">
      <contour>
        <pt x="1587" y="-274" on="0"/>
        <pt x="1343" y="-362" on="0"/>
        <pt x="1231" y="-362" on="1"/>
        <pt x="1069" y="-362" on="0"/>
        <pt x="819" y="-176" on="0"/>
        <pt x="762" y="-18" on="1"/>
        <pt x="551" y="-6" on="0"/>
        <pt x="217" y="190" on="0"/>
        <pt x="31" y="516" on="0"/>
        <pt x="31" y="719" on="1"/>
        <pt x="31" y="930" on="0"/>
        <pt x="233" y="1262" on="0"/>
        <pt x="594" y="1450" on="0"/>
        <pt x="819" y="1450" on="1"/>
        <pt x="1044" y="1450" on="0"/>
        <pt x="1405" y="1262" on="0"/>
        <pt x="1608" y="928" on="0"/>
        <pt x="1608" y="719" on="1"/>
        <pt x="1608" y="490" on="0"/>
        <pt x="1368" y="133" on="0"/>
        <pt x="1163" y="47" on="1"/>
        <pt x="1214" y="-21" on="0"/>
        <pt x="1282" y="-20" on="1"/>
        <pt x="1325" y="-20" on="0"/>
        <pt x="1450" y="33" on="0"/>
        <pt x="1511" y="78" on="1"/>
        <pt x="1669" y="-203" on="1"/>
      </contour>
      <contour>
        <pt x="518" y="621" on="0"/>
        <pt x="602" y="465" on="0"/>
        <pt x="743" y="375" on="0"/>
        <pt x="825" y="375" on="1"/>
        <pt x="907" y="375" on="0"/>
        <pt x="1042" y="465" on="0"/>
        <pt x="1120" y="621" on="0"/>
        <pt x="1120" y="717" on="1"/>
        <pt x="1120" y="813" on="0"/>
        <pt x="1042" y="967" on="0"/>
        <pt x="907" y="1055" on="0"/>
        <pt x="825" y="1055" on="1"/>
        <pt x="743" y="1055" on="0"/>
        <pt x="602" y="967" on="0"/>
        <pt x="518" y="813" on="0"/>
        <pt x="518" y="717" on="1"/>
      </contour>
    </TTGlyph>
    <TTGlyph name="R" xMin="102" yMin="0" xMax="1464" yMax="1436">
      <contour>
        <pt x="756" y="373" on="1"/>
        <pt x="578" y="373" on="1"/>
        <pt x="578" y="0" on="1"/>
        <pt x="102" y="0" on="1"/>
        <pt x="102" y="1436" on="1"/>
        <pt x="797" y="1436" on="1"/>
        <pt x="1090" y="1436" on="0"/>
        <pt x="1409" y="1167" on="0"/>
        <pt x="1409" y="922" on="1"/>
        <pt x="1409" y="766" on="0"/>
        <pt x="1292" y="535" on="0"/>
        <pt x="1182" y="467" on="1"/>
        <pt x="1464" y="0" on="1"/>
        <pt x="928" y="0" on="1"/>
      </contour>
      <contour>
        <pt x="797" y="733" on="1"/>
        <pt x="875" y="733" on="0"/>
        <pt x="958" y="825" on="0"/>
        <pt x="958" y="907" on="1"/>
        <pt x="958" y="987" on="0"/>
        <pt x="874" y="1075" on="0"/>
        <pt x="797" y="1075" on="1"/>
        <pt x="578" y="1075" on="1"/>
        <pt x="578" y="733" on="1"/>
      </contour>
    </TTGlyph>
    <TTGlyph name="Racute" xMin="102" yMin="0" xMax="1464" yMax="1912">
      <component glyphName="R" x="0" y="0" flags="0x1000"/>
      <component glyphName="acute" x="492" y="315" flags="0x1000"/>
    </TTGlyph>
    <TTGlyph name="Rcaron" xMin="102" yMin="0" xMax="1464" yMax="1890">
      <component glyphName="R" x="0" y="0" flags="0x1000"/>
      <component glyphName="caron" x="391" y="315" flags="0x1000"/>
    </TTGlyph>
    <TTGlyph name="Rcommaaccent" xMin="102" yMin="-696" xMax="1464" yMax="1436">
      <component glyphName="R" x="0" y="0" flags="0x1000"/>
      <component glyphName="uni0326" x="475" y="0" flags="0x1000"/>
    </TTGlyph>
    <TTGlyph name="S" xMin="16" yMin="-14" xMax="1350" yMax="1456">
      <contour>
        <pt x="893" y="1456" on="0"/>
        <pt x="1227" y="1364" on="0"/>
        <pt x="1350" y="1286" on="1"/>
        <pt x="1178" y="926" on="1"/>
        <pt x="1057" y="992" on="0"/>
        <pt x="772" y="1094" on="0"/>
        <pt x="684" y="1094" on="1"/>
        <pt x="596" y="1094" on="0"/>
        <pt x="596" y="1034" on="1"/>
        <pt x="596" y="989" on="0"/>
        <pt x="707" y="938" on="0"/>
        <pt x="827" y="907" on="1"/>
        <pt x="983" y="866" on="0"/>
        <pt x="1186" y="780" on="0"/>
        <pt x="1339" y="598" on="0"/>
        <pt x="1339" y="446" on="1"/>
        <pt x="1339" y="292" on="0"/>
        <pt x="1178" y="86" on="0"/>
        <pt x="903" y="-14" on="0"/>
        <pt x="735" y="-14" on="1"/>
        <pt x="545" y="-14" on="0"/>
        <pt x="158" y="106" on="0"/>
        <pt x="16" y="215" on="1"/>
        <pt x="193" y="571" on="1"/>
        <pt x="302" y="481" on="0"/>
        <pt x="629" y="348" on="0"/>
        <pt x="739" y="348" on="1"/>
        <pt x="854" y="348" on="0"/>
        <pt x="854" y="422" on="1"/>
        <pt x="854" y="469" on="0"/>
        <pt x="741" y="520" on="0"/>
        <pt x="616" y="551" on="1"/>
        <pt x="464" y="588" on="0"/>
        <pt x="260" y="670" on="0"/>
        <pt x="111" y="844" on="0"/>
        <pt x="111" y="989" on="1"/>
        <pt x="111" y="1130" on="0"/>
        <pt x="262" y="1341" on="0"/>
        <pt x="541" y="1456" on="0"/>
        <pt x="725" y="1456" on="1"/>
      </contour>
    </TTGlyph>
    <TTGlyph name="Sacute" xMin="16" yMin="-14" xMax="1350" yMax="1912">
      <component glyphName="S" x="0" y="0" flags="0x1000"/>
      <component glyphName="acute" x="465" y="315" flags="0x1000"/>
    </TTGlyph>
    <TTGlyph name="Scaron" xMin="16" yMin="-14" xMax="1350" yMax="1890">
      <component glyphName="S" x="0" y="0" flags="0x1000"/>
      <component glyphName="caron" x="365" y="315" flags="0x1000"/>
    </TTGlyph>
    <TTGlyph name="Scedilla" xMin="16" yMin="-506" xMax="1350" yMax="1456">
      <contour>
        <pt x="596" y="989" on="0"/>
        <pt x="707" y="938" on="0"/>
        <pt x="827" y="907" on="1"/>
        <pt x="983" y="866" on="0"/>
        <pt x="1186" y="780" on="0"/>
        <pt x="1339" y="598" on="0"/>
        <pt x="1339" y="446" on="1"/>
        <pt x="1339" y="251" on="0"/>
        <pt x="1081" y="23" on="0"/>
        <pt x="872" y="-6" on="1"/>
        <pt x="819" y="-104" on="1"/>
        <pt x="880" y="-124" on="0"/>
        <pt x="954" y="-219" on="0"/>
        <pt x="954" y="-274" on="1"/>
        <pt x="954" y="-380" on="0"/>
        <pt x="799" y="-506" on="0"/>
        <pt x="666" y="-506" on="1"/>
        <pt x="619" y="-506" on="0"/>
        <pt x="506" y="-469" on="0"/>
        <pt x="459" y="-436" on="1"/>
        <pt x="541" y="-252" on="1"/>
        <pt x="557" y="-270" on="0"/>
        <pt x="602" y="-293" on="0"/>
        <pt x="625" y="-293" on="1"/>
        <pt x="660" y="-293" on="0"/>
        <pt x="702" y="-256" on="0"/>
        <pt x="702" y="-225" on="1"/>
        <pt x="702" y="-192" on="0"/>
        <pt x="655" y="-156" on="0"/>
        <pt x="614" y="-156" on="1"/>
        <pt x="583" y="-156" on="0"/>
        <pt x="539" y="-166" on="1"/>
        <pt x="621" y="-8" on="1"/>
        <pt x="455" y="8" on="0"/>
        <pt x="135" y="125" on="0"/>
        <pt x="16" y="215" on="1"/>
        <pt x="193" y="571" on="1"/>
        <pt x="302" y="481" on="0"/>
        <pt x="629" y="348" on="0"/>
        <pt x="739" y="348" on="1"/>
        <pt x="854" y="348" on="0"/>
        <pt x="854" y="422" on="1"/>
        <pt x="854" y="469" on="0"/>
        <pt x="741" y="520" on="0"/>
        <pt x="616" y="551" on="1"/>
        <pt x="464" y="588" on="0"/>
        <pt x="260" y="670" on="0"/>
        <pt x="111" y="844" on="0"/>
        <pt x="111" y="989" on="1"/>
        <pt x="111" y="1130" on="0"/>
        <pt x="262" y="1341" on="0"/>
        <pt x="541" y="1456" on="0"/>
        <pt x="725" y="1456" on="1"/>
        <pt x="893" y="1456" on="0"/>
        <pt x="1227" y="1364" on="0"/>
        <pt x="1350" y="1286" on="1"/>
        <pt x="1178" y="926" on="1"/>
        <pt x="1057" y="992" on="0"/>
        <pt x="772" y="1094" on="0"/>
        <pt x="684" y="1094" on="1"/>
        <pt x="596" y="1094" on="0"/>
        <pt x="596" y="1034" on="1"/>
      </contour>
    </TTGlyph>
    <TTGlyph name="Scommaaccent" xMin="16" yMin="-696" xMax="1350" yMax="1456">
      <component glyphName="S" x="0" y="0" flags="0x1000"/>
      <component glyphName="uni0326" x="446" y="0" flags="0x1000"/>
    </TTGlyph>
    <TTGlyph name="T" xMin="10" yMin="0" xMax="1303" yMax="1436">
      <contour>
        <pt x="893" y="1061" on="1"/>
        <pt x="893" y="0" on="1"/>
        <pt x="418" y="0" on="1"/>
        <pt x="418" y="1061" on="1"/>
        <pt x="10" y="1061" on="1"/>
        <pt x="10" y="1436" on="1"/>
        <pt x="1303" y="1436" on="1"/>
        <pt x="1303" y="1061" on="1"/>
      </contour>
    </TTGlyph>
    <TTGlyph name="Tcaron" xMin="10" yMin="0" xMax="1303" yMax="1890">
      <component glyphName="T" x="0" y="0" flags="0x1000"/>
      <component glyphName="caron" x="319" y="315" flags="0x1000"/>
    </TTGlyph>
    <TTGlyph name="Tcedilla" xMin="10" yMin="-506" xMax="1303" yMax="1436">
      <contour>
        <pt x="1303" y="1061" on="1"/>
        <pt x="893" y="1061" on="1"/>
        <pt x="893" y="0" on="1"/>
        <pt x="801" y="0" on="1"/>
        <pt x="745" y="-104" on="1"/>
        <pt x="806" y="-124" on="0"/>
        <pt x="881" y="-219" on="0"/>
        <pt x="881" y="-274" on="1"/>
        <pt x="881" y="-380" on="0"/>
        <pt x="725" y="-506" on="0"/>
        <pt x="592" y="-506" on="1"/>
        <pt x="545" y="-506" on="0"/>
        <pt x="432" y="-469" on="0"/>
        <pt x="385" y="-436" on="1"/>
        <pt x="467" y="-252" on="1"/>
        <pt x="483" y="-270" on="0"/>
        <pt x="528" y="-293" on="0"/>
        <pt x="551" y="-293" on="1"/>
        <pt x="586" y="-293" on="0"/>
        <pt x="629" y="-256" on="0"/>
        <pt x="629" y="-225" on="1"/>
        <pt x="629" y="-192" on="0"/>
        <pt x="582" y="-156" on="0"/>
        <pt x="541" y="-156" on="1"/>
        <pt x="510" y="-156" on="0"/>
        <pt x="465" y="-166" on="1"/>
        <pt x="551" y="0" on="1"/>
        <pt x="418" y="0" on="1"/>
        <pt x="418" y="1061" on="1"/>
        <pt x="10" y="1061" on="1"/>
        <pt x="10" y="1436" on="1"/>
        <pt x="1303" y="1436" on="1"/>
      </contour>
    </TTGlyph>
    <TTGlyph name="Thorn" xMin="102" yMin="0" xMax="1389" yMax="1436">
      <contour>
        <pt x="965" y="1260" on="0"/>
        <pt x="1239" y="1135" on="0"/>
        <pt x="1389" y="905" on="0"/>
        <pt x="1389" y="752" on="1"/>
        <pt x="1389" y="588" on="0"/>
        <pt x="1239" y="342" on="0"/>
        <pt x="965" y="209" on="0"/>
        <pt x="782" y="209" on="1"/>
        <pt x="578" y="209" on="1"/>
        <pt x="578" y="0" on="1"/>
        <pt x="102" y="0" on="1"/>
        <pt x="102" y="1436" on="1"/>
        <pt x="578" y="1436" on="1"/>
        <pt x="578" y="1260" on="1"/>
        <pt x="782" y="1260" on="1"/>
      </contour>
      <contour>
        <pt x="825" y="569" on="0"/>
        <pt x="901" y="662" on="0"/>
        <pt x="901" y="737" on="1"/>
        <pt x="901" y="811" on="0"/>
        <pt x="825" y="899" on="0"/>
        <pt x="762" y="899" on="1"/>
        <pt x="578" y="899" on="1"/>
        <pt x="578" y="569" on="1"/>
        <pt x="762" y="569" on="1"/>
      </contour>
    </TTGlyph>
    <TTGlyph name="U" xMin="82" yMin="-20" xMax="1460" yMax="1436">
      <contour>
        <pt x="1460" y="420" on="0"/>
        <pt x="1292" y="135" on="0"/>
        <pt x="983" y="-20" on="0"/>
        <pt x="776" y="-20" on="1"/>
        <pt x="569" y="-20" on="0"/>
        <pt x="254" y="135" on="0"/>
        <pt x="82" y="420" on="0"/>
        <pt x="82" y="608" on="1"/>
        <pt x="82" y="1436" on="1"/>
        <pt x="557" y="1436" on="1"/>
        <pt x="557" y="608" on="1"/>
        <pt x="557" y="506" on="0"/>
        <pt x="686" y="375" on="0"/>
        <pt x="778" y="375" on="1"/>
        <pt x="868" y="375" on="0"/>
        <pt x="985" y="502" on="0"/>
        <pt x="985" y="608" on="1"/>
        <pt x="985" y="1436" on="1"/>
        <pt x="1460" y="1436" on="1"/>
        <pt x="1460" y="608" on="1"/>
      </contour>
    </TTGlyph>
    <TTGlyph name="Uacute" xMin="82" yMin="-20" xMax="1460" yMax="1912">
      <component glyphName="U" x="0" y="0" flags="0x1000"/>
      <component glyphName="acute" x="502" y="315" flags="0x1000"/>
    </TTGlyph>
    <TTGlyph name="Ucircumflex" xMin="82" yMin="-20" xMax="1460" yMax="1890">
      <component glyphName="U" x="0" y="0" flags="0x1000"/>
      <component glyphName="circumflex" x="414" y="315" flags="0x1000"/>
    </TTGlyph>
    <TTGlyph name="Udieresis" xMin="82" yMin="-20" xMax="1460" yMax="1933">
      <contour>
        <pt x="641" y="1933" on="0"/>
        <pt x="745" y="1829" on="0"/>
        <pt x="745" y="1745" on="1"/>
        <pt x="745" y="1663" on="0"/>
        <pt x="641" y="1559" on="0"/>
        <pt x="559" y="1559" on="1"/>
        <pt x="477" y="1559" on="0"/>
        <pt x="373" y="1663" on="0"/>
        <pt x="373" y="1745" on="1"/>
        <pt x="373" y="1829" on="0"/>
        <pt x="477" y="1933" on="0"/>
        <pt x="559" y="1933" on="1"/>
      </contour>
      <contour>
        <pt x="1067" y="1933" on="0"/>
        <pt x="1171" y="1829" on="0"/>
        <pt x="1171" y="1745" on="1"/>
        <pt x="1171" y="1663" on="0"/>
        <pt x="1067" y="1559" on="0"/>
        <pt x="985" y="1559" on="1"/>
        <pt x="903" y="1559" on="0"/>
        <pt x="799" y="1663" on="0"/>
        <pt x="799" y="1745" on="1"/>
        <pt x="799" y="1829" on="0"/>
        <pt x="903" y="1933" on="0"/>
        <pt x="985" y="1933" on="1"/>
      </contour>
      <contour>
        <pt x="1460" y="420" on="0"/>
        <pt x="1292" y="135" on="0"/>
        <pt x="983" y="-20" on="0"/>
        <pt x="776" y="-20" on="1"/>
        <pt x="569" y="-20" on="0"/>
        <pt x="254" y="135" on="0"/>
        <pt x="82" y="420" on="0"/>
        <pt x="82" y="608" on="1"/>
        <pt x="82" y="1436" on="1"/>
        <pt x="557" y="1436" on="1"/>
        <pt x="557" y="608" on="1"/>
        <pt x="557" y="506" on="0"/>
        <pt x="686" y="375" on="0"/>
        <pt x="778" y="375" on="1"/>
        <pt x="868" y="375" on="0"/>
        <pt x="985" y="502" on="0"/>
        <pt x="985" y="608" on="1"/>
        <pt x="985" y="1436" on="1"/>
        <pt x="1460" y="1436" on="1"/>
        <pt x="1460" y="608" on="1"/>
      </contour>
    </TTGlyph>
    <TTGlyph name="Ugrave" xMin="82" yMin="-20" xMax="1460" yMax="1912">
      <component glyphName="U" x="0" y="0" flags="0x1000"/>
      <component glyphName="grave" x="338" y="315" flags="0x1000"/>
    </TTGlyph>
    <TTGlyph name="Uhungarumlaut" xMin="82" yMin="-20" xMax="1460" yMax="1912">
      <component glyphName="U" x="0" y="0" flags="0x1000"/>
      <component glyphName="hungarumlaut" x="485" y="315" flags="0x1000"/>
    </TTGlyph>
    <TTGlyph name="Umacron" xMin="82" yMin="-20" xMax="1460" yMax="1896">
      <component glyphName="U" x="0" y="0" flags="0x1000"/>
      <component glyphName="macron" x="414" y="315" flags="0x1000"/>
    </TTGlyph>
    <TTGlyph name="Uogonek" xMin="82" yMin="-418" xMax="1460" yMax="1436">
      <contour>
        <pt x="1460" y="608" on="1"/>
        <pt x="1460" y="399" on="0"/>
        <pt x="1255" y="98" on="0"/>
        <pt x="1073" y="29" on="1"/>
        <pt x="975" y="-112" on="0"/>
        <pt x="975" y="-162" on="1"/>
        <pt x="975" y="-193" on="0"/>
        <pt x="1004" y="-193" on="1"/>
        <pt x="1045" y="-193" on="0"/>
        <pt x="1079" y="-131" on="1"/>
        <pt x="1192" y="-262" on="1"/>
        <pt x="1149" y="-340" on="0"/>
        <pt x="1022" y="-418" on="0"/>
        <pt x="946" y="-418" on="1"/>
        <pt x="868" y="-418" on="0"/>
        <pt x="750" y="-334" on="0"/>
        <pt x="750" y="-238" on="1"/>
        <pt x="750" y="-142" on="0"/>
        <pt x="825" y="-18" on="1"/>
        <pt x="776" y="-20" on="1"/>
        <pt x="569" y="-20" on="0"/>
        <pt x="254" y="135" on="0"/>
        <pt x="82" y="420" on="0"/>
        <pt x="82" y="608" on="1"/>
        <pt x="82" y="1436" on="1"/>
        <pt x="557" y="1436" on="1"/>
        <pt x="557" y="608" on="1"/>
        <pt x="557" y="506" on="0"/>
        <pt x="686" y="375" on="0"/>
        <pt x="778" y="375" on="1"/>
        <pt x="868" y="375" on="0"/>
        <pt x="985" y="502" on="0"/>
        <pt x="985" y="608" on="1"/>
        <pt x="985" y="1436" on="1"/>
        <pt x="1460" y="1436" on="1"/>
      </contour>
    </TTGlyph>
    <TTGlyph name="Uring" xMin="82" yMin="-20" xMax="1460" yMax="2009">
      <component glyphName="U" x="0" y="0" flags="0x1000"/>
      <component glyphName="ring" x="414" y="315" flags="0x1000"/>
    </TTGlyph>
    <TTGlyph name="V" xMin="-10" yMin="0" xMax="1575" yMax="1436">
      <contour>
        <pt x="535" y="0" on="1"/>
        <pt x="-10" y="1436" on="1"/>
        <pt x="498" y="1436" on="1"/>
        <pt x="795" y="494" on="1"/>
        <pt x="1090" y="1436" on="1"/>
        <pt x="1575" y="1436" on="1"/>
        <pt x="1026" y="0" on="1"/>
      </contour>
    </TTGlyph>
    <TTGlyph name="W" xMin="-10" yMin="0" xMax="2306" yMax="1436">
      <contour>
        <pt x="1348" y="0" on="1"/>
        <pt x="1149" y="858" on="1"/>
        <pt x="944" y="0" on="1"/>
        <pt x="455" y="0" on="1"/>
        <pt x="-10" y="1436" on="1"/>
        <pt x="498" y="1436" on="1"/>
        <pt x="715" y="494" on="1"/>
        <pt x="928" y="1434" on="1"/>
        <pt x="1391" y="1436" on="1"/>
        <pt x="1608" y="494" on="1"/>
        <pt x="1821" y="1436" on="1"/>
        <pt x="2306" y="1436" on="1"/>
        <pt x="1837" y="0" on="1"/>
      </contour>
    </TTGlyph>
    <TTGlyph name="Wacute" xMin="-10" yMin="0" xMax="2306" yMax="1912">
      <component glyphName="W" x="0" y="0" flags="0x1000"/>
      <component glyphName="acute" x="766" y="315" flags="0x1000"/>
    </TTGlyph>
    <TTGlyph name="Wcircumflex" xMin="-10" yMin="0" xMax="2306" yMax="1890">
      <component glyphName="W" x="0" y="0" flags="0x1000"/>
      <component glyphName="circumflex" x="678" y="315" flags="0x1000"/>
    </TTGlyph>
    <TTGlyph name="Wdieresis" xMin="-10" yMin="0" xMax="2306" yMax="1933">
      <contour>
        <pt x="905" y="1933" on="0"/>
        <pt x="1010" y="1829" on="0"/>
        <pt x="1010" y="1745" on="1"/>
        <pt x="1010" y="1663" on="0"/>
        <pt x="905" y="1559" on="0"/>
        <pt x="823" y="1559" on="1"/>
        <pt x="741" y="1559" on="0"/>
        <pt x="637" y="1663" on="0"/>
        <pt x="637" y="1745" on="1"/>
        <pt x="637" y="1829" on="0"/>
        <pt x="741" y="1933" on="0"/>
        <pt x="823" y="1933" on="1"/>
      </contour>
      <contour>
        <pt x="1331" y="1933" on="0"/>
        <pt x="1436" y="1829" on="0"/>
        <pt x="1436" y="1745" on="1"/>
        <pt x="1436" y="1663" on="0"/>
        <pt x="1331" y="1559" on="0"/>
        <pt x="1249" y="1559" on="1"/>
        <pt x="1167" y="1559" on="0"/>
        <pt x="1063" y="1663" on="0"/>
        <pt x="1063" y="1745" on="1"/>
        <pt x="1063" y="1829" on="0"/>
        <pt x="1167" y="1933" on="0"/>
        <pt x="1249" y="1933" on="1"/>
      </contour>
      <contour>
        <pt x="1348" y="0" on="1"/>
        <pt x="1149" y="858" on="1"/>
        <pt x="944" y="0" on="1"/>
        <pt x="455" y="0" on="1"/>
        <pt x="-10" y="1436" on="1"/>
        <pt x="498" y="1436" on="1"/>
        <pt x="715" y="494" on="1"/>
        <pt x="928" y="1434" on="1"/>
        <pt x="1391" y="1436" on="1"/>
        <pt x="1608" y="494" on="1"/>
        <pt x="1821" y="1436" on="1"/>
        <pt x="2306" y="1436" on="1"/>
        <pt x="1837" y="0" on="1"/>
      </contour>
    </TTGlyph>
    <TTGlyph name="Wgrave" xMin="-10" yMin="0" xMax="2306" yMax="1912">
      <component glyphName="W" x="0" y="0" flags="0x1000"/>
      <component glyphName="grave" x="602" y="315" flags="0x1000"/>
    </TTGlyph>
    <TTGlyph name="X" xMin="-10" yMin="0" xMax="1593" yMax="1436">
      <contour>
        <pt x="1593" y="0" on="1"/>
        <pt x="1024" y="0" on="1"/>
        <pt x="782" y="371" on="1"/>
        <pt x="545" y="0" on="1"/>
        <pt x="-10" y="0" on="1"/>
        <pt x="494" y="729" on="1"/>
        <pt x="20" y="1436" on="1"/>
        <pt x="573" y="1436" on="1"/>
        <pt x="782" y="1098" on="1"/>
        <pt x="991" y="1436" on="1"/>
        <pt x="1550" y="1436" on="1"/>
        <pt x="1085" y="752" on="1"/>
      </contour>
    </TTGlyph>
    <TTGlyph name="Y" xMin="-20" yMin="0" xMax="1493" yMax="1436">
      <contour>
        <pt x="979" y="0" on="1"/>
        <pt x="504" y="0" on="1"/>
        <pt x="504" y="436" on="1"/>
        <pt x="-20" y="1436" on="1"/>
        <pt x="453" y="1436" on="1"/>
        <pt x="741" y="883" on="1"/>
        <pt x="1020" y="1436" on="1"/>
        <pt x="1493" y="1436" on="1"/>
        <pt x="979" y="446" on="1"/>
      </contour>
    </TTGlyph>
    <TTGlyph name="Yacute" xMin="-20" yMin="0" xMax="1493" yMax="1912">
      <component glyphName="Y" x="0" y="0" flags="0x1000"/>
      <component glyphName="acute" x="467" y="315" flags="0x1000"/>
    </TTGlyph>
    <TTGlyph name="Ycircumflex" xMin="-20" yMin="0" xMax="1493" yMax="1890">
      <component glyphName="Y" x="0" y="0" flags="0x1000"/>
      <component glyphName="circumflex" x="379" y="315" flags="0x1000"/>
    </TTGlyph>
    <TTGlyph name="Ydieresis" xMin="-20" yMin="0" xMax="1493" yMax="1933">
      <contour>
        <pt x="442" y="1559" on="0"/>
        <pt x="338" y="1663" on="0"/>
        <pt x="338" y="1745" on="1"/>
        <pt x="338" y="1829" on="0"/>
        <pt x="442" y="1933" on="0"/>
        <pt x="524" y="1933" on="1"/>
        <pt x="606" y="1933" on="0"/>
        <pt x="711" y="1829" on="0"/>
        <pt x="711" y="1745" on="1"/>
        <pt x="711" y="1663" on="0"/>
        <pt x="606" y="1559" on="0"/>
        <pt x="524" y="1559" on="1"/>
      </contour>
      <contour>
        <pt x="868" y="1559" on="0"/>
        <pt x="764" y="1663" on="0"/>
        <pt x="764" y="1745" on="1"/>
        <pt x="764" y="1829" on="0"/>
        <pt x="868" y="1933" on="0"/>
        <pt x="950" y="1933" on="1"/>
        <pt x="1032" y="1933" on="0"/>
        <pt x="1137" y="1829" on="0"/>
        <pt x="1137" y="1745" on="1"/>
        <pt x="1137" y="1663" on="0"/>
        <pt x="1032" y="1559" on="0"/>
        <pt x="950" y="1559" on="1"/>
      </contour>
      <contour>
        <pt x="979" y="0" on="1"/>
        <pt x="504" y="0" on="1"/>
        <pt x="504" y="436" on="1"/>
        <pt x="-20" y="1436" on="1"/>
        <pt x="453" y="1436" on="1"/>
        <pt x="741" y="883" on="1"/>
        <pt x="1020" y="1436" on="1"/>
        <pt x="1493" y="1436" on="1"/>
        <pt x="979" y="446" on="1"/>
      </contour>
    </TTGlyph>
    <TTGlyph name="Ygrave" xMin="-20" yMin="0" xMax="1493" yMax="1912">
      <component glyphName="Y" x="0" y="0" flags="0x1000"/>
      <component glyphName="grave" x="303" y="315" flags="0x1000"/>
    </TTGlyph>
    <TTGlyph name="Z" xMin="41" yMin="0" xMax="1358" yMax="1436">
      <contour>
        <pt x="674" y="365" on="1"/>
        <pt x="1358" y="365" on="1"/>
        <pt x="1358" y="0" on="1"/>
        <pt x="41" y="0" on="1"/>
        <pt x="41" y="297" on="1"/>
        <pt x="711" y="1071" on="1"/>
        <pt x="66" y="1071" on="1"/>
        <pt x="66" y="1436" on="1"/>
        <pt x="1343" y="1436" on="1"/>
        <pt x="1343" y="1139" on="1"/>
      </contour>
    </TTGlyph>
    <TTGlyph name="Zacute" xMin="41" yMin="0" xMax="1358" yMax="1912">
      <component glyphName="Z" x="0" y="0" flags="0x1000"/>
      <component glyphName="acute" x="471" y="315" flags="0x1000"/>
    </TTGlyph>
    <TTGlyph name="Zcaron" xMin="41" yMin="0" xMax="1358" yMax="1890">
      <component glyphName="Z" x="0" y="0" flags="0x1000"/>
      <component glyphName="caron" x="371" y="315" flags="0x1000"/>
    </TTGlyph>
    <TTGlyph name="Zdotaccent" xMin="41" yMin="0" xMax="1358" yMax="1988">
      <component glyphName="Z" x="0" y="0" flags="0x1000"/>
      <component glyphName="dotaccent" x="383" y="315" flags="0x1000"/>
    </TTGlyph>
    <TTGlyph name="a" xMin="31" yMin="-20" xMax="1174" yMax="1141">
      <contour>
        <pt x="901" y="1141" on="0"/>
        <pt x="1174" y="922" on="0"/>
        <pt x="1174" y="725" on="1"/>
        <pt x="1174" y="0" on="1"/>
        <pt x="721" y="0" on="1"/>
        <pt x="721" y="121" on="1"/>
        <pt x="619" y="-20" on="0"/>
        <pt x="406" y="-20" on="1"/>
        <pt x="230" y="-20" on="0"/>
        <pt x="31" y="170" on="0"/>
        <pt x="31" y="332" on="1"/>
        <pt x="31" y="498" on="0"/>
        <pt x="252" y="670" on="0"/>
        <pt x="465" y="674" on="1"/>
        <pt x="721" y="674" on="1"/>
        <pt x="719" y="733" on="0"/>
        <pt x="631" y="797" on="0"/>
        <pt x="547" y="797" on="1"/>
        <pt x="481" y="797" on="0"/>
        <pt x="299" y="760" on="0"/>
        <pt x="207" y="725" on="1"/>
        <pt x="104" y="1032" on="1"/>
        <pt x="247" y="1085" on="0"/>
        <pt x="532" y="1141" on="0"/>
        <pt x="657" y="1141" on="1"/>
      </contour>
      <contour>
        <pt x="610" y="272" on="0"/>
        <pt x="694" y="317" on="0"/>
        <pt x="721" y="358" on="1"/>
        <pt x="721" y="461" on="1"/>
        <pt x="561" y="461" on="1"/>
        <pt x="463" y="461" on="0"/>
        <pt x="463" y="371" on="1"/>
        <pt x="463" y="324" on="0"/>
        <pt x="516" y="272" on="0"/>
        <pt x="565" y="272" on="1"/>
      </contour>
    </TTGlyph>
    <TTGlyph name="aacute" xMin="31" yMin="-20" xMax="1174" yMax="1597">
      <component glyphName="a" x="0" y="0" flags="0x1000"/>
      <component glyphName="acute" x="360" y="0" flags="0x1000"/>
    </TTGlyph>
    <TTGlyph name="abreve" xMin="31" yMin="-20" xMax="1174" yMax="1575">
      <component glyphName="a" x="0" y="0" flags="0x1000"/>
      <component glyphName="breve" x="272" y="0" flags="0x1000"/>
    </TTGlyph>
    <TTGlyph name="acircumflex" xMin="31" yMin="-20" xMax="1174" yMax="1575">
      <component glyphName="a" x="0" y="0" flags="0x1000"/>
      <component glyphName="circumflex" x="272" y="0" flags="0x1000"/>
    </TTGlyph>
    <TTGlyph name="acute" xMin="55" yMin="1210" xMax="664" yMax="1597">
      <contour>
        <pt x="383" y="1210" on="1"/>
        <pt x="55" y="1210" on="1"/>
        <pt x="274" y="1597" on="1"/>
        <pt x="664" y="1475" on="1"/>
      </contour>
    </TTGlyph>
    <TTGlyph name="adieresis" xMin="31" yMin="-20" xMax="1174" yMax="1618">
      <contour>
        <pt x="336" y="1243" on="0"/>
        <pt x="231" y="1348" on="0"/>
        <pt x="231" y="1430" on="1"/>
        <pt x="231" y="1514" on="0"/>
        <pt x="336" y="1618" on="0"/>
        <pt x="418" y="1618" on="1"/>
        <pt x="500" y="1618" on="0"/>
        <pt x="604" y="1513" on="0"/>
        <pt x="604" y="1430" on="1"/>
        <pt x="604" y="1348" on="0"/>
        <pt x="500" y="1243" on="0"/>
        <pt x="418" y="1243" on="1"/>
      </contour>
      <contour>
        <pt x="762" y="1243" on="0"/>
        <pt x="657" y="1348" on="0"/>
        <pt x="657" y="1430" on="1"/>
        <pt x="657" y="1514" on="0"/>
        <pt x="762" y="1618" on="0"/>
        <pt x="844" y="1618" on="1"/>
        <pt x="926" y="1618" on="0"/>
        <pt x="1030" y="1513" on="0"/>
        <pt x="1030" y="1430" on="1"/>
        <pt x="1030" y="1348" on="0"/>
        <pt x="926" y="1243" on="0"/>
        <pt x="844" y="1243" on="1"/>
      </contour>
      <contour>
        <pt x="901" y="1141" on="0"/>
        <pt x="1174" y="922" on="0"/>
        <pt x="1174" y="725" on="1"/>
        <pt x="1174" y="0" on="1"/>
        <pt x="721" y="0" on="1"/>
        <pt x="721" y="121" on="1"/>
        <pt x="619" y="-20" on="0"/>
        <pt x="406" y="-20" on="1"/>
        <pt x="230" y="-20" on="0"/>
        <pt x="31" y="170" on="0"/>
        <pt x="31" y="332" on="1"/>
        <pt x="31" y="498" on="0"/>
        <pt x="252" y="670" on="0"/>
        <pt x="465" y="674" on="1"/>
        <pt x="721" y="674" on="1"/>
        <pt x="719" y="733" on="0"/>
        <pt x="631" y="797" on="0"/>
        <pt x="547" y="797" on="1"/>
        <pt x="481" y="797" on="0"/>
        <pt x="299" y="760" on="0"/>
        <pt x="207" y="725" on="1"/>
        <pt x="104" y="1032" on="1"/>
        <pt x="247" y="1085" on="0"/>
        <pt x="532" y="1141" on="0"/>
        <pt x="657" y="1141" on="1"/>
      </contour>
      <contour>
        <pt x="610" y="272" on="0"/>
        <pt x="694" y="317" on="0"/>
        <pt x="721" y="358" on="1"/>
        <pt x="721" y="461" on="1"/>
        <pt x="561" y="461" on="1"/>
        <pt x="463" y="461" on="0"/>
        <pt x="463" y="371" on="1"/>
        <pt x="463" y="324" on="0"/>
        <pt x="516" y="272" on="0"/>
        <pt x="565" y="272" on="1"/>
      </contour>
    </TTGlyph>
    <TTGlyph name="ae" xMin="31" yMin="-23" xMax="1931" yMax="1141">
      <contour>
        <pt x="1518" y="1137" on="0"/>
        <pt x="1788" y="985" on="0"/>
        <pt x="1931" y="705" on="0"/>
        <pt x="1931" y="516" on="1"/>
        <pt x="1931" y="477" on="0"/>
        <pt x="1929" y="457" on="1"/>
        <pt x="1198" y="457" on="1"/>
        <pt x="1221" y="391" on="0"/>
        <pt x="1317" y="324" on="0"/>
        <pt x="1384" y="324" on="1"/>
        <pt x="1507" y="324" on="0"/>
        <pt x="1614" y="424" on="1"/>
        <pt x="1853" y="188" on="1"/>
        <pt x="1763" y="88" on="0"/>
        <pt x="1505" y="-16" on="0"/>
        <pt x="1343" y="-16" on="1"/>
        <pt x="1189" y="-16" on="0"/>
        <pt x="963" y="90" on="0"/>
        <pt x="893" y="190" on="1"/>
        <pt x="830" y="88" on="0"/>
        <pt x="604" y="-23" on="0"/>
        <pt x="451" y="-23" on="1"/>
        <pt x="254" y="-23" on="0"/>
        <pt x="31" y="170" on="0"/>
        <pt x="31" y="332" on="1"/>
        <pt x="31" y="498" on="0"/>
        <pt x="254" y="670" on="0"/>
        <pt x="467" y="674" on="1"/>
        <pt x="727" y="674" on="1"/>
        <pt x="725" y="733" on="0"/>
        <pt x="635" y="797" on="0"/>
        <pt x="551" y="797" on="1"/>
        <pt x="483" y="797" on="0"/>
        <pt x="299" y="760" on="0"/>
        <pt x="207" y="725" on="1"/>
        <pt x="104" y="1032" on="1"/>
        <pt x="249" y="1085" on="0"/>
        <pt x="535" y="1141" on="0"/>
        <pt x="659" y="1141" on="1"/>
        <pt x="886" y="1141" on="0"/>
        <pt x="1018" y="1049" on="1"/>
        <pt x="1147" y="1137" on="0"/>
        <pt x="1331" y="1137" on="1"/>
      </contour>
      <contour>
        <pt x="1473" y="739" on="0"/>
        <pt x="1397" y="829" on="0"/>
        <pt x="1335" y="829" on="1"/>
        <pt x="1278" y="829" on="0"/>
        <pt x="1202" y="743" on="0"/>
        <pt x="1188" y="670" on="1"/>
        <pt x="1468" y="670" on="1"/>
      </contour>
      <contour>
        <pt x="612" y="272" on="0"/>
        <pt x="698" y="317" on="0"/>
        <pt x="727" y="358" on="1"/>
        <pt x="727" y="461" on="1"/>
        <pt x="563" y="461" on="1"/>
        <pt x="516" y="461" on="0"/>
        <pt x="463" y="416" on="0"/>
        <pt x="463" y="371" on="1"/>
        <pt x="463" y="324" on="0"/>
        <pt x="518" y="272" on="0"/>
        <pt x="567" y="272" on="1"/>
      </contour>
    </TTGlyph>
    <TTGlyph name="agrave" xMin="31" yMin="-20" xMax="1174" yMax="1597">
      <component glyphName="a" x="0" y="0" flags="0x1000"/>
      <component glyphName="grave" x="197" y="0" flags="0x1000"/>
    </TTGlyph>
    <TTGlyph name="amacron" xMin="31" yMin="-20" xMax="1174" yMax="1581">
      <component glyphName="a" x="0" y="0" flags="0x1000"/>
      <component glyphName="macron" x="272" y="0" flags="0x1000"/>
    </TTGlyph>
    <TTGlyph name="ampersand" xMin="109" yMin="-82" xMax="1432" yMax="1456">
      <contour>
        <pt x="1014" y="96" on="1"/>
        <pt x="838" y="-21" on="0"/>
        <pt x="631" y="-20" on="1"/>
        <pt x="481" y="-20" on="0"/>
        <pt x="244" y="90" on="0"/>
        <pt x="109" y="285" on="0"/>
        <pt x="109" y="410" on="1"/>
        <pt x="109" y="537" on="0"/>
        <pt x="248" y="711" on="0"/>
        <pt x="371" y="782" on="1"/>
        <pt x="314" y="868" on="0"/>
        <pt x="266" y="1012" on="0"/>
        <pt x="266" y="1090" on="1"/>
        <pt x="266" y="1260" on="0"/>
        <pt x="504" y="1456" on="0"/>
        <pt x="709" y="1456" on="1"/>
        <pt x="840" y="1456" on="0"/>
        <pt x="1044" y="1368" on="0"/>
        <pt x="1161" y="1212" on="0"/>
        <pt x="1161" y="1114" on="1"/>
        <pt x="1161" y="977" on="0"/>
        <pt x="987" y="799" on="0"/>
        <pt x="836" y="721" on="1"/>
        <pt x="899" y="651" on="0"/>
        <pt x="989" y="561" on="1"/>
        <pt x="1036" y="653" on="0"/>
        <pt x="1061" y="762" on="1"/>
        <pt x="1350" y="555" on="1"/>
        <pt x="1309" y="432" on="0"/>
        <pt x="1235" y="324" on="1"/>
        <pt x="1432" y="141" on="1"/>
        <pt x="1200" y="-82" on="1"/>
      </contour>
      <contour>
        <pt x="623" y="1016" on="0"/>
        <pt x="670" y="936" on="1"/>
        <pt x="733" y="975" on="0"/>
        <pt x="803" y="1059" on="0"/>
        <pt x="803" y="1110" on="1"/>
        <pt x="803" y="1151" on="0"/>
        <pt x="754" y="1202" on="0"/>
        <pt x="713" y="1202" on="1"/>
        <pt x="670" y="1202" on="0"/>
        <pt x="623" y="1141" on="0"/>
        <pt x="623" y="1092" on="1"/>
      </contour>
      <contour>
        <pt x="715" y="297" on="0"/>
        <pt x="776" y="328" on="1"/>
        <pt x="676" y="428" on="0"/>
        <pt x="549" y="563" on="1"/>
        <pt x="483" y="508" on="0"/>
        <pt x="483" y="444" on="1"/>
        <pt x="483" y="376" on="0"/>
        <pt x="575" y="297" on="0"/>
        <pt x="649" y="297" on="1"/>
      </contour>
    </TTGlyph>
    <TTGlyph name="aogonek" xMin="31" yMin="-418" xMax="1227" yMax="1141">
      <contour>
        <pt x="907" y="1141" on="0"/>
        <pt x="1184" y="922" on="0"/>
        <pt x="1184" y="725" on="1"/>
        <pt x="1184" y="0" on="1"/>
        <pt x="1087" y="0" on="1"/>
        <pt x="1009" y="-117" on="0"/>
        <pt x="1010" y="-162" on="1"/>
        <pt x="1010" y="-193" on="0"/>
        <pt x="1038" y="-193" on="1"/>
        <pt x="1079" y="-193" on="0"/>
        <pt x="1114" y="-131" on="1"/>
        <pt x="1227" y="-262" on="1"/>
        <pt x="1184" y="-340" on="0"/>
        <pt x="1057" y="-418" on="0"/>
        <pt x="981" y="-418" on="1"/>
        <pt x="903" y="-418" on="0"/>
        <pt x="784" y="-334" on="0"/>
        <pt x="784" y="-238" on="1"/>
        <pt x="784" y="-134" on="0"/>
        <pt x="872" y="0" on="1"/>
        <pt x="731" y="0" on="1"/>
        <pt x="731" y="123" on="1"/>
        <pt x="680" y="53" on="0"/>
        <pt x="516" y="-23" on="0"/>
        <pt x="410" y="-23" on="1"/>
        <pt x="232" y="-23" on="0"/>
        <pt x="31" y="170" on="0"/>
        <pt x="31" y="332" on="1"/>
        <pt x="31" y="498" on="0"/>
        <pt x="254" y="670" on="0"/>
        <pt x="469" y="674" on="1"/>
        <pt x="731" y="674" on="1"/>
        <pt x="731" y="676" on="1"/>
        <pt x="727" y="733" on="0"/>
        <pt x="637" y="797" on="0"/>
        <pt x="553" y="797" on="1"/>
        <pt x="485" y="797" on="0"/>
        <pt x="301" y="760" on="0"/>
        <pt x="207" y="725" on="1"/>
        <pt x="104" y="1032" on="1"/>
        <pt x="249" y="1085" on="0"/>
        <pt x="537" y="1141" on="0"/>
        <pt x="662" y="1141" on="1"/>
      </contour>
      <contour>
        <pt x="516" y="461" on="0"/>
        <pt x="463" y="416" on="0"/>
        <pt x="463" y="371" on="1"/>
        <pt x="463" y="324" on="0"/>
        <pt x="518" y="272" on="0"/>
        <pt x="569" y="272" on="1"/>
        <pt x="616" y="272" on="0"/>
        <pt x="702" y="317" on="0"/>
        <pt x="731" y="358" on="1"/>
        <pt x="731" y="461" on="1"/>
        <pt x="565" y="461" on="1"/>
      </contour>
    </TTGlyph>
    <TTGlyph name="approxequal" xMin="96" yMin="209" xMax="969" yMax="1118">
      <contour>
        <pt x="416" y="1118" on="0"/>
        <pt x="498" y="1085" on="0"/>
        <pt x="545" y="1057" on="1"/>
        <pt x="592" y="1028" on="0"/>
        <pt x="612" y="1028" on="1"/>
        <pt x="665" y="1028" on="0"/>
        <pt x="666" y="1112" on="1"/>
        <pt x="969" y="1112" on="1"/>
        <pt x="969" y="901" on="0"/>
        <pt x="842" y="700" on="0"/>
        <pt x="709" y="700" on="1"/>
        <pt x="652" y="700" on="0"/>
        <pt x="569" y="733" on="0"/>
        <pt x="522" y="762" on="1"/>
        <pt x="475" y="791" on="0"/>
        <pt x="455" y="791" on="1"/>
        <pt x="402" y="791" on="0"/>
        <pt x="401" y="707" on="1"/>
        <pt x="96" y="707" on="1"/>
        <pt x="96" y="918" on="0"/>
        <pt x="225" y="1118" on="0"/>
        <pt x="358" y="1118" on="1"/>
      </contour>
      <contour>
        <pt x="416" y="627" on="0"/>
        <pt x="498" y="594" on="0"/>
        <pt x="545" y="565" on="1"/>
        <pt x="592" y="536" on="0"/>
        <pt x="612" y="537" on="1"/>
        <pt x="665" y="537" on="0"/>
        <pt x="666" y="621" on="1"/>
        <pt x="969" y="621" on="1"/>
        <pt x="969" y="410" on="0"/>
        <pt x="842" y="209" on="0"/>
        <pt x="709" y="209" on="1"/>
        <pt x="652" y="209" on="0"/>
        <pt x="569" y="242" on="0"/>
        <pt x="522" y="270" on="1"/>
        <pt x="475" y="299" on="0"/>
        <pt x="455" y="299" on="1"/>
        <pt x="402" y="299" on="0"/>
        <pt x="401" y="215" on="1"/>
        <pt x="96" y="215" on="1"/>
        <pt x="96" y="426" on="0"/>
        <pt x="225" y="627" on="0"/>
        <pt x="358" y="627" on="1"/>
      </contour>
    </TTGlyph>
    <TTGlyph name="aring" xMin="31" yMin="-20" xMax="1174" yMax="1694">
      <component glyphName="a" x="0" y="0" flags="0x1000"/>
      <component glyphName="ring" x="272" y="0" flags="0x1000"/>
    </TTGlyph>
    <TTGlyph name="asciicircum" xMin="68" yMin="292" xMax="1191" yMax="1072">
      <component glyphName="less" x="-32" y="1122" scalex="0.0" scale01="-0.825988769531" scale10="1.0" scaley="0.0" flags="0x1000"/>
    </TTGlyph>
    <TTGlyph name="asciitilde" xMin="96" yMin="463" xMax="969" yMax="881">
      <contour>
        <pt x="416" y="881" on="0"/>
        <pt x="498" y="848" on="0"/>
        <pt x="545" y="819" on="1"/>
        <pt x="592" y="790" on="0"/>
        <pt x="612" y="791" on="1"/>
        <pt x="665" y="791" on="0"/>
        <pt x="666" y="874" on="1"/>
        <pt x="969" y="874" on="1"/>
        <pt x="969" y="663" on="0"/>
        <pt x="842" y="463" on="0"/>
        <pt x="709" y="463" on="1"/>
        <pt x="652" y="463" on="0"/>
        <pt x="569" y="496" on="0"/>
        <pt x="522" y="524" on="1"/>
        <pt x="475" y="553" on="0"/>
        <pt x="455" y="553" on="1"/>
        <pt x="402" y="553" on="0"/>
        <pt x="401" y="469" on="1"/>
        <pt x="96" y="469" on="1"/>
        <pt x="96" y="680" on="0"/>
        <pt x="225" y="881" on="0"/>
        <pt x="358" y="881" on="1"/>
      </contour>
    </TTGlyph>
    <TTGlyph name="asterisk" xMin="41" yMin="735" xMax="791" yMax="1470">
      <contour>
        <pt x="528" y="735" on="1"/>
        <pt x="303" y="735" on="1"/>
        <pt x="309" y="918" on="1"/>
        <pt x="154" y="823" on="1"/>
        <pt x="41" y="1016" on="1"/>
        <pt x="201" y="1104" on="1"/>
        <pt x="41" y="1188" on="1"/>
        <pt x="154" y="1386" on="1"/>
        <pt x="307" y="1290" on="1"/>
        <pt x="303" y="1470" on="1"/>
        <pt x="528" y="1470" on="1"/>
        <pt x="524" y="1290" on="1"/>
        <pt x="678" y="1382" on="1"/>
        <pt x="791" y="1188" on="1"/>
        <pt x="629" y="1104" on="1"/>
        <pt x="791" y="1016" on="1"/>
        <pt x="678" y="819" on="1"/>
        <pt x="522" y="915" on="1"/>
      </contour>
    </TTGlyph>
    <TTGlyph name="at" xMin="31" yMin="-297" xMax="1741" yMax="1430">
      <contour>
        <pt x="1137" y="1430" on="0"/>
        <pt x="1520" y="1204" on="0"/>
        <pt x="1741" y="811" on="0"/>
        <pt x="1741" y="565" on="1"/>
        <pt x="1741" y="418" on="0"/>
        <pt x="1640" y="190" on="0"/>
        <pt x="1460" y="68" on="0"/>
        <pt x="1348" y="68" on="1"/>
        <pt x="1149" y="68" on="0"/>
        <pt x="1106" y="219" on="1"/>
        <pt x="1102" y="233" on="1"/>
        <pt x="1049" y="157" on="0"/>
        <pt x="907" y="88" on="0"/>
        <pt x="831" y="88" on="1"/>
        <pt x="722" y="88" on="0"/>
        <pt x="528" y="205" on="0"/>
        <pt x="408" y="420" on="0"/>
        <pt x="408" y="555" on="1"/>
        <pt x="408" y="684" on="0"/>
        <pt x="504" y="901" on="0"/>
        <pt x="684" y="1030" on="0"/>
        <pt x="801" y="1030" on="1"/>
        <pt x="867" y="1030" on="0"/>
        <pt x="971" y="981" on="0"/>
        <pt x="1036" y="926" on="0"/>
        <pt x="1036" y="922" on="1"/>
        <pt x="1036" y="1006" on="1"/>
        <pt x="1313" y="1006" on="1"/>
        <pt x="1313" y="340" on="1"/>
        <pt x="1313" y="291" on="0"/>
        <pt x="1343" y="250" on="0"/>
        <pt x="1374" y="250" on="1"/>
        <pt x="1411" y="250" on="0"/>
        <pt x="1479" y="330" on="0"/>
        <pt x="1522" y="471" on="0"/>
        <pt x="1522" y="559" on="1"/>
        <pt x="1522" y="747" on="0"/>
        <pt x="1374" y="1051" on="0"/>
        <pt x="1094" y="1227" on="0"/>
        <pt x="899" y="1227" on="1"/>
        <pt x="723" y="1227" on="0"/>
        <pt x="426" y="1044" on="0"/>
        <pt x="252" y="733" on="0"/>
        <pt x="252" y="549" on="1"/>
        <pt x="252" y="369" on="0"/>
        <pt x="416" y="74" on="0"/>
        <pt x="700" y="-94" on="0"/>
        <pt x="874" y="-94" on="1"/>
        <pt x="966" y="-94" on="0"/>
        <pt x="1169" y="-29" on="0"/>
        <pt x="1251" y="35" on="1"/>
        <pt x="1356" y="-141" on="1"/>
        <pt x="1270" y="-211" on="0"/>
        <pt x="997" y="-297" on="0"/>
        <pt x="874" y="-297" on="1"/>
        <pt x="636" y="-297" on="0"/>
        <pt x="252" y="-76" on="0"/>
        <pt x="31" y="309" on="0"/>
        <pt x="31" y="549" on="1"/>
        <pt x="31" y="791" on="0"/>
        <pt x="264" y="1196" on="0"/>
        <pt x="662" y="1430" on="0"/>
        <pt x="899" y="1430" on="1"/>
      </contour>
      <contour>
        <pt x="793" y="776" on="0"/>
        <pt x="711" y="653" on="0"/>
        <pt x="711" y="565" on="1"/>
        <pt x="711" y="471" on="0"/>
        <pt x="793" y="336" on="0"/>
        <pt x="860" y="336" on="1"/>
        <pt x="934" y="336" on="0"/>
        <pt x="1018" y="467" on="0"/>
        <pt x="1018" y="563" on="1"/>
        <pt x="1018" y="655" on="0"/>
        <pt x="932" y="776" on="0"/>
        <pt x="858" y="776" on="1"/>
      </contour>
    </TTGlyph>
    <TTGlyph name="atilde" xMin="31" yMin="-20" xMax="1174" yMax="1632">
      <component glyphName="a" x="0" y="0" flags="0x1000"/>
      <component glyphName="tilde" x="272" y="0" flags="0x1000"/>
    </TTGlyph>
    <TTGlyph name="b" xMin="123" yMin="-16" xMax="1382" yMax="1520">
      <contour>
        <pt x="1022" y="1137" on="0"/>
        <pt x="1255" y="993" on="0"/>
        <pt x="1382" y="729" on="0"/>
        <pt x="1382" y="553" on="1"/>
        <pt x="1382" y="381" on="0"/>
        <pt x="1260" y="123" on="0"/>
        <pt x="1032" y="-16" on="0"/>
        <pt x="881" y="-16" on="1"/>
        <pt x="791" y="-16" on="0"/>
        <pt x="639" y="51" on="0"/>
        <pt x="584" y="115" on="1"/>
        <pt x="584" y="0" on="1"/>
        <pt x="123" y="0" on="1"/>
        <pt x="123" y="1520" on="1"/>
        <pt x="584" y="1520" on="1"/>
        <pt x="584" y="1008" on="1"/>
        <pt x="695" y="1137" on="0"/>
        <pt x="868" y="1137" on="1"/>
      </contour>
      <contour>
        <pt x="825" y="348" on="0"/>
        <pt x="918" y="467" on="0"/>
        <pt x="918" y="565" on="1"/>
        <pt x="918" y="663" on="0"/>
        <pt x="825" y="782" on="0"/>
        <pt x="750" y="782" on="1"/>
        <pt x="674" y="782" on="0"/>
        <pt x="584" y="664" on="0"/>
        <pt x="584" y="565" on="1"/>
        <pt x="584" y="467" on="0"/>
        <pt x="674" y="348" on="0"/>
        <pt x="750" y="348" on="1"/>
      </contour>
    </TTGlyph>
    <TTGlyph name="backslash" xMin="-192" yMin="-213" xMax="866" yMax="1651">
      <component glyphName="slash" x="764" y="0" scalex="-1.0" scaley="1.0" flags="0x1000"/>
    </TTGlyph>
    <TTGlyph name="bar" xMin="164" yMin="-211" xMax="504" yMax="1630">
      <contour>
        <pt x="164" y="-211" on="1"/>
        <pt x="164" y="1630" on="1"/>
        <pt x="504" y="1630" on="1"/>
        <pt x="504" y="-211" on="1"/>
      </contour>
    </TTGlyph>
    <TTGlyph name="braceleft" xMin="29" yMin="-258" xMax="760" yMax="1524">
      <contour>
        <pt x="594" y="784" on="0"/>
        <pt x="506" y="659" on="0"/>
        <pt x="397" y="633" on="1"/>
        <pt x="506" y="606" on="0"/>
        <pt x="594" y="481" on="0"/>
        <pt x="594" y="358" on="1"/>
        <pt x="594" y="201" on="1"/>
        <pt x="594" y="131" on="0"/>
        <pt x="659" y="80" on="0"/>
        <pt x="760" y="80" on="1"/>
        <pt x="760" y="-258" on="1"/>
        <pt x="580" y="-258" on="1"/>
        <pt x="428" y="-258" on="0"/>
        <pt x="258" y="-199" on="0"/>
        <pt x="184" y="-63" on="0"/>
        <pt x="184" y="55" on="1"/>
        <pt x="184" y="389" on="1"/>
        <pt x="184" y="428" on="0"/>
        <pt x="156" y="459" on="0"/>
        <pt x="121" y="459" on="1"/>
        <pt x="29" y="459" on="1"/>
        <pt x="29" y="807" on="1"/>
        <pt x="121" y="807" on="1"/>
        <pt x="156" y="807" on="0"/>
        <pt x="184" y="838" on="0"/>
        <pt x="184" y="877" on="1"/>
        <pt x="184" y="1210" on="1"/>
        <pt x="184" y="1329" on="0"/>
        <pt x="258" y="1464" on="0"/>
        <pt x="428" y="1524" on="0"/>
        <pt x="580" y="1524" on="1"/>
        <pt x="760" y="1524" on="1"/>
        <pt x="760" y="1186" on="1"/>
        <pt x="660" y="1186" on="0"/>
        <pt x="594" y="1135" on="0"/>
        <pt x="594" y="1065" on="1"/>
        <pt x="594" y="907" on="1"/>
      </contour>
    </TTGlyph>
    <TTGlyph name="braceright" xMin="20" yMin="-258" xMax="751" yMax="1524">
      <component glyphName="braceleft" x="780" y="0" scalex="-1.0" scaley="1.0" flags="0x1000"/>
    </TTGlyph>
    <TTGlyph name="bracketleft" xMin="102" yMin="-254" xMax="752" yMax="1520">
      <contour>
        <pt x="512" y="1180" on="1"/>
        <pt x="512" y="86" on="1"/>
        <pt x="752" y="86" on="1"/>
        <pt x="752" y="-254" on="1"/>
        <pt x="102" y="-254" on="1"/>
        <pt x="102" y="1520" on="1"/>
        <pt x="752" y="1520" on="1"/>
        <pt x="752" y="1180" on="1"/>
      </contour>
    </TTGlyph>
    <TTGlyph name="bracketright" xMin="61" yMin="-254" xMax="711" yMax="1520">
      <component glyphName="bracketleft" x="813" y="0" scalex="-1.0" scaley="1.0" flags="0x1000"/>
    </TTGlyph>
    <TTGlyph name="breve" xMin="-18" yMin="1219" xMax="735" yMax="1575">
      <contour>
        <pt x="727" y="1413" on="0"/>
        <pt x="522" y="1219" on="0"/>
        <pt x="358" y="1219" on="1"/>
        <pt x="194" y="1219" on="0"/>
        <pt x="-10" y="1413" on="0"/>
        <pt x="-18" y="1575" on="1"/>
        <pt x="258" y="1575" on="1"/>
        <pt x="262" y="1528" on="0"/>
        <pt x="317" y="1473" on="0"/>
        <pt x="358" y="1473" on="1"/>
        <pt x="399" y="1473" on="0"/>
        <pt x="455" y="1528" on="0"/>
        <pt x="459" y="1575" on="1"/>
        <pt x="735" y="1575" on="1"/>
      </contour>
    </TTGlyph>
    <TTGlyph name="brokenbar" xMin="164" yMin="-211" xMax="504" yMax="1630">
      <contour>
        <pt x="164" y="936" on="1"/>
        <pt x="164" y="1630" on="1"/>
        <pt x="504" y="1630" on="1"/>
        <pt x="504" y="936" on="1"/>
      </contour>
      <contour>
        <pt x="164" y="-211" on="1"/>
        <pt x="164" y="483" on="1"/>
        <pt x="504" y="483" on="1"/>
        <pt x="504" y="-211" on="1"/>
      </contour>
    </TTGlyph>
    <TTGlyph name="bullet" xMin="61" yMin="264" xMax="692" yMax="895">
      <contour>
        <pt x="516" y="895" on="0"/>
        <pt x="692" y="721" on="0"/>
        <pt x="692" y="582" on="1"/>
        <pt x="692" y="441" on="0"/>
        <pt x="516" y="264" on="0"/>
        <pt x="375" y="264" on="1"/>
        <pt x="236" y="264" on="0"/>
        <pt x="61" y="440" on="0"/>
        <pt x="61" y="582" on="1"/>
        <pt x="61" y="721" on="0"/>
        <pt x="238" y="895" on="0"/>
        <pt x="375" y="895" on="1"/>
      </contour>
    </TTGlyph>
    <TTGlyph name="bulletoperator" xMin="61" yMin="264" xMax="692" yMax="895">
      <contour>
        <pt x="516" y="895" on="0"/>
        <pt x="692" y="721" on="0"/>
        <pt x="692" y="582" on="1"/>
        <pt x="692" y="441" on="0"/>
        <pt x="516" y="264" on="0"/>
        <pt x="375" y="264" on="1"/>
        <pt x="236" y="264" on="0"/>
        <pt x="61" y="440" on="0"/>
        <pt x="61" y="582" on="1"/>
        <pt x="61" y="721" on="0"/>
        <pt x="238" y="895" on="0"/>
        <pt x="375" y="895" on="1"/>
      </contour>
    </TTGlyph>
    <TTGlyph name="c" xMin="31" yMin="-16" xMax="1153" yMax="1137">
      <contour>
        <pt x="805" y="1137" on="0"/>
        <pt x="1083" y="967" on="0"/>
        <pt x="1153" y="813" on="1"/>
        <pt x="786" y="657" on="1"/>
        <pt x="741" y="763" on="0"/>
        <pt x="643" y="764" on="1"/>
        <pt x="575" y="764" on="0"/>
        <pt x="496" y="651" on="0"/>
        <pt x="496" y="557" on="1"/>
        <pt x="496" y="461" on="0"/>
        <pt x="575" y="348" on="0"/>
        <pt x="643" y="348" on="1"/>
        <pt x="745" y="348" on="0"/>
        <pt x="780" y="469" on="1"/>
        <pt x="1153" y="297" on="1"/>
        <pt x="1092" y="147" on="0"/>
        <pt x="811" y="-16" on="0"/>
        <pt x="618" y="-16" on="1"/>
        <pt x="442" y="-16" on="0"/>
        <pt x="176" y="125" on="0"/>
        <pt x="31" y="383" on="0"/>
        <pt x="31" y="555" on="1"/>
        <pt x="31" y="729" on="0"/>
        <pt x="176" y="993" on="0"/>
        <pt x="444" y="1137" on="0"/>
        <pt x="623" y="1137" on="1"/>
      </contour>
    </TTGlyph>
    <TTGlyph name="cacute" xMin="31" yMin="-16" xMax="1153" yMax="1597">
      <component glyphName="c" x="0" y="0" flags="0x1000"/>
      <component glyphName="acute" x="340" y="0" flags="0x1000"/>
    </TTGlyph>
    <TTGlyph name="caron" xMin="-102" yMin="1210" xMax="819" yMax="1575">
      <contour>
        <pt x="236" y="1575" on="1"/>
        <pt x="358" y="1391" on="1"/>
        <pt x="481" y="1575" on="1"/>
        <pt x="819" y="1575" on="1"/>
        <pt x="547" y="1210" on="1"/>
        <pt x="170" y="1210" on="1"/>
        <pt x="-102" y="1575" on="1"/>
      </contour>
    </TTGlyph>
    <TTGlyph name="ccaron" xMin="31" yMin="-16" xMax="1153" yMax="1575">
      <component glyphName="c" x="0" y="0" flags="0x1000"/>
      <component glyphName="caron" x="240" y="0" flags="0x1000"/>
    </TTGlyph>
    <TTGlyph name="ccedilla" xMin="31" yMin="-506" xMax="1153" yMax="1137">
      <contour>
        <pt x="745" y="348" on="0"/>
        <pt x="780" y="469" on="1"/>
        <pt x="1153" y="297" on="1"/>
        <pt x="1104" y="178" on="0"/>
        <pt x="901" y="23" on="0"/>
        <pt x="760" y="-4" on="1"/>
        <pt x="707" y="-104" on="1"/>
        <pt x="768" y="-124" on="0"/>
        <pt x="842" y="-219" on="0"/>
        <pt x="842" y="-274" on="1"/>
        <pt x="842" y="-380" on="0"/>
        <pt x="686" y="-506" on="0"/>
        <pt x="553" y="-506" on="1"/>
        <pt x="506" y="-506" on="0"/>
        <pt x="393" y="-469" on="0"/>
        <pt x="346" y="-436" on="1"/>
        <pt x="428" y="-252" on="1"/>
        <pt x="444" y="-270" on="0"/>
        <pt x="489" y="-293" on="0"/>
        <pt x="512" y="-293" on="1"/>
        <pt x="547" y="-293" on="0"/>
        <pt x="590" y="-256" on="0"/>
        <pt x="590" y="-225" on="1"/>
        <pt x="590" y="-192" on="0"/>
        <pt x="543" y="-156" on="0"/>
        <pt x="502" y="-156" on="1"/>
        <pt x="471" y="-156" on="0"/>
        <pt x="426" y="-166" on="1"/>
        <pt x="508" y="-8" on="1"/>
        <pt x="287" y="25" on="0"/>
        <pt x="31" y="324" on="0"/>
        <pt x="31" y="555" on="1"/>
        <pt x="31" y="729" on="0"/>
        <pt x="176" y="993" on="0"/>
        <pt x="444" y="1137" on="0"/>
        <pt x="623" y="1137" on="1"/>
        <pt x="805" y="1137" on="0"/>
        <pt x="1083" y="967" on="0"/>
        <pt x="1153" y="813" on="1"/>
        <pt x="786" y="657" on="1"/>
        <pt x="741" y="763" on="0"/>
        <pt x="643" y="764" on="1"/>
        <pt x="575" y="764" on="0"/>
        <pt x="496" y="651" on="0"/>
        <pt x="496" y="557" on="1"/>
        <pt x="496" y="461" on="0"/>
        <pt x="575" y="348" on="0"/>
        <pt x="643" y="348" on="1"/>
      </contour>
    </TTGlyph>
    <TTGlyph name="cedilla" xMin="111" yMin="-506" xMax="606" yMax="37">
      <contour>
        <pt x="532" y="-125" on="0"/>
        <pt x="606" y="-219" on="0"/>
        <pt x="606" y="-274" on="1"/>
        <pt x="606" y="-380" on="0"/>
        <pt x="451" y="-506" on="0"/>
        <pt x="317" y="-506" on="1"/>
        <pt x="270" y="-506" on="0"/>
        <pt x="158" y="-469" on="0"/>
        <pt x="111" y="-436" on="1"/>
        <pt x="193" y="-252" on="1"/>
        <pt x="209" y="-270" on="0"/>
        <pt x="254" y="-293" on="0"/>
        <pt x="276" y="-293" on="1"/>
        <pt x="311" y="-293" on="0"/>
        <pt x="354" y="-256" on="0"/>
        <pt x="354" y="-225" on="1"/>
        <pt x="354" y="-192" on="0"/>
        <pt x="307" y="-156" on="0"/>
        <pt x="266" y="-156" on="1"/>
        <pt x="235" y="-156" on="0"/>
        <pt x="190" y="-166" on="1"/>
        <pt x="295" y="37" on="1"/>
        <pt x="547" y="37" on="1"/>
        <pt x="471" y="-104" on="1"/>
      </contour>
    </TTGlyph>
    <TTGlyph name="cent" xMin="31" yMin="-338" xMax="1153" yMax="1462">
      <contour>
        <pt x="745" y="348" on="0"/>
        <pt x="780" y="469" on="1"/>
        <pt x="1153" y="297" on="1"/>
        <pt x="1108" y="188" on="0"/>
        <pt x="934" y="41" on="0"/>
        <pt x="811" y="8" on="1"/>
        <pt x="811" y="-338" on="1"/>
        <pt x="471" y="-338" on="1"/>
        <pt x="471" y="-2" on="1"/>
        <pt x="266" y="39" on="0"/>
        <pt x="31" y="334" on="0"/>
        <pt x="31" y="555" on="1"/>
        <pt x="31" y="778" on="0"/>
        <pt x="266" y="1079" on="0"/>
        <pt x="471" y="1122" on="1"/>
        <pt x="471" y="1462" on="1"/>
        <pt x="811" y="1462" on="1"/>
        <pt x="811" y="1110" on="1"/>
        <pt x="928" y="1075" on="0"/>
        <pt x="1102" y="924" on="0"/>
        <pt x="1153" y="813" on="1"/>
        <pt x="786" y="657" on="1"/>
        <pt x="741" y="763" on="0"/>
        <pt x="643" y="764" on="1"/>
        <pt x="575" y="764" on="0"/>
        <pt x="496" y="651" on="0"/>
        <pt x="496" y="557" on="1"/>
        <pt x="496" y="461" on="0"/>
        <pt x="575" y="348" on="0"/>
        <pt x="643" y="348" on="1"/>
      </contour>
    </TTGlyph>
    <TTGlyph name="circumflex" xMin="-61" yMin="1243" xMax="778" yMax="1575">
      <contour>
        <pt x="471" y="1243" on="1"/>
        <pt x="358" y="1411" on="1"/>
        <pt x="246" y="1243" on="1"/>
        <pt x="-61" y="1243" on="1"/>
        <pt x="186" y="1575" on="1"/>
        <pt x="530" y="1575" on="1"/>
        <pt x="778" y="1243" on="1"/>
      </contour>
    </TTGlyph>
    <TTGlyph name="colon" xMin="61" yMin="-16" xMax="481" yMax="1011">
      <component glyphName="period" x="0" y="608" flags="0x1000"/>
      <component glyphName="period" x="0" y="0" flags="0x1000"/>
    </TTGlyph>
    <TTGlyph name="comma" xMin="37" yMin="-225" xMax="483" yMax="403">
      <contour>
        <pt x="362" y="403" on="0"/>
        <pt x="483" y="293" on="0"/>
        <pt x="483" y="197" on="1"/>
        <pt x="483" y="113" on="0"/>
        <pt x="428" y="33" on="1"/>
        <pt x="250" y="-225" on="1"/>
        <pt x="37" y="-225" on="1"/>
        <pt x="143" y="35" on="1"/>
        <pt x="102" y="62" on="0"/>
        <pt x="63" y="145" on="0"/>
        <pt x="63" y="195" on="1"/>
        <pt x="63" y="287" on="0"/>
        <pt x="182" y="403" on="0"/>
        <pt x="274" y="403" on="1"/>
      </contour>
    </TTGlyph>
    <TTGlyph name="copyright" xMin="31" yMin="18" xMax="1417" yMax="1411">
      <contour>
        <pt x="915" y="1411" on="0"/>
        <pt x="1233" y="1225" on="0"/>
        <pt x="1417" y="905" on="0"/>
        <pt x="1417" y="717" on="1"/>
        <pt x="1417" y="531" on="0"/>
        <pt x="1233" y="209" on="0"/>
        <pt x="913" y="18" on="0"/>
        <pt x="721" y="18" on="1"/>
        <pt x="531" y="18" on="0"/>
        <pt x="213" y="207" on="0"/>
        <pt x="31" y="526" on="0"/>
        <pt x="31" y="713" on="1"/>
        <pt x="31" y="899" on="0"/>
        <pt x="215" y="1221" on="0"/>
        <pt x="532" y="1411" on="0"/>
        <pt x="725" y="1411" on="1"/>
      </contour>
      <contour>
        <pt x="590" y="1206" on="0"/>
        <pt x="365" y="1073" on="0"/>
        <pt x="236" y="846" on="0"/>
        <pt x="236" y="713" on="1"/>
        <pt x="236" y="580" on="0"/>
        <pt x="365" y="356" on="0"/>
        <pt x="586" y="223" on="0"/>
        <pt x="721" y="223" on="1"/>
        <pt x="858" y="223" on="0"/>
        <pt x="1083" y="356" on="0"/>
        <pt x="1212" y="584" on="0"/>
        <pt x="1212" y="717" on="1"/>
        <pt x="1212" y="850" on="0"/>
        <pt x="1083" y="1073" on="0"/>
        <pt x="860" y="1206" on="0"/>
        <pt x="725" y="1206" on="1"/>
      </contour>
      <contour>
        <pt x="813" y="1044" on="0"/>
        <pt x="963" y="979" on="0"/>
        <pt x="1012" y="926" on="1"/>
        <pt x="889" y="778" on="1"/>
        <pt x="860" y="819" on="0"/>
        <pt x="780" y="866" on="0"/>
        <pt x="743" y="866" on="1"/>
        <pt x="684" y="866" on="0"/>
        <pt x="608" y="782" on="0"/>
        <pt x="608" y="719" on="1"/>
        <pt x="608" y="653" on="0"/>
        <pt x="684" y="569" on="0"/>
        <pt x="743" y="569" on="1"/>
        <pt x="778" y="569" on="0"/>
        <pt x="856" y="610" on="0"/>
        <pt x="889" y="643" on="1"/>
        <pt x="1012" y="512" on="1"/>
        <pt x="959" y="453" on="0"/>
        <pt x="807" y="383" on="0"/>
        <pt x="731" y="383" on="1"/>
        <pt x="633" y="383" on="0"/>
        <pt x="477" y="469" on="0"/>
        <pt x="389" y="621" on="0"/>
        <pt x="389" y="715" on="1"/>
        <pt x="389" y="809" on="0"/>
        <pt x="479" y="958" on="0"/>
        <pt x="639" y="1044" on="0"/>
        <pt x="739" y="1044" on="1"/>
      </contour>
    </TTGlyph>
    <TTGlyph name="currency" xMin="31" yMin="-29" xMax="1389" yMax="1329">
      <contour>
        <pt x="1229" y="544" on="0"/>
        <pt x="1178" y="438" on="1"/>
        <pt x="1389" y="227" on="1"/>
        <pt x="1133" y="-29" on="1"/>
        <pt x="918" y="186" on="1"/>
        <pt x="818" y="141" on="0"/>
        <pt x="709" y="141" on="1"/>
        <pt x="603" y="141" on="0"/>
        <pt x="500" y="184" on="1"/>
        <pt x="287" y="-29" on="1"/>
        <pt x="31" y="227" on="1"/>
        <pt x="240" y="436" on="1"/>
        <pt x="189" y="542" on="0"/>
        <pt x="188" y="662" on="1"/>
        <pt x="188" y="771" on="0"/>
        <pt x="233" y="870" on="1"/>
        <pt x="31" y="1073" on="1"/>
        <pt x="287" y="1329" on="1"/>
        <pt x="485" y="1130" on="1"/>
        <pt x="591" y="1181" on="0"/>
        <pt x="709" y="1182" on="1"/>
        <pt x="828" y="1182" on="0"/>
        <pt x="934" y="1130" on="1"/>
        <pt x="1133" y="1329" on="1"/>
        <pt x="1389" y="1073" on="1"/>
        <pt x="1186" y="870" on="1"/>
        <pt x="1229" y="768" on="0"/>
        <pt x="1229" y="662" on="1"/>
      </contour>
      <contour>
        <pt x="776" y="500" on="0"/>
        <pt x="872" y="594" on="0"/>
        <pt x="872" y="662" on="1"/>
        <pt x="872" y="730" on="0"/>
        <pt x="776" y="825" on="0"/>
        <pt x="709" y="825" on="1"/>
        <pt x="641" y="825" on="0"/>
        <pt x="547" y="729" on="0"/>
        <pt x="547" y="662" on="1"/>
        <pt x="547" y="594" on="0"/>
        <pt x="641" y="500" on="0"/>
        <pt x="709" y="500" on="1"/>
      </contour>
    </TTGlyph>
    <TTGlyph name="d" xMin="31" yMin="-16" xMax="1290" yMax="1520">
      <contour>
        <pt x="1290" y="0" on="1"/>
        <pt x="829" y="0" on="1"/>
        <pt x="829" y="113" on="1"/>
        <pt x="718" y="-16" on="0"/>
        <pt x="545" y="-16" on="1"/>
        <pt x="391" y="-16" on="0"/>
        <pt x="158" y="127" on="0"/>
        <pt x="31" y="391" on="0"/>
        <pt x="31" y="567" on="1"/>
        <pt x="31" y="739" on="0"/>
        <pt x="154" y="997" on="0"/>
        <pt x="381" y="1137" on="0"/>
        <pt x="532" y="1137" on="1"/>
        <pt x="622" y="1137" on="0"/>
        <pt x="774" y="1069" on="0"/>
        <pt x="829" y="1006" on="1"/>
        <pt x="829" y="1520" on="1"/>
        <pt x="1290" y="1520" on="1"/>
      </contour>
      <contour>
        <pt x="739" y="338" on="0"/>
        <pt x="829" y="457" on="0"/>
        <pt x="829" y="555" on="1"/>
        <pt x="829" y="653" on="0"/>
        <pt x="739" y="772" on="0"/>
        <pt x="664" y="772" on="1"/>
        <pt x="588" y="772" on="0"/>
        <pt x="496" y="653" on="0"/>
        <pt x="496" y="555" on="1"/>
        <pt x="496" y="457" on="0"/>
        <pt x="588" y="338" on="0"/>
        <pt x="664" y="338" on="1"/>
      </contour>
    </TTGlyph>
    <TTGlyph name="dagger" xMin="41" yMin="-379" xMax="1204" yMax="1432">
      <contour>
        <pt x="1204" y="1030" on="1"/>
        <pt x="1204" y="670" on="1"/>
        <pt x="846" y="670" on="1"/>
        <pt x="846" y="-379" on="1"/>
        <pt x="385" y="-379" on="1"/>
        <pt x="385" y="670" on="1"/>
        <pt x="41" y="670" on="1"/>
        <pt x="41" y="1030" on="1"/>
        <pt x="385" y="1030" on="1"/>
        <pt x="385" y="1432" on="1"/>
        <pt x="846" y="1432" on="1"/>
        <pt x="846" y="1030" on="1"/>
      </contour>
    </TTGlyph>
    <TTGlyph name="daggerdbl" xMin="41" yMin="-379" xMax="1204" yMax="1432">
      <contour>
        <pt x="846" y="395" on="1"/>
        <pt x="1204" y="395" on="1"/>
        <pt x="1204" y="35" on="1"/>
        <pt x="846" y="35" on="1"/>
        <pt x="846" y="-379" on="1"/>
        <pt x="385" y="-379" on="1"/>
        <pt x="385" y="35" on="1"/>
        <pt x="41" y="35" on="1"/>
        <pt x="41" y="395" on="1"/>
        <pt x="385" y="395" on="1"/>
        <pt x="385" y="670" on="1"/>
        <pt x="41" y="670" on="1"/>
        <pt x="41" y="1030" on="1"/>
        <pt x="385" y="1030" on="1"/>
        <pt x="385" y="1432" on="1"/>
        <pt x="846" y="1432" on="1"/>
        <pt x="846" y="1030" on="1"/>
        <pt x="1204" y="1030" on="1"/>
        <pt x="1204" y="670" on="1"/>
        <pt x="846" y="670" on="1"/>
      </contour>
    </TTGlyph>
    <TTGlyph name="dcaron" xMin="31" yMin="-16" xMax="1792" yMax="1520">
      <contour>
        <pt x="1290" y="1520" on="1"/>
        <pt x="1290" y="0" on="1"/>
        <pt x="829" y="0" on="1"/>
        <pt x="829" y="113" on="1"/>
        <pt x="718" y="-16" on="0"/>
        <pt x="545" y="-16" on="1"/>
        <pt x="391" y="-16" on="0"/>
        <pt x="158" y="127" on="0"/>
        <pt x="31" y="391" on="0"/>
        <pt x="31" y="567" on="1"/>
        <pt x="31" y="739" on="0"/>
        <pt x="154" y="997" on="0"/>
        <pt x="381" y="1137" on="0"/>
        <pt x="532" y="1137" on="1"/>
        <pt x="622" y="1137" on="0"/>
        <pt x="774" y="1069" on="0"/>
        <pt x="829" y="1006" on="1"/>
        <pt x="829" y="1520" on="1"/>
      </contour>
      <contour>
        <pt x="1671" y="1370" on="0"/>
        <pt x="1792" y="1260" on="0"/>
        <pt x="1792" y="1163" on="1"/>
        <pt x="1792" y="1079" on="0"/>
        <pt x="1737" y="999" on="1"/>
        <pt x="1559" y="741" on="1"/>
        <pt x="1346" y="741" on="1"/>
        <pt x="1452" y="1001" on="1"/>
        <pt x="1411" y="1028" on="0"/>
        <pt x="1372" y="1112" on="0"/>
        <pt x="1372" y="1161" on="1"/>
        <pt x="1372" y="1253" on="0"/>
        <pt x="1491" y="1370" on="0"/>
        <pt x="1583" y="1370" on="1"/>
      </contour>
      <contour>
        <pt x="739" y="338" on="0"/>
        <pt x="829" y="457" on="0"/>
        <pt x="829" y="555" on="1"/>
        <pt x="829" y="653" on="0"/>
        <pt x="739" y="772" on="0"/>
        <pt x="664" y="772" on="1"/>
        <pt x="588" y="772" on="0"/>
        <pt x="496" y="653" on="0"/>
        <pt x="496" y="555" on="1"/>
        <pt x="496" y="457" on="0"/>
        <pt x="588" y="338" on="0"/>
        <pt x="664" y="338" on="1"/>
      </contour>
    </TTGlyph>
    <TTGlyph name="dcroat" xMin="31" yMin="-16" xMax="1417" yMax="1520">
      <contour>
        <pt x="1290" y="1176" on="1"/>
        <pt x="1290" y="0" on="1"/>
        <pt x="829" y="0" on="1"/>
        <pt x="829" y="113" on="1"/>
        <pt x="718" y="-16" on="0"/>
        <pt x="545" y="-16" on="1"/>
        <pt x="391" y="-16" on="0"/>
        <pt x="158" y="127" on="0"/>
        <pt x="31" y="391" on="0"/>
        <pt x="31" y="567" on="1"/>
        <pt x="31" y="739" on="0"/>
        <pt x="154" y="997" on="0"/>
        <pt x="381" y="1137" on="0"/>
        <pt x="532" y="1137" on="1"/>
        <pt x="622" y="1137" on="0"/>
        <pt x="774" y="1069" on="0"/>
        <pt x="829" y="1006" on="1"/>
        <pt x="829" y="1176" on="1"/>
        <pt x="680" y="1176" on="1"/>
        <pt x="680" y="1407" on="1"/>
        <pt x="829" y="1407" on="1"/>
        <pt x="829" y="1520" on="1"/>
        <pt x="1290" y="1520" on="1"/>
        <pt x="1290" y="1407" on="1"/>
        <pt x="1417" y="1407" on="1"/>
        <pt x="1417" y="1176" on="1"/>
      </contour>
      <contour>
        <pt x="739" y="338" on="0"/>
        <pt x="829" y="457" on="0"/>
        <pt x="829" y="555" on="1"/>
        <pt x="829" y="653" on="0"/>
        <pt x="739" y="772" on="0"/>
        <pt x="664" y="772" on="1"/>
        <pt x="588" y="772" on="0"/>
        <pt x="496" y="653" on="0"/>
        <pt x="496" y="555" on="1"/>
        <pt x="496" y="457" on="0"/>
        <pt x="588" y="338" on="0"/>
        <pt x="664" y="338" on="1"/>
      </contour>
    </TTGlyph>
    <TTGlyph name="degree" xMin="176" yMin="1192" xMax="672" yMax="1688">
      <contour>
        <pt x="526" y="1688" on="0"/>
        <pt x="672" y="1542" on="0"/>
        <pt x="672" y="1440" on="1"/>
        <pt x="672" y="1338" on="0"/>
        <pt x="526" y="1192" on="0"/>
        <pt x="424" y="1192" on="1"/>
        <pt x="322" y="1192" on="0"/>
        <pt x="176" y="1337" on="0"/>
        <pt x="176" y="1440" on="1"/>
        <pt x="176" y="1542" on="0"/>
        <pt x="322" y="1688" on="0"/>
        <pt x="424" y="1688" on="1"/>
      </contour>
      <contour>
        <pt x="391" y="1518" on="0"/>
        <pt x="346" y="1473" on="0"/>
        <pt x="346" y="1440" on="1"/>
        <pt x="346" y="1407" on="0"/>
        <pt x="391" y="1362" on="0"/>
        <pt x="424" y="1362" on="1"/>
        <pt x="457" y="1362" on="0"/>
        <pt x="502" y="1407" on="0"/>
        <pt x="502" y="1440" on="1"/>
        <pt x="502" y="1473" on="0"/>
        <pt x="457" y="1518" on="0"/>
        <pt x="424" y="1518" on="1"/>
      </contour>
    </TTGlyph>
    <TTGlyph name="dieresis" xMin="-13" yMin="1187" xMax="702" yMax="1562">
      <component glyphName="dotaccent" x="228" y="223" scale="0.799987792969" flags="0x1000"/>
      <component glyphName="dotaccent" x="-113" y="223" scale="0.799987792969" flags="0x1000"/>
    </TTGlyph>
    <TTGlyph name="divide" xMin="61" yMin="117" xMax="1004" yMax="1229">
      <contour>
        <pt x="596" y="1229" on="0"/>
        <pt x="700" y="1124" on="0"/>
        <pt x="700" y="1040" on="1"/>
        <pt x="700" y="958" on="0"/>
        <pt x="596" y="854" on="0"/>
        <pt x="514" y="854" on="1"/>
        <pt x="432" y="854" on="0"/>
        <pt x="328" y="958" on="0"/>
        <pt x="328" y="1040" on="1"/>
        <pt x="328" y="1124" on="0"/>
        <pt x="432" y="1229" on="0"/>
        <pt x="514" y="1229" on="1"/>
      </contour>
      <contour>
        <pt x="61" y="530" on="1"/>
        <pt x="61" y="817" on="1"/>
        <pt x="1004" y="817" on="1"/>
        <pt x="1004" y="530" on="1"/>
      </contour>
      <contour>
        <pt x="596" y="492" on="0"/>
        <pt x="700" y="387" on="0"/>
        <pt x="700" y="303" on="1"/>
        <pt x="700" y="221" on="0"/>
        <pt x="596" y="117" on="0"/>
        <pt x="514" y="117" on="1"/>
        <pt x="432" y="117" on="0"/>
        <pt x="328" y="221" on="0"/>
        <pt x="328" y="303" on="1"/>
        <pt x="328" y="387" on="0"/>
        <pt x="432" y="492" on="0"/>
        <pt x="514" y="492" on="1"/>
      </contour>
    </TTGlyph>
    <TTGlyph name="divisionslash" xMin="-102" yMin="-213" xMax="956" yMax="1651">
      <component glyphName="slash" x="0" y="0" flags="0x1000"/>
    </TTGlyph>
    <TTGlyph name="dollar" xMin="16" yMin="-338" xMax="1350" yMax="1769">
      <contour>
        <pt x="596" y="989" on="0"/>
        <pt x="707" y="938" on="0"/>
        <pt x="827" y="907" on="1"/>
        <pt x="983" y="866" on="0"/>
        <pt x="1186" y="780" on="0"/>
        <pt x="1339" y="598" on="0"/>
        <pt x="1339" y="446" on="1"/>
        <pt x="1339" y="243" on="0"/>
        <pt x="1061" y="12" on="0"/>
        <pt x="838" y="-10" on="1"/>
        <pt x="838" y="-338" on="1"/>
        <pt x="498" y="-338" on="1"/>
        <pt x="498" y="10" on="1"/>
        <pt x="365" y="35" on="0"/>
        <pt x="113" y="141" on="0"/>
        <pt x="16" y="215" on="1"/>
        <pt x="193" y="571" on="1"/>
        <pt x="302" y="481" on="0"/>
        <pt x="629" y="348" on="0"/>
        <pt x="739" y="348" on="1"/>
        <pt x="854" y="348" on="0"/>
        <pt x="854" y="422" on="1"/>
        <pt x="854" y="469" on="0"/>
        <pt x="741" y="520" on="0"/>
        <pt x="616" y="551" on="1"/>
        <pt x="464" y="588" on="0"/>
        <pt x="260" y="670" on="0"/>
        <pt x="111" y="844" on="0"/>
        <pt x="111" y="989" on="1"/>
        <pt x="111" y="1155" on="0"/>
        <pt x="315" y="1384" on="0"/>
        <pt x="498" y="1430" on="1"/>
        <pt x="498" y="1769" on="1"/>
        <pt x="838" y="1769" on="1"/>
        <pt x="838" y="1450" on="1"/>
        <pt x="979" y="1438" on="0"/>
        <pt x="1247" y="1352" on="0"/>
        <pt x="1350" y="1286" on="1"/>
        <pt x="1178" y="926" on="1"/>
        <pt x="1057" y="992" on="0"/>
        <pt x="772" y="1094" on="0"/>
        <pt x="684" y="1094" on="1"/>
        <pt x="596" y="1094" on="0"/>
        <pt x="596" y="1034" on="1"/>
      </contour>
    </TTGlyph>
    <TTGlyph name="dotaccent" xMin="125" yMin="1206" xMax="592" yMax="1673">
      <contour>
        <pt x="461" y="1673" on="0"/>
        <pt x="592" y="1542" on="0"/>
        <pt x="592" y="1440" on="1"/>
        <pt x="592" y="1338" on="0"/>
        <pt x="461" y="1206" on="0"/>
        <pt x="358" y="1206" on="1"/>
        <pt x="256" y="1206" on="0"/>
        <pt x="125" y="1337" on="0"/>
        <pt x="125" y="1440" on="1"/>
        <pt x="125" y="1542" on="0"/>
        <pt x="256" y="1673" on="0"/>
        <pt x="358" y="1673" on="1"/>
      </contour>
    </TTGlyph>
    <TTGlyph name="dotlessi" xMin="113" yMin="0" xMax="573" yMax="1120">
      <contour>
        <pt x="113" y="0" on="1"/>
        <pt x="113" y="1120" on="1"/>
        <pt x="573" y="1120" on="1"/>
        <pt x="573" y="0" on="1"/>
      </contour>
    </TTGlyph>
    <TTGlyph name="dotlessj" xMin="-182" yMin="-416" xMax="584" yMax="1120">
      <contour>
        <pt x="584" y="-209" on="0"/>
        <pt x="346" y="-416" on="0"/>
        <pt x="145" y="-416" on="1"/>
        <pt x="-43" y="-416" on="0"/>
        <pt x="-182" y="-346" on="1"/>
        <pt x="-80" y="-31" on="1"/>
        <pt x="-19" y="-60" on="0"/>
        <pt x="33" y="-59" on="1"/>
        <pt x="76" y="-61" on="0"/>
        <pt x="123" y="-12" on="0"/>
        <pt x="123" y="35" on="1"/>
        <pt x="123" y="1120" on="1"/>
        <pt x="584" y="1120" on="1"/>
        <pt x="584" y="-35" on="1"/>
      </contour>
    </TTGlyph>
    <TTGlyph name="e" xMin="31" yMin="-16" xMax="1227" yMax="1137">
      <contour>
        <pt x="813" y="1137" on="0"/>
        <pt x="1083" y="985" on="0"/>
        <pt x="1227" y="705" on="0"/>
        <pt x="1227" y="516" on="1"/>
        <pt x="1227" y="477" on="0"/>
        <pt x="1225" y="457" on="1"/>
        <pt x="496" y="457" on="1"/>
        <pt x="519" y="391" on="0"/>
        <pt x="614" y="324" on="0"/>
        <pt x="682" y="324" on="1"/>
        <pt x="803" y="324" on="0"/>
        <pt x="909" y="424" on="1"/>
        <pt x="1149" y="188" on="1"/>
        <pt x="1059" y="88" on="0"/>
        <pt x="803" y="-16" on="0"/>
        <pt x="641" y="-16" on="1"/>
        <pt x="453" y="-16" on="0"/>
        <pt x="176" y="125" on="0"/>
        <pt x="31" y="383" on="0"/>
        <pt x="31" y="555" on="1"/>
        <pt x="31" y="731" on="0"/>
        <pt x="178" y="993" on="0"/>
        <pt x="451" y="1137" on="0"/>
        <pt x="629" y="1137" on="1"/>
      </contour>
      <contour>
        <pt x="768" y="739" on="0"/>
        <pt x="692" y="829" on="0"/>
        <pt x="633" y="829" on="1"/>
        <pt x="576" y="829" on="0"/>
        <pt x="500" y="743" on="0"/>
        <pt x="485" y="670" on="1"/>
        <pt x="764" y="670" on="1"/>
      </contour>
    </TTGlyph>
    <TTGlyph name="eacute" xMin="31" yMin="-16" xMax="1227" yMax="1597">
      <component glyphName="e" x="0" y="0" flags="0x1000"/>
      <component glyphName="acute" x="350" y="0" flags="0x1000"/>
    </TTGlyph>
    <TTGlyph name="ecaron" xMin="31" yMin="-16" xMax="1227" yMax="1575">
      <component glyphName="e" x="0" y="0" flags="0x1000"/>
      <component glyphName="caron" x="250" y="0" flags="0x1000"/>
    </TTGlyph>
    <TTGlyph name="ecircumflex" xMin="31" yMin="-16" xMax="1227" yMax="1575">
      <component glyphName="e" x="0" y="0" flags="0x1000"/>
      <component glyphName="circumflex" x="262" y="0" flags="0x1000"/>
    </TTGlyph>
    <TTGlyph name="edieresis" xMin="31" yMin="-16" xMax="1227" yMax="1618">
      <contour>
        <pt x="326" y="1243" on="0"/>
        <pt x="221" y="1348" on="0"/>
        <pt x="221" y="1430" on="1"/>
        <pt x="221" y="1514" on="0"/>
        <pt x="326" y="1618" on="0"/>
        <pt x="408" y="1618" on="1"/>
        <pt x="490" y="1618" on="0"/>
        <pt x="594" y="1513" on="0"/>
        <pt x="594" y="1430" on="1"/>
        <pt x="594" y="1348" on="0"/>
        <pt x="489" y="1243" on="0"/>
        <pt x="408" y="1243" on="1"/>
      </contour>
      <contour>
        <pt x="752" y="1243" on="0"/>
        <pt x="647" y="1348" on="0"/>
        <pt x="647" y="1430" on="1"/>
        <pt x="647" y="1514" on="0"/>
        <pt x="752" y="1618" on="0"/>
        <pt x="834" y="1618" on="1"/>
        <pt x="916" y="1618" on="0"/>
        <pt x="1020" y="1513" on="0"/>
        <pt x="1020" y="1430" on="1"/>
        <pt x="1020" y="1348" on="0"/>
        <pt x="915" y="1243" on="0"/>
        <pt x="834" y="1243" on="1"/>
      </contour>
      <contour>
        <pt x="813" y="1137" on="0"/>
        <pt x="1083" y="985" on="0"/>
        <pt x="1227" y="705" on="0"/>
        <pt x="1227" y="516" on="1"/>
        <pt x="1227" y="477" on="0"/>
        <pt x="1225" y="457" on="1"/>
        <pt x="496" y="457" on="1"/>
        <pt x="519" y="391" on="0"/>
        <pt x="614" y="324" on="0"/>
        <pt x="682" y="324" on="1"/>
        <pt x="803" y="324" on="0"/>
        <pt x="909" y="424" on="1"/>
        <pt x="1149" y="188" on="1"/>
        <pt x="1059" y="88" on="0"/>
        <pt x="803" y="-16" on="0"/>
        <pt x="641" y="-16" on="1"/>
        <pt x="453" y="-16" on="0"/>
        <pt x="176" y="125" on="0"/>
        <pt x="31" y="383" on="0"/>
        <pt x="31" y="555" on="1"/>
        <pt x="31" y="731" on="0"/>
        <pt x="178" y="993" on="0"/>
        <pt x="451" y="1137" on="0"/>
        <pt x="629" y="1137" on="1"/>
      </contour>
      <contour>
        <pt x="768" y="739" on="0"/>
        <pt x="692" y="829" on="0"/>
        <pt x="633" y="829" on="1"/>
        <pt x="576" y="829" on="0"/>
        <pt x="500" y="743" on="0"/>
        <pt x="485" y="670" on="1"/>
        <pt x="764" y="670" on="1"/>
      </contour>
    </TTGlyph>
    <TTGlyph name="edotaccent" xMin="31" yMin="-16" xMax="1227" yMax="1673">
      <component glyphName="e" x="0" y="0" flags="0x1000"/>
      <component glyphName="dotaccent" x="262" y="0" flags="0x1000"/>
    </TTGlyph>
    <TTGlyph name="egrave" xMin="31" yMin="-16" xMax="1227" yMax="1597">
      <component glyphName="e" x="0" y="0" flags="0x1000"/>
      <component glyphName="grave" x="186" y="0" flags="0x1000"/>
    </TTGlyph>
    <TTGlyph name="eight" xMin="51" yMin="-20" xMax="1292" yMax="1456">
      <contour>
        <pt x="834" y="1456" on="0"/>
        <pt x="1081" y="1358" on="0"/>
        <pt x="1214" y="1176" on="0"/>
        <pt x="1214" y="1055" on="1"/>
        <pt x="1214" y="973" on="0"/>
        <pt x="1133" y="817" on="0"/>
        <pt x="1063" y="768" on="1"/>
        <pt x="1167" y="715" on="0"/>
        <pt x="1292" y="520" on="0"/>
        <pt x="1292" y="408" on="1"/>
        <pt x="1292" y="279" on="0"/>
        <pt x="1139" y="84" on="0"/>
        <pt x="858" y="-20" on="0"/>
        <pt x="672" y="-20" on="1"/>
        <pt x="486" y="-20" on="0"/>
        <pt x="205" y="84" on="0"/>
        <pt x="51" y="274" on="0"/>
        <pt x="51" y="399" on="1"/>
        <pt x="51" y="514" on="0"/>
        <pt x="190" y="715" on="0"/>
        <pt x="305" y="768" on="1"/>
        <pt x="225" y="823" on="0"/>
        <pt x="129" y="987" on="0"/>
        <pt x="129" y="1069" on="1"/>
        <pt x="129" y="1186" on="0"/>
        <pt x="262" y="1360" on="0"/>
        <pt x="508" y="1456" on="0"/>
        <pt x="670" y="1456" on="1"/>
      </contour>
      <contour>
        <pt x="526" y="1147" on="0"/>
        <pt x="526" y="1030" on="1"/>
        <pt x="526" y="919" on="0"/>
        <pt x="672" y="920" on="1"/>
        <pt x="817" y="920" on="0"/>
        <pt x="817" y="1030" on="1"/>
        <pt x="817" y="1147" on="0"/>
        <pt x="672" y="1147" on="1"/>
      </contour>
      <contour>
        <pt x="500" y="582" on="0"/>
        <pt x="500" y="449" on="1"/>
        <pt x="500" y="320" on="0"/>
        <pt x="672" y="319" on="1"/>
        <pt x="846" y="319" on="0"/>
        <pt x="846" y="449" on="1"/>
        <pt x="846" y="582" on="0"/>
        <pt x="672" y="582" on="1"/>
      </contour>
    </TTGlyph>
    <TTGlyph name="eight.dnom" xMin="37" yMin="-14" xMax="831" yMax="874">
      <contour>
        <pt x="592" y="874" on="0"/>
        <pt x="782" y="741" on="0"/>
        <pt x="782" y="631" on="1"/>
        <pt x="782" y="586" on="0"/>
        <pt x="733" y="492" on="0"/>
        <pt x="692" y="461" on="1"/>
        <pt x="755" y="428" on="0"/>
        <pt x="831" y="311" on="0"/>
        <pt x="831" y="246" on="1"/>
        <pt x="831" y="127" on="0"/>
        <pt x="614" y="-14" on="0"/>
        <pt x="434" y="-14" on="1"/>
        <pt x="254" y="-14" on="0"/>
        <pt x="37" y="125" on="0"/>
        <pt x="37" y="240" on="1"/>
        <pt x="37" y="308" on="0"/>
        <pt x="123" y="428" on="0"/>
        <pt x="193" y="461" on="1"/>
        <pt x="146" y="496" on="0"/>
        <pt x="86" y="594" on="0"/>
        <pt x="86" y="641" on="1"/>
        <pt x="86" y="747" on="0"/>
        <pt x="274" y="874" on="0"/>
        <pt x="432" y="874" on="1"/>
      </contour>
      <contour>
        <pt x="354" y="675" on="0"/>
        <pt x="354" y="614" on="1"/>
        <pt x="354" y="559" on="0"/>
        <pt x="434" y="559" on="1"/>
        <pt x="514" y="559" on="0"/>
        <pt x="514" y="614" on="1"/>
        <pt x="514" y="675" on="0"/>
        <pt x="434" y="676" on="1"/>
      </contour>
      <contour>
        <pt x="340" y="340" on="0"/>
        <pt x="340" y="272" on="1"/>
        <pt x="340" y="206" on="0"/>
        <pt x="434" y="207" on="1"/>
        <pt x="530" y="207" on="0"/>
        <pt x="530" y="272" on="1"/>
        <pt x="530" y="340" on="0"/>
        <pt x="434" y="340" on="1"/>
      </contour>
    </TTGlyph>
    <TTGlyph name="eight.numr" xMin="37" yMin="559" xMax="831" yMax="1448">
      <contour>
        <pt x="592" y="1448" on="0"/>
        <pt x="782" y="1315" on="0"/>
        <pt x="782" y="1204" on="1"/>
        <pt x="782" y="1159" on="0"/>
        <pt x="733" y="1065" on="0"/>
        <pt x="692" y="1034" on="1"/>
        <pt x="755" y="1001" on="0"/>
        <pt x="831" y="885" on="0"/>
        <pt x="831" y="819" on="1"/>
        <pt x="831" y="700" on="0"/>
        <pt x="614" y="559" on="0"/>
        <pt x="434" y="559" on="1"/>
        <pt x="254" y="559" on="0"/>
        <pt x="37" y="698" on="0"/>
        <pt x="37" y="813" on="1"/>
        <pt x="37" y="881" on="0"/>
        <pt x="123" y="1001" on="0"/>
        <pt x="193" y="1034" on="1"/>
        <pt x="146" y="1069" on="0"/>
        <pt x="86" y="1167" on="0"/>
        <pt x="86" y="1214" on="1"/>
        <pt x="86" y="1320" on="0"/>
        <pt x="274" y="1448" on="0"/>
        <pt x="432" y="1448" on="1"/>
      </contour>
      <contour>
        <pt x="354" y="1249" on="0"/>
        <pt x="354" y="1188" on="1"/>
        <pt x="354" y="1133" on="0"/>
        <pt x="434" y="1133" on="1"/>
        <pt x="514" y="1133" on="0"/>
        <pt x="514" y="1188" on="1"/>
        <pt x="514" y="1249" on="0"/>
        <pt x="434" y="1249" on="1"/>
      </contour>
      <contour>
        <pt x="340" y="914" on="0"/>
        <pt x="340" y="846" on="1"/>
        <pt x="340" y="780" on="0"/>
        <pt x="434" y="780" on="1"/>
        <pt x="530" y="780" on="0"/>
        <pt x="530" y="846" on="1"/>
        <pt x="530" y="914" on="0"/>
        <pt x="434" y="913" on="1"/>
      </contour>
    </TTGlyph>
    <TTGlyph name="ellipsis" xMin="61" yMin="-16" xMax="1464" yMax="403">
      <component glyphName="period" x="0" y="0" flags="0x1000"/>
      <component glyphName="period" x="492" y="0" flags="0x1000"/>
      <component glyphName="period" x="983" y="0" flags="0x1000"/>
    </TTGlyph>
    <TTGlyph name="emacron" xMin="31" yMin="-16" xMax="1227" yMax="1581">
      <component glyphName="e" x="0" y="0" flags="0x1000"/>
      <component glyphName="macron" x="262" y="0" flags="0x1000"/>
    </TTGlyph>
    <TTGlyph name="emdash" xMin="0" yMin="428" xMax="1249" yMax="715">
      <contour>
        <pt x="0" y="428" on="1"/>
        <pt x="0" y="715" on="1"/>
        <pt x="1249" y="715" on="1"/>
        <pt x="1249" y="428" on="1"/>
      </contour>
    </TTGlyph>
    <TTGlyph name="endash" xMin="0" yMin="428" xMax="840" yMax="715">
      <contour>
        <pt x="0" y="428" on="1"/>
        <pt x="0" y="715" on="1"/>
        <pt x="840" y="715" on="1"/>
        <pt x="840" y="428" on="1"/>
      </contour>
    </TTGlyph>
    <TTGlyph name="eogonek" xMin="31" yMin="-418" xMax="1227" yMax="1137">
      <contour>
        <pt x="813" y="1137" on="0"/>
        <pt x="1083" y="985" on="0"/>
        <pt x="1227" y="705" on="0"/>
        <pt x="1227" y="516" on="1"/>
        <pt x="1227" y="477" on="0"/>
        <pt x="1225" y="457" on="1"/>
        <pt x="496" y="457" on="1"/>
        <pt x="521" y="391" on="0"/>
        <pt x="616" y="324" on="0"/>
        <pt x="682" y="324" on="1"/>
        <pt x="803" y="324" on="0"/>
        <pt x="909" y="424" on="1"/>
        <pt x="1149" y="188" on="1"/>
        <pt x="1055" y="86" on="0"/>
        <pt x="915" y="-100" on="0"/>
        <pt x="915" y="-162" on="1"/>
        <pt x="915" y="-193" on="0"/>
        <pt x="944" y="-193" on="1"/>
        <pt x="983" y="-193" on="0"/>
        <pt x="1018" y="-131" on="1"/>
        <pt x="1130" y="-262" on="1"/>
        <pt x="1087" y="-340" on="0"/>
        <pt x="963" y="-418" on="0"/>
        <pt x="887" y="-418" on="1"/>
        <pt x="809" y="-418" on="0"/>
        <pt x="690" y="-334" on="0"/>
        <pt x="690" y="-238" on="1"/>
        <pt x="690" y="-125" on="0"/>
        <pt x="788" y="10" on="1"/>
        <pt x="712" y="-17" on="0"/>
        <pt x="641" y="-16" on="1"/>
        <pt x="453" y="-16" on="0"/>
        <pt x="176" y="125" on="0"/>
        <pt x="31" y="383" on="0"/>
        <pt x="31" y="555" on="1"/>
        <pt x="31" y="731" on="0"/>
        <pt x="178" y="993" on="0"/>
        <pt x="451" y="1137" on="0"/>
        <pt x="629" y="1137" on="1"/>
      </contour>
      <contour>
        <pt x="575" y="829" on="0"/>
        <pt x="500" y="743" on="0"/>
        <pt x="485" y="670" on="1"/>
        <pt x="764" y="670" on="1"/>
        <pt x="768" y="740" on="0"/>
        <pt x="692" y="829" on="0"/>
        <pt x="633" y="829" on="1"/>
      </contour>
    </TTGlyph>
    <TTGlyph name="equal" xMin="61" yMin="305" xMax="1004" yMax="1042">
      <contour>
        <pt x="61" y="756" on="1"/>
        <pt x="61" y="1042" on="1"/>
        <pt x="1004" y="1042" on="1"/>
        <pt x="1004" y="756" on="1"/>
      </contour>
      <contour>
        <pt x="61" y="305" on="1"/>
        <pt x="61" y="592" on="1"/>
        <pt x="1004" y="592" on="1"/>
        <pt x="1004" y="305" on="1"/>
      </contour>
    </TTGlyph>
    <TTGlyph name="estimated" xMin="143" yMin="37" xMax="1516" yMax="1272">
      <contour>
        <pt x="393" y="639" on="0"/>
        <pt x="393" y="631" on="1"/>
        <pt x="393" y="295" on="1"/>
        <pt x="393" y="277" on="0"/>
        <pt x="410" y="256" on="1"/>
        <pt x="490" y="170" on="0"/>
        <pt x="709" y="74" on="0"/>
        <pt x="831" y="74" on="1"/>
        <pt x="960" y="74" on="0"/>
        <pt x="1192" y="182" on="0"/>
        <pt x="1272" y="276" on="1"/>
        <pt x="1372" y="276" on="1"/>
        <pt x="1278" y="165" on="0"/>
        <pt x="991" y="37" on="0"/>
        <pt x="829" y="37" on="1"/>
        <pt x="643" y="37" on="0"/>
        <pt x="328" y="203" on="0"/>
        <pt x="143" y="485" on="0"/>
        <pt x="143" y="653" on="1"/>
        <pt x="143" y="821" on="0"/>
        <pt x="328" y="1106" on="0"/>
        <pt x="643" y="1272" on="0"/>
        <pt x="829" y="1272" on="1"/>
        <pt x="1015" y="1272" on="0"/>
        <pt x="1331" y="1106" on="0"/>
        <pt x="1516" y="821" on="0"/>
        <pt x="1516" y="653" on="1"/>
        <pt x="1516" y="639" on="1"/>
        <pt x="403" y="639" on="1"/>
      </contour>
      <contour>
        <pt x="1265" y="1043" on="0"/>
        <pt x="1247" y="1061" on="1"/>
        <pt x="1165" y="1143" on="0"/>
        <pt x="950" y="1235" on="0"/>
        <pt x="831" y="1235" on="1"/>
        <pt x="710" y="1235" on="0"/>
        <pt x="494" y="1139" on="0"/>
        <pt x="412" y="1055" on="1"/>
        <pt x="394" y="1037" on="0"/>
        <pt x="393" y="1014" on="1"/>
        <pt x="393" y="682" on="1"/>
        <pt x="393" y="672" on="0"/>
        <pt x="403" y="672" on="1"/>
        <pt x="1255" y="672" on="1"/>
        <pt x="1265" y="672" on="0"/>
        <pt x="1266" y="682" on="1"/>
        <pt x="1266" y="1020" on="1"/>
      </contour>
    </TTGlyph>
    <TTGlyph name="eth" xMin="18" yMin="-20" xMax="1233" yMax="1540">
      <contour>
        <pt x="1120" y="1065" on="0"/>
        <pt x="1233" y="776" on="0"/>
        <pt x="1233" y="621" on="1"/>
        <pt x="1233" y="428" on="0"/>
        <pt x="1073" y="137" on="0"/>
        <pt x="778" y="-20" on="0"/>
        <pt x="582" y="-20" on="1"/>
        <pt x="412" y="-20" on="0"/>
        <pt x="158" y="98" on="0"/>
        <pt x="18" y="319" on="0"/>
        <pt x="18" y="465" on="1"/>
        <pt x="18" y="600" on="0"/>
        <pt x="133" y="805" on="0"/>
        <pt x="344" y="918" on="0"/>
        <pt x="483" y="918" on="1"/>
        <pt x="569" y="918" on="0"/>
        <pt x="731" y="874" on="0"/>
        <pt x="780" y="838" on="1"/>
        <pt x="737" y="949" on="0"/>
        <pt x="629" y="1057" on="1"/>
        <pt x="270" y="934" on="1"/>
        <pt x="201" y="1139" on="1"/>
        <pt x="432" y="1219" on="1"/>
        <pt x="311" y="1299" on="0"/>
        <pt x="172" y="1358" on="1"/>
        <pt x="481" y="1540" on="1"/>
        <pt x="680" y="1472" on="0"/>
        <pt x="836" y="1358" on="1"/>
        <pt x="1143" y="1464" on="1"/>
        <pt x="1212" y="1257" on="1"/>
        <pt x="1016" y="1190" on="1"/>
      </contour>
      <contour>
        <pt x="662" y="356" on="0"/>
        <pt x="739" y="426" on="0"/>
        <pt x="739" y="485" on="1"/>
        <pt x="739" y="544" on="0"/>
        <pt x="662" y="614" on="0"/>
        <pt x="596" y="614" on="1"/>
        <pt x="533" y="614" on="0"/>
        <pt x="459" y="545" on="0"/>
        <pt x="459" y="487" on="1"/>
        <pt x="459" y="428" on="0"/>
        <pt x="535" y="356" on="0"/>
        <pt x="598" y="356" on="1"/>
      </contour>
    </TTGlyph>
    <TTGlyph name="exclam" xMin="82" yMin="-16" xMax="520" yMax="1436">
      <contour>
        <pt x="438" y="528" on="1"/>
        <pt x="164" y="528" on="1"/>
        <pt x="82" y="1059" on="1"/>
        <pt x="82" y="1436" on="1"/>
        <pt x="520" y="1436" on="1"/>
        <pt x="520" y="1059" on="1"/>
      </contour>
      <contour>
        <pt x="385" y="403" on="0"/>
        <pt x="502" y="287" on="0"/>
        <pt x="502" y="195" on="1"/>
        <pt x="502" y="101" on="0"/>
        <pt x="385" y="-16" on="0"/>
        <pt x="291" y="-16" on="1"/>
        <pt x="199" y="-16" on="0"/>
        <pt x="82" y="100" on="0"/>
        <pt x="82" y="195" on="1"/>
        <pt x="82" y="287" on="0"/>
        <pt x="199" y="403" on="0"/>
        <pt x="291" y="403" on="1"/>
      </contour>
    </TTGlyph>
    <TTGlyph name="exclamdown" xMin="82" yMin="-318" xMax="520" yMax="1134">
      <component glyphName="exclam" x="602" y="1118" scale="-1.0" flags="0x1000"/>
    </TTGlyph>
    <TTGlyph name="f" xMin="41" yMin="0" xMax="1026" yMax="1540">
      <contour>
        <pt x="709" y="1184" on="0"/>
        <pt x="653" y="1133" on="0"/>
        <pt x="653" y="1090" on="1"/>
        <pt x="653" y="1059" on="1"/>
        <pt x="870" y="1059" on="1"/>
        <pt x="870" y="768" on="1"/>
        <pt x="653" y="768" on="1"/>
        <pt x="653" y="0" on="1"/>
        <pt x="195" y="0" on="1"/>
        <pt x="195" y="768" on="1"/>
        <pt x="41" y="768" on="1"/>
        <pt x="41" y="1059" on="1"/>
        <pt x="195" y="1059" on="1"/>
        <pt x="195" y="1159" on="1"/>
        <pt x="195" y="1333" on="0"/>
        <pt x="444" y="1540" on="0"/>
        <pt x="653" y="1540" on="1"/>
        <pt x="751" y="1540" on="0"/>
        <pt x="954" y="1497" on="0"/>
        <pt x="1026" y="1460" on="1"/>
        <pt x="872" y="1145" on="1"/>
        <pt x="845" y="1163" on="0"/>
        <pt x="782" y="1184" on="0"/>
        <pt x="754" y="1184" on="1"/>
      </contour>
    </TTGlyph>
    <TTGlyph name="fi" xMin="41" yMin="0" xMax="1450" yMax="1673">
      <contour>
        <pt x="1114" y="1206" on="0"/>
        <pt x="983" y="1337" on="0"/>
        <pt x="983" y="1440" on="1"/>
        <pt x="983" y="1542" on="0"/>
        <pt x="1114" y="1673" on="0"/>
        <pt x="1217" y="1673" on="1"/>
        <pt x="1319" y="1673" on="0"/>
        <pt x="1450" y="1542" on="0"/>
        <pt x="1450" y="1440" on="1"/>
        <pt x="1450" y="1338" on="0"/>
        <pt x="1319" y="1206" on="0"/>
        <pt x="1217" y="1206" on="1"/>
      </contour>
      <contour>
        <pt x="195" y="1333" on="0"/>
        <pt x="444" y="1540" on="0"/>
        <pt x="653" y="1540" on="1"/>
        <pt x="714" y="1540" on="0"/>
        <pt x="844" y="1522" on="0"/>
        <pt x="887" y="1507" on="1"/>
        <pt x="872" y="1145" on="1"/>
        <pt x="845" y="1163" on="0"/>
        <pt x="782" y="1184" on="0"/>
        <pt x="754" y="1184" on="1"/>
        <pt x="709" y="1184" on="0"/>
        <pt x="653" y="1133" on="0"/>
        <pt x="653" y="1090" on="1"/>
        <pt x="653" y="1079" on="1"/>
        <pt x="870" y="1079" on="1"/>
        <pt x="870" y="788" on="1"/>
        <pt x="653" y="788" on="1"/>
        <pt x="653" y="0" on="1"/>
        <pt x="195" y="0" on="1"/>
        <pt x="195" y="788" on="1"/>
        <pt x="41" y="788" on="1"/>
        <pt x="41" y="1079" on="1"/>
        <pt x="195" y="1079" on="1"/>
        <pt x="195" y="1159" on="1"/>
      </contour>
      <contour>
        <pt x="1446" y="1120" on="1"/>
        <pt x="1446" y="0" on="1"/>
        <pt x="985" y="0" on="1"/>
        <pt x="985" y="1120" on="1"/>
      </contour>
    </TTGlyph>
    <TTGlyph name="firsttonechinese" xMin="51" yMin="1278" xMax="666" yMax="1581">
      <component glyphName="macron" x="0" y="0" flags="0x1000"/>
    </TTGlyph>
    <TTGlyph name="five" xMin="6" yMin="-20" xMax="1206" yMax="1436">
      <contour>
        <pt x="571" y="1071" on="1"/>
        <pt x="571" y="920" on="1"/>
        <pt x="635" y="920" on="1"/>
        <pt x="807" y="920" on="0"/>
        <pt x="1065" y="813" on="0"/>
        <pt x="1206" y="618" on="0"/>
        <pt x="1206" y="489" on="1"/>
        <pt x="1206" y="335" on="0"/>
        <pt x="1057" y="104" on="0"/>
        <pt x="780" y="-20" on="0"/>
        <pt x="598" y="-20" on="1"/>
        <pt x="446" y="-20" on="0"/>
        <pt x="125" y="84" on="0"/>
        <pt x="6" y="170" on="1"/>
        <pt x="195" y="530" on="1"/>
        <pt x="349" y="329" on="0"/>
        <pt x="541" y="330" on="1"/>
        <pt x="695" y="330" on="0"/>
        <pt x="694" y="457" on="1"/>
        <pt x="694" y="574" on="0"/>
        <pt x="541" y="573" on="1"/>
        <pt x="137" y="573" on="1"/>
        <pt x="137" y="1436" on="1"/>
        <pt x="1139" y="1436" on="1"/>
        <pt x="1139" y="1071" on="1"/>
      </contour>
    </TTGlyph>
    <TTGlyph name="five.dnom" xMin="8" yMin="-14" xMax="778" yMax="862">
      <contour>
        <pt x="580" y="555" on="0"/>
        <pt x="778" y="414" on="0"/>
        <pt x="778" y="295" on="1"/>
        <pt x="778" y="156" on="0"/>
        <pt x="565" y="-14" on="0"/>
        <pt x="389" y="-14" on="1"/>
        <pt x="291" y="-14" on="0"/>
        <pt x="84" y="49" on="0"/>
        <pt x="8" y="102" on="1"/>
        <pt x="133" y="334" on="1"/>
        <pt x="92" y="336" on="1"/>
        <pt x="92" y="862" on="1"/>
        <pt x="735" y="862" on="1"/>
        <pt x="735" y="627" on="1"/>
        <pt x="385" y="627" on="1"/>
        <pt x="385" y="559" on="1"/>
        <pt x="389" y="557" on="0"/>
        <pt x="410" y="555" on="0"/>
        <pt x="414" y="555" on="1"/>
      </contour>
      <contour>
        <pt x="432" y="213" on="0"/>
        <pt x="432" y="274" on="1"/>
        <pt x="432" y="331" on="0"/>
        <pt x="348" y="332" on="1"/>
        <pt x="137" y="334" on="1"/>
        <pt x="231" y="213" on="0"/>
        <pt x="350" y="213" on="1"/>
      </contour>
    </TTGlyph>
    <TTGlyph name="five.numr" xMin="8" yMin="559" xMax="778" yMax="1436">
      <contour>
        <pt x="580" y="1128" on="0"/>
        <pt x="778" y="987" on="0"/>
        <pt x="778" y="868" on="1"/>
        <pt x="778" y="729" on="0"/>
        <pt x="565" y="559" on="0"/>
        <pt x="389" y="559" on="1"/>
        <pt x="291" y="559" on="0"/>
        <pt x="84" y="623" on="0"/>
        <pt x="8" y="676" on="1"/>
        <pt x="133" y="907" on="1"/>
        <pt x="92" y="909" on="1"/>
        <pt x="92" y="1436" on="1"/>
        <pt x="735" y="1436" on="1"/>
        <pt x="735" y="1200" on="1"/>
        <pt x="385" y="1200" on="1"/>
        <pt x="385" y="1133" on="1"/>
        <pt x="389" y="1131" on="0"/>
        <pt x="410" y="1128" on="0"/>
        <pt x="414" y="1128" on="1"/>
      </contour>
      <contour>
        <pt x="432" y="787" on="0"/>
        <pt x="432" y="848" on="1"/>
        <pt x="432" y="905" on="0"/>
        <pt x="348" y="905" on="1"/>
        <pt x="137" y="907" on="1"/>
        <pt x="231" y="786" on="0"/>
        <pt x="350" y="786" on="1"/>
      </contour>
    </TTGlyph>
    <TTGlyph name="fiveeighths" xMin="8" yMin="-14" xMax="2052" yMax="1436">
      <component glyphName="five.numr" x="0" y="0" flags="0x1000"/>
      <component glyphName="fraction" x="872" y="0" flags="0x1000"/>
      <component glyphName="eight.dnom" x="1221" y="0" flags="0x1000"/>
    </TTGlyph>
    <TTGlyph name="fl" xMin="41" yMin="0" xMax="1456" yMax="1540">
      <contour>
        <pt x="195" y="1333" on="0"/>
        <pt x="444" y="1540" on="0"/>
        <pt x="653" y="1540" on="1"/>
        <pt x="714" y="1540" on="0"/>
        <pt x="844" y="1522" on="0"/>
        <pt x="887" y="1507" on="1"/>
        <pt x="872" y="1145" on="1"/>
        <pt x="845" y="1163" on="0"/>
        <pt x="782" y="1184" on="0"/>
        <pt x="754" y="1184" on="1"/>
        <pt x="709" y="1184" on="0"/>
        <pt x="653" y="1133" on="0"/>
        <pt x="653" y="1090" on="1"/>
        <pt x="653" y="1079" on="1"/>
        <pt x="870" y="1079" on="1"/>
        <pt x="870" y="788" on="1"/>
        <pt x="653" y="788" on="1"/>
        <pt x="653" y="0" on="1"/>
        <pt x="195" y="0" on="1"/>
        <pt x="195" y="788" on="1"/>
        <pt x="41" y="788" on="1"/>
        <pt x="41" y="1079" on="1"/>
        <pt x="195" y="1079" on="1"/>
        <pt x="195" y="1159" on="1"/>
      </contour>
      <contour>
        <pt x="1456" y="0" on="1"/>
        <pt x="995" y="0" on="1"/>
        <pt x="995" y="1520" on="1"/>
        <pt x="1456" y="1520" on="1"/>
      </contour>
    </TTGlyph>
    <TTGlyph name="florin" xMin="-219" yMin="-418" xMax="1063" yMax="1540">
      <contour>
        <pt x="752" y="1184" on="0"/>
        <pt x="690" y="1133" on="0"/>
        <pt x="684" y="1090" on="1"/>
        <pt x="668" y="956" on="1"/>
        <pt x="885" y="956" on="1"/>
        <pt x="850" y="666" on="1"/>
        <pt x="633" y="666" on="1"/>
        <pt x="547" y="-37" on="1"/>
        <pt x="524" y="-211" on="0"/>
        <pt x="260" y="-418" on="0"/>
        <pt x="61" y="-418" on="1"/>
        <pt x="-15" y="-418" on="0"/>
        <pt x="-170" y="-375" on="0"/>
        <pt x="-219" y="-338" on="1"/>
        <pt x="-109" y="-23" on="1"/>
        <pt x="-86" y="-41" on="0"/>
        <pt x="-27" y="-61" on="0"/>
        <pt x="-2" y="-61" on="1"/>
        <pt x="37" y="-63" on="0"/>
        <pt x="90" y="-12" on="0"/>
        <pt x="96" y="33" on="1"/>
        <pt x="174" y="666" on="1"/>
        <pt x="20" y="666" on="1"/>
        <pt x="55" y="956" on="1"/>
        <pt x="211" y="956" on="1"/>
        <pt x="236" y="1159" on="1"/>
        <pt x="256" y="1333" on="0"/>
        <pt x="520" y="1540" on="0"/>
        <pt x="719" y="1540" on="1"/>
        <pt x="813" y="1540" on="0"/>
        <pt x="1001" y="1497" on="0"/>
        <pt x="1063" y="1460" on="1"/>
        <pt x="911" y="1145" on="1"/>
        <pt x="886" y="1163" on="0"/>
        <pt x="825" y="1184" on="0"/>
        <pt x="797" y="1184" on="1"/>
      </contour>
    </TTGlyph>
    <TTGlyph name="four" xMin="51" yMin="0" xMax="1350" yMax="1436">
      <contour>
        <pt x="727" y="616" on="1"/>
        <pt x="727" y="891" on="1"/>
        <pt x="1167" y="891" on="1"/>
        <pt x="1167" y="616" on="1"/>
        <pt x="1350" y="616" on="1"/>
        <pt x="1350" y="276" on="1"/>
        <pt x="1167" y="276" on="1"/>
        <pt x="1167" y="0" on="1"/>
        <pt x="727" y="0" on="1"/>
        <pt x="727" y="276" on="1"/>
        <pt x="51" y="276" on="1"/>
        <pt x="51" y="588" on="1"/>
        <pt x="471" y="1436" on="1"/>
        <pt x="924" y="1436" on="1"/>
        <pt x="532" y="616" on="1"/>
      </contour>
    </TTGlyph>
    <TTGlyph name="four.dnom" xMin="39" yMin="0" xMax="874" yMax="862">
      <contour>
        <pt x="465" y="532" on="1"/>
        <pt x="762" y="532" on="1"/>
        <pt x="762" y="377" on="1"/>
        <pt x="874" y="377" on="1"/>
        <pt x="874" y="158" on="1"/>
        <pt x="762" y="158" on="1"/>
        <pt x="762" y="0" on="1"/>
        <pt x="465" y="0" on="1"/>
        <pt x="465" y="158" on="1"/>
        <pt x="39" y="158" on="1"/>
        <pt x="39" y="358" on="1"/>
        <pt x="297" y="862" on="1"/>
        <pt x="602" y="862" on="1"/>
        <pt x="365" y="377" on="1"/>
        <pt x="465" y="377" on="1"/>
      </contour>
    </TTGlyph>
    <TTGlyph name="four.numr" xMin="39" yMin="573" xMax="874" yMax="1436">
      <contour>
        <pt x="465" y="1106" on="1"/>
        <pt x="762" y="1106" on="1"/>
        <pt x="762" y="950" on="1"/>
        <pt x="874" y="950" on="1"/>
        <pt x="874" y="731" on="1"/>
        <pt x="762" y="731" on="1"/>
        <pt x="762" y="573" on="1"/>
        <pt x="465" y="573" on="1"/>
        <pt x="465" y="731" on="1"/>
        <pt x="39" y="731" on="1"/>
        <pt x="39" y="932" on="1"/>
        <pt x="297" y="1436" on="1"/>
        <pt x="602" y="1436" on="1"/>
        <pt x="365" y="950" on="1"/>
        <pt x="465" y="950" on="1"/>
      </contour>
    </TTGlyph>
    <TTGlyph name="fraction" xMin="-559" yMin="0" xMax="866" yMax="1436">
      <contour>
        <pt x="438" y="1436" on="1"/>
        <pt x="866" y="1436" on="1"/>
        <pt x="-131" y="0" on="1"/>
        <pt x="-559" y="0" on="1"/>
      </contour>
    </TTGlyph>
    <TTGlyph name="g" xMin="31" yMin="-418" xMax="1231" yMax="1137">
      <contour>
        <pt x="1231" y="92" on="1"/>
        <pt x="1231" y="-62" on="0"/>
        <pt x="1073" y="-293" on="0"/>
        <pt x="788" y="-418" on="0"/>
        <pt x="604" y="-418" on="1"/>
        <pt x="450" y="-418" on="0"/>
        <pt x="170" y="-336" on="0"/>
        <pt x="76" y="-272" on="1"/>
        <pt x="221" y="37" on="1"/>
        <pt x="293" y="-8" on="0"/>
        <pt x="481" y="-61" on="0"/>
        <pt x="563" y="-61" on="1"/>
        <pt x="663" y="-61" on="0"/>
        <pt x="772" y="14" on="0"/>
        <pt x="772" y="80" on="1"/>
        <pt x="772" y="186" on="1"/>
        <pt x="666" y="67" on="0"/>
        <pt x="492" y="68" on="1"/>
        <pt x="361" y="68" on="0"/>
        <pt x="150" y="201" on="0"/>
        <pt x="31" y="446" on="0"/>
        <pt x="31" y="608" on="1"/>
        <pt x="31" y="766" on="0"/>
        <pt x="145" y="1006" on="0"/>
        <pt x="352" y="1137" on="0"/>
        <pt x="483" y="1137" on="1"/>
        <pt x="663" y="1137" on="0"/>
        <pt x="772" y="1016" on="1"/>
        <pt x="772" y="1120" on="1"/>
        <pt x="1231" y="1120" on="1"/>
      </contour>
      <contour>
        <pt x="686" y="395" on="0"/>
        <pt x="772" y="506" on="0"/>
        <pt x="772" y="596" on="1"/>
        <pt x="772" y="688" on="0"/>
        <pt x="688" y="799" on="0"/>
        <pt x="616" y="799" on="1"/>
        <pt x="544" y="799" on="0"/>
        <pt x="461" y="688" on="0"/>
        <pt x="461" y="596" on="1"/>
        <pt x="461" y="506" on="0"/>
        <pt x="547" y="395" on="0"/>
        <pt x="616" y="395" on="1"/>
      </contour>
    </TTGlyph>
    <TTGlyph name="gbreve" xMin="31" yMin="-418" xMax="1231" yMax="1575">
      <component glyphName="g" x="0" y="0" flags="0x1000"/>
      <component glyphName="breve" x="311" y="0" flags="0x1000"/>
    </TTGlyph>
    <TTGlyph name="gcommaaccent" xMin="31" yMin="-418" xMax="1231" yMax="1816">
      <component glyphName="g" x="0" y="0" flags="0x1000"/>
      <component glyphName="uni0326" x="930" y="1120" scale="-1.0" flags="0x1000"/>
    </TTGlyph>
    <TTGlyph name="germandbls" xMin="82" yMin="0" xMax="1331" yMax="1540">
      <contour>
        <pt x="840" y="1540" on="0"/>
        <pt x="1100" y="1436" on="0"/>
        <pt x="1241" y="1245" on="0"/>
        <pt x="1241" y="1120" on="1"/>
        <pt x="1241" y="1026" on="0"/>
        <pt x="1153" y="846" on="0"/>
        <pt x="1081" y="788" on="1"/>
        <pt x="1196" y="747" on="0"/>
        <pt x="1331" y="561" on="0"/>
        <pt x="1331" y="444" on="1"/>
        <pt x="1331" y="311" on="0"/>
        <pt x="1184" y="109" on="0"/>
        <pt x="915" y="0" on="0"/>
        <pt x="735" y="0" on="1"/>
        <pt x="639" y="0" on="1"/>
        <pt x="639" y="324" on="1"/>
        <pt x="686" y="324" on="1"/>
        <pt x="788" y="324" on="0"/>
        <pt x="885" y="387" on="0"/>
        <pt x="885" y="457" on="1"/>
        <pt x="885" y="523" on="0"/>
        <pt x="788" y="582" on="0"/>
        <pt x="686" y="582" on="1"/>
        <pt x="639" y="582" on="1"/>
        <pt x="639" y="903" on="1"/>
        <pt x="721" y="903" on="0"/>
        <pt x="795" y="973" on="0"/>
        <pt x="795" y="1051" on="1"/>
        <pt x="795" y="1129" on="0"/>
        <pt x="737" y="1198" on="0"/>
        <pt x="674" y="1198" on="1"/>
        <pt x="606" y="1198" on="0"/>
        <pt x="543" y="1126" on="0"/>
        <pt x="543" y="1051" on="1"/>
        <pt x="543" y="0" on="1"/>
        <pt x="82" y="0" on="1"/>
        <pt x="82" y="1016" on="1"/>
        <pt x="82" y="1174" on="0"/>
        <pt x="225" y="1411" on="0"/>
        <pt x="489" y="1540" on="0"/>
        <pt x="666" y="1540" on="1"/>
      </contour>
    </TTGlyph>
    <TTGlyph name="grave" xMin="55" yMin="1210" xMax="664" yMax="1597">
      <contour>
        <pt x="336" y="1210" on="1"/>
        <pt x="55" y="1475" on="1"/>
        <pt x="444" y="1597" on="1"/>
        <pt x="664" y="1210" on="1"/>
      </contour>
    </TTGlyph>
    <TTGlyph name="greater" xMin="61" yMin="121" xMax="1004" yMax="1243">
      <contour>
        <pt x="709" y="682" on="1"/>
        <pt x="61" y="924" on="1"/>
        <pt x="61" y="1243" on="1"/>
        <pt x="1004" y="864" on="1"/>
        <pt x="1004" y="500" on="1"/>
        <pt x="61" y="121" on="1"/>
        <pt x="61" y="440" on="1"/>
      </contour>
    </TTGlyph>
    <TTGlyph name="greaterequal" xMin="61" yMin="-33" xMax="1004" yMax="1374">
      <component glyphName="greater" x="0" y="193" scalex="1.0" scaley="0.949951171875" flags="0x1000"/>
      <component glyphName="minus" x="0" y="-563" flags="0x1000"/>
    </TTGlyph>
    <TTGlyph name="guillemotleft" xMin="-35" yMin="160" xMax="1118" yMax="954">
      <component glyphName="guilsinglleft" x="0" y="0" flags="0x1000"/>
      <component glyphName="guilsinglleft" x="530" y="0" flags="0x1000"/>
    </TTGlyph>
    <TTGlyph name="guillemotright" xMin="-4" yMin="160" xMax="1148" yMax="954">
      <component glyphName="guilsinglright" x="0" y="0" flags="0x1000"/>
      <component glyphName="guilsinglright" x="530" y="0" flags="0x1000"/>
    </TTGlyph>
    <TTGlyph name="guilsinglleft" xMin="-35" yMin="160" xMax="588" yMax="954">
      <contour>
        <pt x="588" y="160" on="1"/>
        <pt x="219" y="160" on="1"/>
        <pt x="-35" y="559" on="1"/>
        <pt x="219" y="954" on="1"/>
        <pt x="588" y="954" on="1"/>
        <pt x="371" y="559" on="1"/>
      </contour>
    </TTGlyph>
    <TTGlyph name="guilsinglright" xMin="-4" yMin="160" xMax="618" yMax="954">
      <contour>
        <pt x="-4" y="954" on="1"/>
        <pt x="365" y="954" on="1"/>
        <pt x="618" y="555" on="1"/>
        <pt x="365" y="160" on="1"/>
        <pt x="-4" y="160" on="1"/>
        <pt x="213" y="555" on="1"/>
      </contour>
    </TTGlyph>
    <TTGlyph name="h" xMin="123" yMin="0" xMax="1325" yMax="1520">
      <contour>
        <pt x="1040" y="1141" on="0"/>
        <pt x="1223" y="1034" on="0"/>
        <pt x="1325" y="842" on="0"/>
        <pt x="1325" y="715" on="1"/>
        <pt x="1325" y="0" on="1"/>
        <pt x="864" y="0" on="1"/>
        <pt x="864" y="582" on="1"/>
        <pt x="864" y="652" on="0"/>
        <pt x="791" y="735" on="0"/>
        <pt x="731" y="735" on="1"/>
        <pt x="663" y="735" on="0"/>
        <pt x="584" y="637" on="0"/>
        <pt x="584" y="555" on="1"/>
        <pt x="584" y="0" on="1"/>
        <pt x="123" y="0" on="1"/>
        <pt x="123" y="1520" on="1"/>
        <pt x="584" y="1520" on="1"/>
        <pt x="584" y="961" on="1"/>
        <pt x="641" y="1049" on="0"/>
        <pt x="815" y="1141" on="0"/>
        <pt x="924" y="1141" on="1"/>
      </contour>
    </TTGlyph>
    <TTGlyph name="hbar" xMin="-33" yMin="0" xMax="1325" yMax="1520">
      <contour>
        <pt x="1040" y="1141" on="0"/>
        <pt x="1223" y="1034" on="0"/>
        <pt x="1325" y="842" on="0"/>
        <pt x="1325" y="715" on="1"/>
        <pt x="1325" y="0" on="1"/>
        <pt x="864" y="0" on="1"/>
        <pt x="864" y="582" on="1"/>
        <pt x="864" y="652" on="0"/>
        <pt x="791" y="735" on="0"/>
        <pt x="731" y="735" on="1"/>
        <pt x="663" y="735" on="0"/>
        <pt x="584" y="637" on="0"/>
        <pt x="584" y="555" on="1"/>
        <pt x="584" y="0" on="1"/>
        <pt x="123" y="0" on="1"/>
        <pt x="123" y="1153" on="1"/>
        <pt x="-33" y="1153" on="1"/>
        <pt x="-33" y="1397" on="1"/>
        <pt x="123" y="1397" on="1"/>
        <pt x="123" y="1520" on="1"/>
        <pt x="584" y="1520" on="1"/>
        <pt x="584" y="1397" on="1"/>
        <pt x="782" y="1397" on="1"/>
        <pt x="782" y="1153" on="1"/>
        <pt x="584" y="1153" on="1"/>
        <pt x="584" y="961" on="1"/>
        <pt x="641" y="1049" on="0"/>
        <pt x="815" y="1141" on="0"/>
        <pt x="924" y="1141" on="1"/>
      </contour>
    </TTGlyph>
    <TTGlyph name="hungarumlaut" xMin="-123" yMin="1210" xMax="840" yMax="1597">
      <contour>
        <pt x="205" y="1210" on="1"/>
        <pt x="-123" y="1210" on="1"/>
        <pt x="55" y="1597" on="1"/>
        <pt x="387" y="1489" on="1"/>
      </contour>
      <contour>
        <pt x="657" y="1210" on="1"/>
        <pt x="330" y="1210" on="1"/>
        <pt x="508" y="1597" on="1"/>
        <pt x="840" y="1489" on="1"/>
      </contour>
    </TTGlyph>
    <TTGlyph name="hyphen" xMin="102" yMin="489" xMax="676" yMax="776">
      <contour>
        <pt x="102" y="489" on="1"/>
        <pt x="102" y="776" on="1"/>
        <pt x="676" y="776" on="1"/>
        <pt x="676" y="489" on="1"/>
      </contour>
    </TTGlyph>
    <TTGlyph name="i" xMin="111" yMin="0" xMax="578" yMax="1673">
      <component glyphName="dotlessi" x="0" y="0" flags="0x1000"/>
      <component glyphName="dotaccent" x="-14" y="0" flags="0x1000"/>
    </TTGlyph>
    <TTGlyph name="iacute" xMin="113" yMin="0" xMax="738" yMax="1597">
      <component glyphName="dotlessi" x="0" y="0" flags="0x1000"/>
      <component glyphName="acute" x="74" y="0" flags="0x1000"/>
    </TTGlyph>
    <TTGlyph name="icircumflex" xMin="-75" yMin="0" xMax="764" yMax="1575">
      <component glyphName="dotlessi" x="0" y="0" flags="0x1000"/>
      <component glyphName="circumflex" x="-14" y="0" flags="0x1000"/>
    </TTGlyph>
    <TTGlyph name="idieresis" xMin="-55" yMin="0" xMax="743" yMax="1618">
      <contour>
        <pt x="213" y="1618" on="0"/>
        <pt x="317" y="1513" on="0"/>
        <pt x="317" y="1430" on="1"/>
        <pt x="317" y="1348" on="0"/>
        <pt x="213" y="1243" on="0"/>
        <pt x="131" y="1243" on="1"/>
        <pt x="49" y="1243" on="0"/>
        <pt x="-55" y="1348" on="0"/>
        <pt x="-55" y="1430" on="1"/>
        <pt x="-55" y="1514" on="0"/>
        <pt x="49" y="1618" on="0"/>
        <pt x="131" y="1618" on="1"/>
      </contour>
      <contour>
        <pt x="639" y="1618" on="0"/>
        <pt x="743" y="1513" on="0"/>
        <pt x="743" y="1430" on="1"/>
        <pt x="743" y="1348" on="0"/>
        <pt x="639" y="1243" on="0"/>
        <pt x="557" y="1243" on="1"/>
        <pt x="475" y="1243" on="0"/>
        <pt x="371" y="1348" on="0"/>
        <pt x="371" y="1430" on="1"/>
        <pt x="371" y="1514" on="0"/>
        <pt x="475" y="1618" on="0"/>
        <pt x="557" y="1618" on="1"/>
      </contour>
      <contour>
        <pt x="113" y="0" on="1"/>
        <pt x="113" y="1120" on="1"/>
        <pt x="573" y="1120" on="1"/>
        <pt x="573" y="0" on="1"/>
      </contour>
    </TTGlyph>
    <TTGlyph name="igrave" xMin="-35" yMin="0" xMax="574" yMax="1597">
      <component glyphName="dotlessi" x="0" y="0" flags="0x1000"/>
      <component glyphName="grave" x="-90" y="0" flags="0x1000"/>
    </TTGlyph>
    <TTGlyph name="ij" xMin="111" yMin="-416" xMax="1290" yMax="1673">
      <contour>
        <pt x="446" y="1673" on="0"/>
        <pt x="578" y="1542" on="0"/>
        <pt x="578" y="1440" on="1"/>
        <pt x="578" y="1338" on="0"/>
        <pt x="446" y="1206" on="0"/>
        <pt x="344" y="1206" on="1"/>
        <pt x="242" y="1206" on="0"/>
        <pt x="111" y="1337" on="0"/>
        <pt x="111" y="1440" on="1"/>
        <pt x="111" y="1542" on="0"/>
        <pt x="242" y="1673" on="0"/>
        <pt x="344" y="1673" on="1"/>
      </contour>
      <contour>
        <pt x="1151" y="1673" on="0"/>
        <pt x="1290" y="1542" on="0"/>
        <pt x="1290" y="1440" on="1"/>
        <pt x="1290" y="1338" on="0"/>
        <pt x="1151" y="1206" on="0"/>
        <pt x="1038" y="1206" on="1"/>
        <pt x="927" y="1206" on="0"/>
        <pt x="786" y="1337" on="0"/>
        <pt x="786" y="1440" on="1"/>
        <pt x="786" y="1542" on="0"/>
        <pt x="928" y="1673" on="0"/>
        <pt x="1038" y="1673" on="1"/>
      </contour>
      <contour>
        <pt x="113" y="0" on="1"/>
        <pt x="113" y="1120" on="1"/>
        <pt x="573" y="1120" on="1"/>
        <pt x="573" y="0" on="1"/>
      </contour>
      <contour>
        <pt x="1270" y="-209" on="0"/>
        <pt x="1032" y="-416" on="0"/>
        <pt x="831" y="-416" on="1"/>
        <pt x="643" y="-416" on="0"/>
        <pt x="504" y="-346" on="1"/>
        <pt x="606" y="-31" on="1"/>
        <pt x="667" y="-60" on="0"/>
        <pt x="719" y="-59" on="1"/>
        <pt x="762" y="-61" on="0"/>
        <pt x="809" y="-12" on="0"/>
        <pt x="809" y="35" on="1"/>
        <pt x="809" y="1120" on="1"/>
        <pt x="1270" y="1120" on="1"/>
        <pt x="1270" y="-35" on="1"/>
      </contour>
    </TTGlyph>
    <TTGlyph name="imacron" xMin="37" yMin="0" xMax="652" yMax="1581">
      <component glyphName="dotlessi" x="0" y="0" flags="0x1000"/>
      <component glyphName="macron" x="-14" y="0" flags="0x1000"/>
    </TTGlyph>
    <TTGlyph name="infinity" xMin="31" yMin="141" xMax="1679" yMax="1073">
      <contour>
        <pt x="1366" y="1073" on="0"/>
        <pt x="1567" y="952" on="0"/>
        <pt x="1679" y="741" on="0"/>
        <pt x="1679" y="608" on="1"/>
        <pt x="1679" y="475" on="0"/>
        <pt x="1567" y="262" on="0"/>
        <pt x="1366" y="141" on="0"/>
        <pt x="1241" y="141" on="1"/>
        <pt x="1112" y="141" on="0"/>
        <pt x="934" y="262" on="0"/>
        <pt x="858" y="371" on="1"/>
        <pt x="784" y="265" on="0"/>
        <pt x="602" y="141" on="0"/>
        <pt x="467" y="141" on="1"/>
        <pt x="342" y="141" on="0"/>
        <pt x="143" y="262" on="0"/>
        <pt x="31" y="473" on="0"/>
        <pt x="31" y="606" on="1"/>
        <pt x="31" y="739" on="0"/>
        <pt x="143" y="952" on="0"/>
        <pt x="342" y="1073" on="0"/>
        <pt x="467" y="1073" on="1"/>
        <pt x="596" y="1073" on="0"/>
        <pt x="774" y="952" on="0"/>
        <pt x="850" y="844" on="1"/>
        <pt x="924" y="950" on="0"/>
        <pt x="1106" y="1073" on="0"/>
        <pt x="1241" y="1073" on="1"/>
      </contour>
      <contour>
        <pt x="543" y="449" on="0"/>
        <pt x="655" y="532" on="0"/>
        <pt x="707" y="610" on="1"/>
        <pt x="656" y="684" on="0"/>
        <pt x="541" y="766" on="0"/>
        <pt x="467" y="766" on="1"/>
        <pt x="412" y="766" on="0"/>
        <pt x="338" y="676" on="0"/>
        <pt x="338" y="606" on="1"/>
        <pt x="338" y="536" on="0"/>
        <pt x="412" y="449" on="0"/>
        <pt x="467" y="449" on="1"/>
      </contour>
      <contour>
        <pt x="1298" y="449" on="0"/>
        <pt x="1372" y="539" on="0"/>
        <pt x="1372" y="608" on="1"/>
        <pt x="1372" y="678" on="0"/>
        <pt x="1298" y="766" on="0"/>
        <pt x="1241" y="766" on="1"/>
        <pt x="1165" y="766" on="0"/>
        <pt x="1053" y="682" on="0"/>
        <pt x="1001" y="604" on="1"/>
        <pt x="1054" y="528" on="0"/>
        <pt x="1167" y="449" on="0"/>
        <pt x="1241" y="449" on="1"/>
      </contour>
    </TTGlyph>
    <TTGlyph name="integral" xMin="-61" yMin="-303" xMax="930" yMax="1761">
      <contour>
        <pt x="821" y="1444" on="0"/>
        <pt x="764" y="1444" on="1"/>
        <pt x="672" y="1444" on="0"/>
        <pt x="594" y="1356" on="0"/>
        <pt x="594" y="1249" on="1"/>
        <pt x="594" y="1161" on="0"/>
        <pt x="621" y="784" on="1"/>
        <pt x="625" y="729" on="0"/>
        <pt x="651" y="326" on="0"/>
        <pt x="651" y="256" on="1"/>
        <pt x="651" y="53" on="0"/>
        <pt x="561" y="-190" on="0"/>
        <pt x="362" y="-303" on="0"/>
        <pt x="197" y="-303" on="1"/>
        <pt x="111" y="-303" on="0"/>
        <pt x="-10" y="-274" on="0"/>
        <pt x="-61" y="-242" on="1"/>
        <pt x="-10" y="51" on="1"/>
        <pt x="78" y="8" on="0"/>
        <pt x="137" y="8" on="1"/>
        <pt x="233" y="8" on="0"/>
        <pt x="317" y="106" on="0"/>
        <pt x="317" y="223" on="1"/>
        <pt x="317" y="309" on="0"/>
        <pt x="285" y="735" on="1"/>
        <pt x="256" y="1136" on="0"/>
        <pt x="256" y="1206" on="1"/>
        <pt x="256" y="1409" on="0"/>
        <pt x="346" y="1651" on="0"/>
        <pt x="543" y="1761" on="0"/>
        <pt x="707" y="1761" on="1"/>
        <pt x="764" y="1761" on="0"/>
        <pt x="866" y="1739" on="0"/>
        <pt x="930" y="1710" on="1"/>
        <pt x="889" y="1419" on="1"/>
      </contour>
    </TTGlyph>
    <TTGlyph name="iogonek" xMin="86" yMin="-418" xMax="573" yMax="1673">
      <contour>
        <pt x="422" y="1673" on="0"/>
        <pt x="553" y="1542" on="0"/>
        <pt x="553" y="1440" on="1"/>
        <pt x="553" y="1338" on="0"/>
        <pt x="422" y="1206" on="0"/>
        <pt x="319" y="1206" on="1"/>
        <pt x="217" y="1206" on="0"/>
        <pt x="86" y="1337" on="0"/>
        <pt x="86" y="1440" on="1"/>
        <pt x="86" y="1542" on="0"/>
        <pt x="217" y="1673" on="0"/>
        <pt x="319" y="1673" on="1"/>
      </contour>
      <contour>
        <pt x="434" y="0" on="1"/>
        <pt x="356" y="-117" on="0"/>
        <pt x="356" y="-162" on="1"/>
        <pt x="356" y="-193" on="0"/>
        <pt x="385" y="-193" on="1"/>
        <pt x="426" y="-193" on="0"/>
        <pt x="461" y="-131" on="1"/>
        <pt x="573" y="-262" on="1"/>
        <pt x="530" y="-340" on="0"/>
        <pt x="403" y="-418" on="0"/>
        <pt x="328" y="-418" on="1"/>
        <pt x="250" y="-418" on="0"/>
        <pt x="131" y="-334" on="0"/>
        <pt x="131" y="-238" on="1"/>
        <pt x="131" y="-134" on="0"/>
        <pt x="219" y="0" on="1"/>
        <pt x="88" y="0" on="1"/>
        <pt x="88" y="1120" on="1"/>
        <pt x="549" y="1120" on="1"/>
        <pt x="549" y="0" on="1"/>
      </contour>
    </TTGlyph>
    <TTGlyph name="itilde" xMin="-53" yMin="0" xMax="742" yMax="1632">
      <component glyphName="dotlessi" x="0" y="0" flags="0x1000"/>
      <component glyphName="tilde" x="-14" y="0" flags="0x1000"/>
    </TTGlyph>
    <TTGlyph name="j" xMin="-182" yMin="-416" xMax="604" yMax="1673">
      <contour>
        <pt x="465" y="1673" on="0"/>
        <pt x="604" y="1542" on="0"/>
        <pt x="604" y="1440" on="1"/>
        <pt x="604" y="1338" on="0"/>
        <pt x="465" y="1206" on="0"/>
        <pt x="352" y="1206" on="1"/>
        <pt x="241" y="1206" on="0"/>
        <pt x="100" y="1337" on="0"/>
        <pt x="100" y="1440" on="1"/>
        <pt x="100" y="1542" on="0"/>
        <pt x="242" y="1673" on="0"/>
        <pt x="352" y="1673" on="1"/>
      </contour>
      <contour>
        <pt x="584" y="-209" on="0"/>
        <pt x="346" y="-416" on="0"/>
        <pt x="145" y="-416" on="1"/>
        <pt x="-43" y="-416" on="0"/>
        <pt x="-182" y="-346" on="1"/>
        <pt x="-80" y="-31" on="1"/>
        <pt x="-19" y="-60" on="0"/>
        <pt x="33" y="-59" on="1"/>
        <pt x="76" y="-61" on="0"/>
        <pt x="123" y="-12" on="0"/>
        <pt x="123" y="35" on="1"/>
        <pt x="123" y="1120" on="1"/>
        <pt x="584" y="1120" on="1"/>
        <pt x="584" y="-35" on="1"/>
      </contour>
    </TTGlyph>
    <TTGlyph name="jcircumflex" xMin="-182" yMin="-416" xMax="755" yMax="1575">
      <component glyphName="dotlessj" x="0" y="0" flags="0x1000"/>
      <component glyphName="circumflex" x="-23" y="0" flags="0x1000"/>
    </TTGlyph>
    <TTGlyph name="k" xMin="123" yMin="0" xMax="1364" yMax="1520">
      <contour>
        <pt x="1358" y="0" on="1"/>
        <pt x="811" y="0" on="1"/>
        <pt x="639" y="352" on="1"/>
        <pt x="584" y="295" on="1"/>
        <pt x="584" y="0" on="1"/>
        <pt x="123" y="0" on="1"/>
        <pt x="123" y="1520" on="1"/>
        <pt x="584" y="1520" on="1"/>
        <pt x="584" y="829" on="1"/>
        <pt x="844" y="1120" on="1"/>
        <pt x="1364" y="1120" on="1"/>
        <pt x="956" y="688" on="1"/>
      </contour>
    </TTGlyph>
    <TTGlyph name="kcedilla" xMin="45" yMin="-506" xMax="1364" yMax="1520">
      <contour>
        <pt x="1358" y="0" on="1"/>
        <pt x="811" y="0" on="1"/>
        <pt x="639" y="352" on="1"/>
        <pt x="584" y="295" on="1"/>
        <pt x="584" y="0" on="1"/>
        <pt x="461" y="0" on="1"/>
        <pt x="406" y="-104" on="1"/>
        <pt x="467" y="-124" on="0"/>
        <pt x="541" y="-219" on="0"/>
        <pt x="541" y="-274" on="1"/>
        <pt x="541" y="-380" on="0"/>
        <pt x="385" y="-506" on="0"/>
        <pt x="252" y="-506" on="1"/>
        <pt x="205" y="-506" on="0"/>
        <pt x="92" y="-469" on="0"/>
        <pt x="45" y="-436" on="1"/>
        <pt x="127" y="-252" on="1"/>
        <pt x="143" y="-270" on="0"/>
        <pt x="188" y="-293" on="0"/>
        <pt x="211" y="-293" on="1"/>
        <pt x="246" y="-293" on="0"/>
        <pt x="289" y="-256" on="0"/>
        <pt x="289" y="-225" on="1"/>
        <pt x="289" y="-192" on="0"/>
        <pt x="242" y="-156" on="0"/>
        <pt x="201" y="-156" on="1"/>
        <pt x="170" y="-156" on="0"/>
        <pt x="125" y="-166" on="1"/>
        <pt x="211" y="0" on="1"/>
        <pt x="123" y="0" on="1"/>
        <pt x="123" y="1520" on="1"/>
        <pt x="584" y="1520" on="1"/>
        <pt x="584" y="829" on="1"/>
        <pt x="844" y="1120" on="1"/>
        <pt x="1364" y="1120" on="1"/>
        <pt x="956" y="688" on="1"/>
      </contour>
    </TTGlyph>
    <TTGlyph name="kgreenlandic" xMin="113" yMin="0" xMax="1350" yMax="1120">
      <contour>
        <pt x="1343" y="0" on="1"/>
        <pt x="797" y="0" on="1"/>
        <pt x="625" y="352" on="1"/>
        <pt x="573" y="299" on="1"/>
        <pt x="573" y="0" on="1"/>
        <pt x="113" y="0" on="1"/>
        <pt x="113" y="1120" on="1"/>
        <pt x="573" y="1120" on="1"/>
        <pt x="573" y="834" on="1"/>
        <pt x="829" y="1120" on="1"/>
        <pt x="1350" y="1120" on="1"/>
        <pt x="942" y="688" on="1"/>
      </contour>
    </TTGlyph>
    <TTGlyph name="l" xMin="123" yMin="0" xMax="584" yMax="1520">
      <contour>
        <pt x="123" y="0" on="1"/>
        <pt x="123" y="1520" on="1"/>
        <pt x="584" y="1520" on="1"/>
        <pt x="584" y="0" on="1"/>
      </contour>
    </TTGlyph>
    <TTGlyph name="lacute" xMin="123" yMin="0" xMax="748" yMax="1996">
      <component glyphName="l" x="0" y="0" flags="0x1000"/>
      <component glyphName="acute" x="84" y="399" flags="0x1000"/>
    </TTGlyph>
    <TTGlyph name="lcaron" xMin="123" yMin="0" xMax="1051" yMax="1520">
      <contour>
        <pt x="584" y="1520" on="1"/>
        <pt x="584" y="0" on="1"/>
        <pt x="123" y="0" on="1"/>
        <pt x="123" y="1520" on="1"/>
      </contour>
      <contour>
        <pt x="930" y="1370" on="0"/>
        <pt x="1051" y="1260" on="0"/>
        <pt x="1051" y="1163" on="1"/>
        <pt x="1051" y="1079" on="0"/>
        <pt x="995" y="999" on="1"/>
        <pt x="817" y="741" on="1"/>
        <pt x="604" y="741" on="1"/>
        <pt x="711" y="1001" on="1"/>
        <pt x="670" y="1028" on="0"/>
        <pt x="631" y="1112" on="0"/>
        <pt x="631" y="1161" on="1"/>
        <pt x="631" y="1253" on="0"/>
        <pt x="750" y="1370" on="0"/>
        <pt x="842" y="1370" on="1"/>
      </contour>
    </TTGlyph>
    <TTGlyph name="lcommaaccent" xMin="123" yMin="-696" xMax="584" yMax="1520">
      <component glyphName="l" x="0" y="0" flags="0x1000"/>
      <component glyphName="uni0326" x="94" y="0" flags="0x1000"/>
    </TTGlyph>
    <TTGlyph name="ldot" xMin="123" yMin="0" xMax="999" yMax="1520">
      <contour>
        <pt x="883" y="854" on="0"/>
        <pt x="999" y="737" on="0"/>
        <pt x="999" y="643" on="1"/>
        <pt x="999" y="551" on="0"/>
        <pt x="883" y="434" on="0"/>
        <pt x="791" y="434" on="1"/>
        <pt x="709" y="434" on="0"/>
        <pt x="598" y="524" on="0"/>
        <pt x="584" y="598" on="1"/>
        <pt x="584" y="0" on="1"/>
        <pt x="123" y="0" on="1"/>
        <pt x="123" y="1520" on="1"/>
        <pt x="584" y="1520" on="1"/>
        <pt x="584" y="688" on="1"/>
        <pt x="598" y="764" on="0"/>
        <pt x="709" y="854" on="0"/>
        <pt x="791" y="854" on="1"/>
      </contour>
    </TTGlyph>
    <TTGlyph name="less" xMin="61" yMin="100" xMax="1004" yMax="1223">
      <contour>
        <pt x="356" y="662" on="1"/>
        <pt x="1004" y="420" on="1"/>
        <pt x="1004" y="100" on="1"/>
        <pt x="61" y="479" on="1"/>
        <pt x="61" y="844" on="1"/>
        <pt x="1004" y="1223" on="1"/>
        <pt x="1004" y="903" on="1"/>
      </contour>
    </TTGlyph>
    <TTGlyph name="lessequal" xMin="61" yMin="-33" xMax="1004" yMax="1355">
      <component glyphName="less" x="0" y="193" scalex="1.0" scaley="0.949951171875" flags="0x1000"/>
      <component glyphName="minus" x="0" y="-563" flags="0x1000"/>
    </TTGlyph>
    <TTGlyph name="logicalnot" xMin="61" yMin="264" xMax="1106" yMax="920">
      <contour>
        <pt x="1106" y="264" on="1"/>
        <pt x="778" y="264" on="1"/>
        <pt x="778" y="633" on="1"/>
        <pt x="61" y="633" on="1"/>
        <pt x="61" y="920" on="1"/>
        <pt x="1106" y="920" on="1"/>
      </contour>
    </TTGlyph>
    <TTGlyph name="lozenge" xMin="31" yMin="-18" xMax="956" yMax="1364">
      <contour>
        <pt x="492" y="-18" on="1"/>
        <pt x="31" y="676" on="1"/>
        <pt x="496" y="1364" on="1"/>
        <pt x="956" y="676" on="1"/>
      </contour>
      <contour>
        <pt x="494" y="420" on="1"/>
        <pt x="664" y="676" on="1"/>
        <pt x="494" y="928" on="1"/>
        <pt x="324" y="676" on="1"/>
      </contour>
    </TTGlyph>
    <TTGlyph name="lslash" xMin="-92" yMin="0" xMax="856" yMax="1520">
      <contour>
        <pt x="633" y="0" on="1"/>
        <pt x="172" y="0" on="1"/>
        <pt x="172" y="647" on="1"/>
        <pt x="-14" y="594" on="1"/>
        <pt x="-92" y="868" on="1"/>
        <pt x="172" y="944" on="1"/>
        <pt x="172" y="1520" on="1"/>
        <pt x="633" y="1520" on="1"/>
        <pt x="633" y="1077" on="1"/>
        <pt x="778" y="1120" on="1"/>
        <pt x="856" y="844" on="1"/>
        <pt x="633" y="780" on="1"/>
      </contour>
    </TTGlyph>
    <TTGlyph name="m" xMin="113" yMin="0" xMax="2032" yMax="1141">
      <contour>
        <pt x="1751" y="1141" on="0"/>
        <pt x="1931" y="1034" on="0"/>
        <pt x="2032" y="842" on="0"/>
        <pt x="2032" y="715" on="1"/>
        <pt x="2032" y="0" on="1"/>
        <pt x="1571" y="0" on="1"/>
        <pt x="1571" y="582" on="1"/>
        <pt x="1571" y="652" on="0"/>
        <pt x="1501" y="735" on="0"/>
        <pt x="1444" y="735" on="1"/>
        <pt x="1381" y="735" on="0"/>
        <pt x="1303" y="637" on="0"/>
        <pt x="1303" y="555" on="1"/>
        <pt x="1303" y="0" on="1"/>
        <pt x="842" y="0" on="1"/>
        <pt x="842" y="582" on="1"/>
        <pt x="842" y="652" on="0"/>
        <pt x="772" y="735" on="0"/>
        <pt x="715" y="735" on="1"/>
        <pt x="652" y="735" on="0"/>
        <pt x="573" y="637" on="0"/>
        <pt x="573" y="555" on="1"/>
        <pt x="573" y="0" on="1"/>
        <pt x="113" y="0" on="1"/>
        <pt x="113" y="1120" on="1"/>
        <pt x="573" y="1120" on="1"/>
        <pt x="573" y="963" on="1"/>
        <pt x="630" y="1049" on="0"/>
        <pt x="801" y="1141" on="0"/>
        <pt x="907" y="1141" on="1"/>
        <pt x="1034" y="1141" on="0"/>
        <pt x="1225" y="1014" on="0"/>
        <pt x="1270" y="901" on="1"/>
        <pt x="1325" y="1016" on="0"/>
        <pt x="1511" y="1141" on="0"/>
        <pt x="1636" y="1141" on="1"/>
      </contour>
    </TTGlyph>
    <TTGlyph name="macron" xMin="51" yMin="1278" xMax="666" yMax="1581">
      <contour>
        <pt x="51" y="1278" on="1"/>
        <pt x="51" y="1581" on="1"/>
        <pt x="666" y="1581" on="1"/>
        <pt x="666" y="1278" on="1"/>
      </contour>
    </TTGlyph>
    <TTGlyph name="minus" xMin="61" yMin="530" xMax="1004" yMax="817">
      <contour>
        <pt x="61" y="530" on="1"/>
        <pt x="61" y="817" on="1"/>
        <pt x="1004" y="817" on="1"/>
        <pt x="1004" y="530" on="1"/>
      </contour>
    </TTGlyph>
    <TTGlyph name="mu" xMin="123" yMin="-397" xMax="1305" yMax="1120">
      <contour>
        <pt x="1305" y="0" on="1"/>
        <pt x="844" y="0" on="1"/>
        <pt x="844" y="156" on="1"/>
        <pt x="748" y="11" on="0"/>
        <pt x="584" y="-14" on="1"/>
        <pt x="584" y="-397" on="1"/>
        <pt x="123" y="-397" on="1"/>
        <pt x="123" y="1120" on="1"/>
        <pt x="584" y="1120" on="1"/>
        <pt x="584" y="539" on="1"/>
        <pt x="584" y="469" on="0"/>
        <pt x="651" y="385" on="0"/>
        <pt x="707" y="385" on="1"/>
        <pt x="770" y="385" on="0"/>
        <pt x="844" y="483" on="0"/>
        <pt x="844" y="565" on="1"/>
        <pt x="844" y="1120" on="1"/>
        <pt x="1305" y="1120" on="1"/>
      </contour>
    </TTGlyph>
    <TTGlyph name="multiply" xMin="98" yMin="240" xMax="967" yMax="1108">
      <contour>
        <pt x="967" y="442" on="1"/>
        <pt x="764" y="240" on="1"/>
        <pt x="532" y="471" on="1"/>
        <pt x="301" y="240" on="1"/>
        <pt x="98" y="442" on="1"/>
        <pt x="330" y="674" on="1"/>
        <pt x="98" y="905" on="1"/>
        <pt x="301" y="1108" on="1"/>
        <pt x="532" y="877" on="1"/>
        <pt x="764" y="1108" on="1"/>
        <pt x="967" y="905" on="1"/>
        <pt x="735" y="674" on="1"/>
      </contour>
    </TTGlyph>
    <TTGlyph name="n" xMin="113" yMin="0" xMax="1315" yMax="1141">
      <contour>
        <pt x="1030" y="1141" on="0"/>
        <pt x="1212" y="1034" on="0"/>
        <pt x="1315" y="842" on="0"/>
        <pt x="1315" y="715" on="1"/>
        <pt x="1315" y="0" on="1"/>
        <pt x="854" y="0" on="1"/>
        <pt x="854" y="582" on="1"/>
        <pt x="854" y="652" on="0"/>
        <pt x="780" y="735" on="0"/>
        <pt x="721" y="735" on="1"/>
        <pt x="653" y="735" on="0"/>
        <pt x="573" y="637" on="0"/>
        <pt x="573" y="555" on="1"/>
        <pt x="573" y="0" on="1"/>
        <pt x="113" y="0" on="1"/>
        <pt x="113" y="1120" on="1"/>
        <pt x="573" y="1120" on="1"/>
        <pt x="573" y="961" on="1"/>
        <pt x="630" y="1049" on="0"/>
        <pt x="805" y="1141" on="0"/>
        <pt x="913" y="1141" on="1"/>
      </contour>
    </TTGlyph>
    <TTGlyph name="nacute" xMin="113" yMin="0" xMax="1315" yMax="1597">
      <component glyphName="n" x="0" y="0" flags="0x1000"/>
      <component glyphName="acute" x="467" y="0" flags="0x1000"/>
    </TTGlyph>
    <TTGlyph name="ncaron" xMin="113" yMin="0" xMax="1315" yMax="1575">
      <component glyphName="n" x="0" y="0" flags="0x1000"/>
      <component glyphName="caron" x="367" y="0" flags="0x1000"/>
    </TTGlyph>
    <TTGlyph name="ncommaaccent" xMin="113" yMin="-696" xMax="1315" yMax="1141">
      <component glyphName="n" x="0" y="0" flags="0x1000"/>
      <component glyphName="uni0326" x="451" y="0" flags="0x1000"/>
    </TTGlyph>
    <TTGlyph name="nine" xMin="41" yMin="-20" xMax="1255" yMax="1456">
      <component glyphName="six" x="1327" y="1436" scale="-1.0" flags="0x1000"/>
    </TTGlyph>
    <TTGlyph name="nine.dnom" xMin="31" yMin="-14" xMax="807" yMax="874">
      <contour>
        <pt x="270" y="-14" on="0"/>
        <pt x="96" y="29" on="0"/>
        <pt x="39" y="66" on="1"/>
        <pt x="160" y="279" on="1"/>
        <pt x="230" y="224" on="0"/>
        <pt x="338" y="223" on="1"/>
        <pt x="420" y="223" on="0"/>
        <pt x="500" y="276" on="0"/>
        <pt x="502" y="332" on="1"/>
        <pt x="424" y="283" on="0"/>
        <pt x="324" y="283" on="1"/>
        <pt x="193" y="283" on="0"/>
        <pt x="31" y="442" on="0"/>
        <pt x="31" y="569" on="1"/>
        <pt x="31" y="708" on="0"/>
        <pt x="227" y="874" on="0"/>
        <pt x="391" y="874" on="1"/>
        <pt x="584" y="874" on="0"/>
        <pt x="807" y="637" on="0"/>
        <pt x="807" y="438" on="1"/>
        <pt x="807" y="303" on="0"/>
        <pt x="696" y="98" on="0"/>
        <pt x="492" y="-14" on="0"/>
        <pt x="356" y="-14" on="1"/>
      </contour>
      <contour>
        <pt x="438" y="506" on="0"/>
        <pt x="475" y="535" on="0"/>
        <pt x="475" y="567" on="1"/>
        <pt x="475" y="602" on="0"/>
        <pt x="440" y="631" on="0"/>
        <pt x="401" y="631" on="1"/>
        <pt x="362" y="631" on="0"/>
        <pt x="328" y="600" on="0"/>
        <pt x="328" y="567" on="1"/>
        <pt x="328" y="506" on="0"/>
        <pt x="401" y="506" on="1"/>
      </contour>
    </TTGlyph>
    <TTGlyph name="nine.numr" xMin="31" yMin="559" xMax="807" yMax="1448">
      <contour>
        <pt x="270" y="559" on="0"/>
        <pt x="96" y="602" on="0"/>
        <pt x="39" y="639" on="1"/>
        <pt x="160" y="852" on="1"/>
        <pt x="230" y="797" on="0"/>
        <pt x="338" y="797" on="1"/>
        <pt x="420" y="797" on="0"/>
        <pt x="500" y="850" on="0"/>
        <pt x="502" y="905" on="1"/>
        <pt x="424" y="856" on="0"/>
        <pt x="324" y="856" on="1"/>
        <pt x="193" y="856" on="0"/>
        <pt x="31" y="1016" on="0"/>
        <pt x="31" y="1143" on="1"/>
        <pt x="31" y="1282" on="0"/>
        <pt x="227" y="1448" on="0"/>
        <pt x="391" y="1448" on="1"/>
        <pt x="584" y="1448" on="0"/>
        <pt x="807" y="1210" on="0"/>
        <pt x="807" y="1012" on="1"/>
        <pt x="807" y="877" on="0"/>
        <pt x="696" y="672" on="0"/>
        <pt x="492" y="559" on="0"/>
        <pt x="356" y="559" on="1"/>
      </contour>
      <contour>
        <pt x="438" y="1079" on="0"/>
        <pt x="475" y="1108" on="0"/>
        <pt x="475" y="1141" on="1"/>
        <pt x="475" y="1176" on="0"/>
        <pt x="440" y="1204" on="0"/>
        <pt x="401" y="1204" on="1"/>
        <pt x="362" y="1204" on="0"/>
        <pt x="328" y="1174" on="0"/>
        <pt x="328" y="1141" on="1"/>
        <pt x="328" y="1080" on="0"/>
        <pt x="401" y="1079" on="1"/>
      </contour>
    </TTGlyph>
    <TTGlyph name="notequal" xMin="61" yMin="27" xMax="1004" yMax="1311">
      <contour>
        <pt x="672" y="592" on="1"/>
        <pt x="1004" y="592" on="1"/>
        <pt x="1004" y="305" on="1"/>
        <pt x="582" y="305" on="1"/>
        <pt x="494" y="27" on="1"/>
        <pt x="150" y="27" on="1"/>
        <pt x="238" y="305" on="1"/>
        <pt x="61" y="305" on="1"/>
        <pt x="61" y="592" on="1"/>
        <pt x="328" y="592" on="1"/>
        <pt x="379" y="756" on="1"/>
        <pt x="61" y="756" on="1"/>
        <pt x="61" y="1042" on="1"/>
        <pt x="469" y="1042" on="1"/>
        <pt x="553" y="1311" on="1"/>
        <pt x="897" y="1311" on="1"/>
        <pt x="813" y="1042" on="1"/>
        <pt x="1004" y="1042" on="1"/>
        <pt x="1004" y="756" on="1"/>
        <pt x="723" y="756" on="1"/>
      </contour>
    </TTGlyph>
    <TTGlyph name="ntilde" xMin="113" yMin="0" xMax="1315" yMax="1632">
      <component glyphName="n" x="0" y="0" flags="0x1000"/>
      <component glyphName="tilde" x="379" y="0" flags="0x1000"/>
    </TTGlyph>
    <TTGlyph name="numbersign" xMin="8" yMin="0" xMax="1518" yMax="1436">
      <contour>
        <pt x="1184" y="596" on="1"/>
        <pt x="1450" y="596" on="1"/>
        <pt x="1411" y="283" on="1"/>
        <pt x="1145" y="283" on="1"/>
        <pt x="1110" y="0" on="1"/>
        <pt x="782" y="0" on="1"/>
        <pt x="817" y="283" on="1"/>
        <pt x="602" y="283" on="1"/>
        <pt x="567" y="0" on="1"/>
        <pt x="240" y="0" on="1"/>
        <pt x="274" y="283" on="1"/>
        <pt x="8" y="283" on="1"/>
        <pt x="47" y="596" on="1"/>
        <pt x="313" y="596" on="1"/>
        <pt x="342" y="821" on="1"/>
        <pt x="78" y="821" on="1"/>
        <pt x="115" y="1135" on="1"/>
        <pt x="381" y="1135" on="1"/>
        <pt x="418" y="1436" on="1"/>
        <pt x="745" y="1436" on="1"/>
        <pt x="709" y="1135" on="1"/>
        <pt x="924" y="1135" on="1"/>
        <pt x="961" y="1436" on="1"/>
        <pt x="1288" y="1436" on="1"/>
        <pt x="1251" y="1135" on="1"/>
        <pt x="1518" y="1135" on="1"/>
        <pt x="1481" y="821" on="1"/>
        <pt x="1212" y="821" on="1"/>
      </contour>
      <contour>
        <pt x="670" y="821" on="1"/>
        <pt x="641" y="596" on="1"/>
        <pt x="856" y="596" on="1"/>
        <pt x="885" y="821" on="1"/>
      </contour>
    </TTGlyph>
    <TTGlyph name="o" xMin="31" yMin="-16" xMax="1296" yMax="1137">
      <contour>
        <pt x="854" y="1137" on="0"/>
        <pt x="1141" y="995" on="0"/>
        <pt x="1296" y="735" on="0"/>
        <pt x="1296" y="561" on="1"/>
        <pt x="1296" y="387" on="0"/>
        <pt x="1141" y="127" on="0"/>
        <pt x="854" y="-16" on="0"/>
        <pt x="664" y="-16" on="1"/>
        <pt x="474" y="-16" on="0"/>
        <pt x="186" y="127" on="0"/>
        <pt x="31" y="387" on="0"/>
        <pt x="31" y="561" on="1"/>
        <pt x="31" y="735" on="0"/>
        <pt x="186" y="995" on="0"/>
        <pt x="473" y="1137" on="0"/>
        <pt x="664" y="1137" on="1"/>
      </contour>
      <contour>
        <pt x="588" y="772" on="0"/>
        <pt x="496" y="653" on="0"/>
        <pt x="496" y="555" on="1"/>
        <pt x="496" y="457" on="0"/>
        <pt x="588" y="338" on="0"/>
        <pt x="664" y="338" on="1"/>
        <pt x="740" y="338" on="0"/>
        <pt x="831" y="457" on="0"/>
        <pt x="831" y="555" on="1"/>
        <pt x="831" y="653" on="0"/>
        <pt x="739" y="772" on="0"/>
        <pt x="664" y="772" on="1"/>
      </contour>
    </TTGlyph>
    <TTGlyph name="oacute" xMin="31" yMin="-16" xMax="1296" yMax="1597">
      <component glyphName="o" x="0" y="0" flags="0x1000"/>
      <component glyphName="acute" x="393" y="0" flags="0x1000"/>
    </TTGlyph>
    <TTGlyph name="ocircumflex" xMin="31" yMin="-16" xMax="1296" yMax="1575">
      <component glyphName="o" x="0" y="0" flags="0x1000"/>
      <component glyphName="circumflex" x="305" y="0" flags="0x1000"/>
    </TTGlyph>
    <TTGlyph name="odieresis" xMin="31" yMin="-16" xMax="1296" yMax="1618">
      <contour>
        <pt x="532" y="1618" on="0"/>
        <pt x="637" y="1513" on="0"/>
        <pt x="637" y="1430" on="1"/>
        <pt x="637" y="1348" on="0"/>
        <pt x="532" y="1243" on="0"/>
        <pt x="451" y="1243" on="1"/>
        <pt x="369" y="1243" on="0"/>
        <pt x="264" y="1348" on="0"/>
        <pt x="264" y="1430" on="1"/>
        <pt x="264" y="1514" on="0"/>
        <pt x="369" y="1618" on="0"/>
        <pt x="451" y="1618" on="1"/>
      </contour>
      <contour>
        <pt x="958" y="1618" on="0"/>
        <pt x="1063" y="1513" on="0"/>
        <pt x="1063" y="1430" on="1"/>
        <pt x="1063" y="1348" on="0"/>
        <pt x="958" y="1243" on="0"/>
        <pt x="877" y="1243" on="1"/>
        <pt x="795" y="1243" on="0"/>
        <pt x="690" y="1348" on="0"/>
        <pt x="690" y="1430" on="1"/>
        <pt x="690" y="1514" on="0"/>
        <pt x="795" y="1618" on="0"/>
        <pt x="877" y="1618" on="1"/>
      </contour>
      <contour>
        <pt x="854" y="1137" on="0"/>
        <pt x="1141" y="995" on="0"/>
        <pt x="1296" y="735" on="0"/>
        <pt x="1296" y="561" on="1"/>
        <pt x="1296" y="387" on="0"/>
        <pt x="1141" y="127" on="0"/>
        <pt x="854" y="-16" on="0"/>
        <pt x="664" y="-16" on="1"/>
        <pt x="474" y="-16" on="0"/>
        <pt x="186" y="127" on="0"/>
        <pt x="31" y="387" on="0"/>
        <pt x="31" y="561" on="1"/>
        <pt x="31" y="735" on="0"/>
        <pt x="186" y="995" on="0"/>
        <pt x="473" y="1137" on="0"/>
        <pt x="664" y="1137" on="1"/>
      </contour>
      <contour>
        <pt x="588" y="772" on="0"/>
        <pt x="496" y="653" on="0"/>
        <pt x="496" y="555" on="1"/>
        <pt x="496" y="457" on="0"/>
        <pt x="588" y="338" on="0"/>
        <pt x="664" y="338" on="1"/>
        <pt x="740" y="338" on="0"/>
        <pt x="831" y="457" on="0"/>
        <pt x="831" y="555" on="1"/>
        <pt x="831" y="653" on="0"/>
        <pt x="739" y="772" on="0"/>
        <pt x="664" y="772" on="1"/>
      </contour>
    </TTGlyph>
    <TTGlyph name="oe" xMin="31" yMin="-17" xMax="2015" yMax="1137">
      <contour>
        <pt x="1599" y="1137" on="0"/>
        <pt x="1870" y="985" on="0"/>
        <pt x="2015" y="705" on="0"/>
        <pt x="2015" y="516" on="1"/>
        <pt x="2015" y="477" on="0"/>
        <pt x="2013" y="457" on="1"/>
        <pt x="1276" y="457" on="1"/>
        <pt x="1301" y="391" on="0"/>
        <pt x="1399" y="324" on="0"/>
        <pt x="1466" y="324" on="1"/>
        <pt x="1587" y="324" on="0"/>
        <pt x="1698" y="424" on="1"/>
        <pt x="1937" y="188" on="1"/>
        <pt x="1749" y="-17" on="0"/>
        <pt x="1425" y="-16" on="1"/>
        <pt x="1181" y="-16" on="0"/>
        <pt x="1049" y="129" on="1"/>
        <pt x="908" y="-16" on="0"/>
        <pt x="664" y="-16" on="1"/>
        <pt x="474" y="-16" on="0"/>
        <pt x="186" y="127" on="0"/>
        <pt x="31" y="387" on="0"/>
        <pt x="31" y="561" on="1"/>
        <pt x="31" y="735" on="0"/>
        <pt x="186" y="995" on="0"/>
        <pt x="473" y="1137" on="0"/>
        <pt x="664" y="1137" on="1"/>
        <pt x="914" y="1137" on="0"/>
        <pt x="1051" y="989" on="1"/>
        <pt x="1182" y="1136" on="0"/>
        <pt x="1413" y="1137" on="1"/>
      </contour>
      <contour>
        <pt x="1556" y="739" on="0"/>
        <pt x="1479" y="829" on="0"/>
        <pt x="1417" y="829" on="1"/>
        <pt x="1358" y="829" on="0"/>
        <pt x="1280" y="743" on="0"/>
        <pt x="1266" y="670" on="1"/>
        <pt x="1552" y="670" on="1"/>
      </contour>
      <contour>
        <pt x="739" y="338" on="0"/>
        <pt x="831" y="457" on="0"/>
        <pt x="831" y="555" on="1"/>
        <pt x="831" y="653" on="0"/>
        <pt x="739" y="772" on="0"/>
        <pt x="664" y="772" on="1"/>
        <pt x="588" y="772" on="0"/>
        <pt x="496" y="653" on="0"/>
        <pt x="496" y="555" on="1"/>
        <pt x="496" y="457" on="0"/>
        <pt x="588" y="338" on="0"/>
        <pt x="664" y="338" on="1"/>
      </contour>
    </TTGlyph>
    <TTGlyph name="ogonek" xMin="141" yMin="-418" xMax="584" yMax="49">
      <contour>
        <pt x="367" y="-107" on="0"/>
        <pt x="367" y="-162" on="1"/>
        <pt x="367" y="-193" on="0"/>
        <pt x="395" y="-193" on="1"/>
        <pt x="436" y="-193" on="0"/>
        <pt x="471" y="-131" on="1"/>
        <pt x="584" y="-262" on="1"/>
        <pt x="541" y="-340" on="0"/>
        <pt x="414" y="-418" on="0"/>
        <pt x="338" y="-418" on="1"/>
        <pt x="260" y="-418" on="0"/>
        <pt x="141" y="-334" on="0"/>
        <pt x="141" y="-238" on="1"/>
        <pt x="141" y="-113" on="0"/>
        <pt x="264" y="49" on="1"/>
        <pt x="479" y="49" on="1"/>
      </contour>
    </TTGlyph>
    <TTGlyph name="ograve" xMin="31" yMin="-16" xMax="1296" yMax="1597">
      <component glyphName="o" x="0" y="0" flags="0x1000"/>
      <component glyphName="grave" x="229" y="0" flags="0x1000"/>
    </TTGlyph>
    <TTGlyph name="ohungarumlaut" xMin="31" yMin="-16" xMax="1296" yMax="1597">
      <component glyphName="o" x="0" y="0" flags="0x1000"/>
      <component glyphName="hungarumlaut" x="377" y="0" flags="0x1000"/>
    </TTGlyph>
    <TTGlyph name="omacron" xMin="31" yMin="-16" xMax="1296" yMax="1581">
      <component glyphName="o" x="0" y="0" flags="0x1000"/>
      <component glyphName="macron" x="305" y="0" flags="0x1000"/>
    </TTGlyph>
    <TTGlyph name="one" xMin="4" yMin="0" xMax="729" yMax="1436">
      <contour>
        <pt x="254" y="0" on="1"/>
        <pt x="254" y="1061" on="1"/>
        <pt x="4" y="1061" on="1"/>
        <pt x="4" y="1436" on="1"/>
        <pt x="729" y="1436" on="1"/>
        <pt x="729" y="0" on="1"/>
      </contour>
    </TTGlyph>
    <TTGlyph name="one.dnom" xMin="8" yMin="0" xMax="483" yMax="862">
      <contour>
        <pt x="164" y="618" on="1"/>
        <pt x="8" y="618" on="1"/>
        <pt x="8" y="862" on="1"/>
        <pt x="483" y="862" on="1"/>
        <pt x="483" y="0" on="1"/>
        <pt x="164" y="0" on="1"/>
      </contour>
    </TTGlyph>
    <TTGlyph name="one.numr" xMin="8" yMin="573" xMax="483" yMax="1436">
      <contour>
        <pt x="164" y="1192" on="1"/>
        <pt x="8" y="1192" on="1"/>
        <pt x="8" y="1436" on="1"/>
        <pt x="483" y="1436" on="1"/>
        <pt x="483" y="573" on="1"/>
        <pt x="164" y="573" on="1"/>
      </contour>
    </TTGlyph>
    <TTGlyph name="oneeighth" xMin="8" yMin="-14" xMax="1908" yMax="1436">
      <component glyphName="one.numr" x="0" y="0" flags="0x1000"/>
      <component glyphName="fraction" x="729" y="0" flags="0x1000"/>
      <component glyphName="eight.dnom" x="1077" y="0" flags="0x1000"/>
    </TTGlyph>
    <TTGlyph name="onehalf" xMin="8" yMin="0" xMax="1931" yMax="1436">
      <component glyphName="one.numr" x="0" y="0" flags="0x1000"/>
      <component glyphName="fraction" x="729" y="0" flags="0x1000"/>
      <component glyphName="two.dnom" x="1159" y="0" flags="0x1000"/>
    </TTGlyph>
    <TTGlyph name="onequarter" xMin="8" yMin="0" xMax="1910" yMax="1436">
      <component glyphName="one.numr" x="0" y="0" flags="0x1000"/>
      <component glyphName="fraction" x="729" y="0" flags="0x1000"/>
      <component glyphName="four.dnom" x="1036" y="0" flags="0x1000"/>
    </TTGlyph>
    <TTGlyph name="onesuperior" xMin="8" yMin="573" xMax="483" yMax="1436">
      <contour>
        <pt x="164" y="1192" on="1"/>
        <pt x="8" y="1192" on="1"/>
        <pt x="8" y="1436" on="1"/>
        <pt x="483" y="1436" on="1"/>
        <pt x="483" y="573" on="1"/>
        <pt x="164" y="573" on="1"/>
      </contour>
    </TTGlyph>
    <TTGlyph name="ordfeminine" xMin="23" yMin="924" xMax="766" yMax="1626">
      <contour>
        <pt x="588" y="1626" on="0"/>
        <pt x="766" y="1495" on="0"/>
        <pt x="764" y="1374" on="1"/>
        <pt x="764" y="938" on="1"/>
        <pt x="459" y="938" on="1"/>
        <pt x="459" y="1006" on="1"/>
        <pt x="393" y="924" on="0"/>
        <pt x="262" y="924" on="1"/>
        <pt x="149" y="924" on="0"/>
        <pt x="23" y="1040" on="0"/>
        <pt x="23" y="1139" on="1"/>
        <pt x="23" y="1239" on="0"/>
        <pt x="164" y="1346" on="0"/>
        <pt x="301" y="1348" on="1"/>
        <pt x="459" y="1348" on="1"/>
        <pt x="449" y="1405" on="0"/>
        <pt x="354" y="1405" on="1"/>
        <pt x="268" y="1405" on="0"/>
        <pt x="139" y="1366" on="1"/>
        <pt x="70" y="1565" on="1"/>
        <pt x="267" y="1626" on="0"/>
        <pt x="428" y="1626" on="1"/>
      </contour>
      <contour>
        <pt x="424" y="1114" on="0"/>
        <pt x="459" y="1155" on="1"/>
        <pt x="459" y="1210" on="1"/>
        <pt x="367" y="1210" on="1"/>
        <pt x="316" y="1210" on="0"/>
        <pt x="315" y="1163" on="1"/>
        <pt x="315" y="1114" on="0"/>
        <pt x="371" y="1114" on="1"/>
      </contour>
    </TTGlyph>
    <TTGlyph name="ordmasculine" xMin="25" yMin="928" xMax="834" yMax="1624">
      <contour>
        <pt x="614" y="1624" on="0"/>
        <pt x="834" y="1436" on="0"/>
        <pt x="834" y="1276" on="1"/>
        <pt x="834" y="1118" on="0"/>
        <pt x="614" y="928" on="0"/>
        <pt x="428" y="928" on="1"/>
        <pt x="244" y="928" on="0"/>
        <pt x="25" y="1118" on="0"/>
        <pt x="25" y="1276" on="1"/>
        <pt x="25" y="1436" on="0"/>
        <pt x="244" y="1624" on="0"/>
        <pt x="428" y="1624" on="1"/>
      </contour>
      <contour>
        <pt x="387" y="1389" on="0"/>
        <pt x="338" y="1325" on="0"/>
        <pt x="338" y="1272" on="1"/>
        <pt x="338" y="1219" on="0"/>
        <pt x="387" y="1157" on="0"/>
        <pt x="428" y="1157" on="1"/>
        <pt x="469" y="1157" on="0"/>
        <pt x="518" y="1219" on="0"/>
        <pt x="518" y="1272" on="1"/>
        <pt x="518" y="1325" on="0"/>
        <pt x="469" y="1389" on="0"/>
        <pt x="428" y="1389" on="1"/>
      </contour>
    </TTGlyph>
    <TTGlyph name="oslash" xMin="31" yMin="-285" xMax="1296" yMax="1386">
      <contour>
        <pt x="1104" y="1034" on="0"/>
        <pt x="1296" y="756" on="0"/>
        <pt x="1296" y="561" on="1"/>
        <pt x="1296" y="387" on="0"/>
        <pt x="1141" y="127" on="0"/>
        <pt x="854" y="-16" on="0"/>
        <pt x="664" y="-16" on="1"/>
        <pt x="631" y="-16" on="0"/>
        <pt x="569" y="-12" on="1"/>
        <pt x="479" y="-285" on="1"/>
        <pt x="299" y="-285" on="1"/>
        <pt x="401" y="25" on="1"/>
        <pt x="227" y="86" on="0"/>
        <pt x="31" y="367" on="0"/>
        <pt x="31" y="561" on="1"/>
        <pt x="31" y="735" on="0"/>
        <pt x="186" y="995" on="0"/>
        <pt x="473" y="1137" on="0"/>
        <pt x="664" y="1137" on="1"/>
        <pt x="717" y="1137" on="0"/>
        <pt x="762" y="1130" on="1"/>
        <pt x="846" y="1386" on="1"/>
        <pt x="1026" y="1386" on="1"/>
        <pt x="930" y="1094" on="1"/>
      </contour>
      <contour>
        <pt x="465" y="445" on="0"/>
        <pt x="514" y="375" on="1"/>
        <pt x="657" y="811" on="1"/>
        <pt x="569" y="807" on="0"/>
        <pt x="465" y="670" on="0"/>
        <pt x="465" y="555" on="1"/>
      </contour>
      <contour>
        <pt x="758" y="303" on="0"/>
        <pt x="862" y="440" on="0"/>
        <pt x="862" y="555" on="1"/>
        <pt x="862" y="664" on="0"/>
        <pt x="813" y="735" on="1"/>
        <pt x="670" y="299" on="1"/>
      </contour>
    </TTGlyph>
    <TTGlyph name="otilde" xMin="31" yMin="-16" xMax="1296" yMax="1632">
      <component glyphName="o" x="0" y="0" flags="0x1000"/>
      <component glyphName="tilde" x="305" y="0" flags="0x1000"/>
    </TTGlyph>
    <TTGlyph name="p" xMin="123" yMin="-397" xMax="1382" yMax="1137">
      <contour>
        <pt x="1022" y="1137" on="0"/>
        <pt x="1255" y="993" on="0"/>
        <pt x="1382" y="729" on="0"/>
        <pt x="1382" y="553" on="1"/>
        <pt x="1382" y="381" on="0"/>
        <pt x="1260" y="123" on="0"/>
        <pt x="1032" y="-16" on="0"/>
        <pt x="881" y="-16" on="1"/>
        <pt x="791" y="-16" on="0"/>
        <pt x="639" y="51" on="0"/>
        <pt x="584" y="115" on="1"/>
        <pt x="584" y="-397" on="1"/>
        <pt x="123" y="-397" on="1"/>
        <pt x="123" y="1120" on="1"/>
        <pt x="584" y="1120" on="1"/>
        <pt x="584" y="1008" on="1"/>
        <pt x="695" y="1137" on="0"/>
        <pt x="868" y="1137" on="1"/>
      </contour>
      <contour>
        <pt x="825" y="348" on="0"/>
        <pt x="918" y="467" on="0"/>
        <pt x="918" y="565" on="1"/>
        <pt x="918" y="663" on="0"/>
        <pt x="825" y="782" on="0"/>
        <pt x="750" y="782" on="1"/>
        <pt x="674" y="782" on="0"/>
        <pt x="584" y="664" on="0"/>
        <pt x="584" y="565" on="1"/>
        <pt x="584" y="467" on="0"/>
        <pt x="674" y="348" on="0"/>
        <pt x="750" y="348" on="1"/>
      </contour>
    </TTGlyph>
    <TTGlyph name="paragraph" xMin="-20" yMin="-215" xMax="1294" yMax="1520">
      <contour>
        <pt x="954" y="-215" on="1"/>
        <pt x="954" y="1266" on="1"/>
        <pt x="807" y="1266" on="1"/>
        <pt x="807" y="-215" on="1"/>
        <pt x="467" y="-215" on="1"/>
        <pt x="467" y="600" on="1"/>
        <pt x="422" y="600" on="1"/>
        <pt x="258" y="600" on="0"/>
        <pt x="61" y="743" on="0"/>
        <pt x="-20" y="948" on="0"/>
        <pt x="-20" y="1051" on="1"/>
        <pt x="-20" y="1178" on="0"/>
        <pt x="88" y="1389" on="0"/>
        <pt x="328" y="1520" on="0"/>
        <pt x="510" y="1520" on="1"/>
        <pt x="1294" y="1520" on="1"/>
        <pt x="1294" y="-215" on="1"/>
      </contour>
    </TTGlyph>
    <TTGlyph name="parenleft" xMin="96" yMin="-254" xMax="780" yMax="1520">
      <contour>
        <pt x="664" y="1327" on="0"/>
        <pt x="528" y="870" on="0"/>
        <pt x="528" y="633" on="1"/>
        <pt x="528" y="395" on="0"/>
        <pt x="664" y="-61" on="0"/>
        <pt x="780" y="-254" on="1"/>
        <pt x="369" y="-254" on="1"/>
        <pt x="236" y="-70" on="0"/>
        <pt x="96" y="387" on="0"/>
        <pt x="96" y="633" on="1"/>
        <pt x="96" y="879" on="0"/>
        <pt x="236" y="1335" on="0"/>
        <pt x="369" y="1520" on="1"/>
        <pt x="780" y="1520" on="1"/>
      </contour>
    </TTGlyph>
    <TTGlyph name="parenright" xMin="-22" yMin="-254" xMax="662" yMax="1520">
      <component glyphName="parenleft" x="758" y="0" scalex="-1.0" scaley="1.0" flags="0x1000"/>
    </TTGlyph>
</ttFont>
